TwilioSansMono-LightItalic.ufo
<glyph name="ampersand" format="2">
	<unicode hex="0026"/>
	<advance width="600"/>
	<outline>
		<contour>
			<point x="218" y="-14" type="curve" smooth="yes"/>
			<point x="302" y="-14"/>
			<point x="373" y="22"/>
			<point x="431" y="83" type="curve"/>
			<point x="502" y="0" type="line"/>
			<point x="570" y="0" type="line"/>
			<point x="464" y="124" type="line"/>
			<point x="512" y="191"/>
			<point x="548" y="278"/>
			<point x="570" y="379" type="curve"/>
			<point x="519" y="379" type="line"/>
			<point x="498" y="288"/>
			<point x="469" y="215"/>
			<point x="433" y="160" type="curve"/>
			<point x="256" y="368" type="line" smooth="yes"/>
			<point x="215" y="416"/>
			<point x="187" y="455"/>
			<point x="187" y="514" type="curve" smooth="yes"/>
			<point x="187" y="595"/>
			<point x="240" y="650"/>
			<point x="333" y="650" type="curve" smooth="yes"/>
			<point x="402" y="650"/>
			<point x="479" y="619"/>
			<point x="522" y="581" type="curve"/>
			<point x="530" y="634" type="line"/>
			<point x="488" y="667"/>
			<point x="413" y="698"/>
			<point x="337" y="698" type="curve" smooth="yes"/>
			<point x="213" y="698"/>
			<point x="132" y="616"/>
			<point x="132" y="508" type="curve" smooth="yes"/>
			<point x="132" y="471"/>
			<point x="144" y="437"/>
			<point x="163" y="405" type="curve"/>
			<point x="89" y="369"/>
			<point x="10" y="291"/>
			<point x="10" y="174" type="curve" smooth="yes"/>
			<point x="10" y="59"/>
			<point x="87" y="-14"/>
		</contour>
		<contour>
			<point x="65" y="179" type="curve" smooth="yes"/>
			<point x="65" y="271"/>
			<point x="119" y="338"/>
			<point x="189" y="368" type="curve"/>
			<point x="197" y="357"/>
			<point x="206" y="346"/>
			<point x="215" y="335" type="curve" smooth="yes"/>
			<point x="401" y="118" type="line"/>
			<point x="352" y="62"/>
			<point x="292" y="34"/>
			<point x="226" y="34" type="curve" smooth="yes"/>
			<point x="116" y="34"/>
			<point x="65" y="96"/>
		</contour>
	</outline>
</glyph>
<glyph name="parenleft" format="2">
	<unicode hex="0028"/>
	<advance width="600"/>
	<outline>
		<contour>
			<point x="401" y="-168" type="curve"/>
			<point x="425" y="-123" type="line"/>
			<point x="274" y="-55"/>
			<point x="211" y="99"/>
			<point x="243" y="328" type="curve" smooth="yes"/>
			<point x="274" y="551"/>
			<point x="366" y="693"/>
			<point x="551" y="750" type="curve"/>
			<point x="537" y="798" type="line"/>
			<point x="325" y="731"/>
			<point x="222" y="567"/>
			<point x="190" y="337" type="curve" smooth="yes"/>
			<point x="157" y="102"/>
			<point x="214" y="-79"/>
		</contour>
	</outline>
</glyph>
<glyph name="parenright" format="2">
	<unicode hex="0029"/>
	<advance width="600"/>
	<outline>
		<contour>
			<point x="64" y="-120" type="curve"/>
			<point x="78" y="-168" type="line"/>
			<point x="290" y="-101"/>
			<point x="392" y="60"/>
			<point x="425" y="290" type="curve" smooth="yes"/>
			<point x="459" y="523"/>
			<point x="401" y="707"/>
			<point x="214" y="798" type="curve"/>
			<point x="189" y="753" type="line"/>
			<point x="353" y="679"/>
			<point x="401" y="509"/>
			<point x="372" y="297" type="curve" smooth="yes"/>
			<point x="343" y="90"/>
			<point x="256" y="-62"/>
		</contour>
	</outline>
</glyph>
<glyph name="plus" format="2">
	<unicode hex="002B"/>
	<advance width="600"/>
	<outline>
		<contour>
			<point x="313" y="536" type="line"/>
			<point x="286" y="339" type="line"/>
			<point x="91" y="339" type="line"/>
			<point x="84" y="288" type="line"/>
			<point x="279" y="288" type="line"/>
			<point x="251" y="90" type="line"/>
			<point x="302" y="90" type="line"/>
			<point x="330" y="288" type="line"/>
			<point x="524" y="288" type="line"/>
			<point x="531" y="339" type="line"/>
			<point x="337" y="339" type="line"/>
			<point x="364" y="536" type="line"/>
		</contour>
	</outline>
	<guideline x="114" y="226" angle="82"/>
</glyph>
<glyph name="comma" format="2">
	<unicode hex="002C"/>
	<advance width="600"/>
	<outline>
		<contour>
			<point x="256" y="95" type="line"/>
			<point x="161" y="-175" type="line"/>
			<point x="203" y="-175" type="line"/>
			<point x="345" y="95" type="line"/>
		</contour>
	</outline>
</glyph>
<glyph name="hyphen" format="2">
	<unicode hex="002D"/>
	<advance width="600"/>
	<outline>
		<contour>
			<point x="483" y="339" type="line"/>
			<point x="140" y="339" type="line"/>
			<point x="132" y="288" type="line"/>
			<point x="475" y="288" type="line"/>
		</contour>
	</outline>
	<guideline x="483" y="339" angle="0"/>
</glyph>
<glyph name="one" format="2">
	<unicode hex="0031"/>
	<advance width="600"/>
	<outline>
		<contour>
			<point x="29" y="0" type="line"/>
			<point x="521" y="0" type="line"/>
			<point x="528" y="49" type="line"/>
			<point x="318" y="49" type="line"/>
			<point x="407" y="684" type="line"/>
			<point x="347" y="684" type="line"/>
			<point x="100" y="506" type="line"/>
			<point x="91" y="445" type="line"/>
			<point x="344" y="627" type="line"/>
			<point x="263" y="49" type="line"/>
			<point x="36" y="49" type="line"/>
		</contour>
	</outline>
</glyph>
<glyph name="two" format="2">
	<unicode hex="0032"/>
	<advance width="600"/>
	<outline>
		<contour>
			<point x="41" y="0" type="line"/>
			<point x="481" y="0" type="line"/>
			<point x="487" y="50" type="line"/>
			<point x="128" y="50" type="line"/>
			<point x="220" y="112" type="line" smooth="yes"/>
			<point x="371" y="214"/>
			<point x="535" y="319"/>
			<point x="535" y="507" type="curve" smooth="yes"/>
			<point x="535" y="627"/>
			<point x="465" y="698"/>
			<point x="330" y="698" type="curve" smooth="yes"/>
			<point x="235" y="698"/>
			<point x="169" y="660"/>
			<point x="132" y="630" type="curve"/>
			<point x="124" y="571" type="line"/>
			<point x="184" y="623"/>
			<point x="250" y="649"/>
			<point x="324" y="649" type="curve" smooth="yes"/>
			<point x="428" y="649"/>
			<point x="478" y="594"/>
			<point x="478" y="503" type="curve" smooth="yes"/>
			<point x="478" y="350"/>
			<point x="353" y="264"/>
			<point x="190" y="148" type="curve" smooth="yes"/>
			<point x="48" y="47" type="line"/>
		</contour>
	</outline>
</glyph>
<glyph name="three" format="2">
	<unicode hex="0033"/>
	<advance width="600"/>
	<outline>
		<contour>
			<point x="267" y="-14" type="curve" smooth="yes"/>
			<point x="416" y="-14"/>
			<point x="511" y="82"/>
			<point x="511" y="223" type="curve" smooth="yes"/>
			<point x="511" y="332"/>
			<point x="449" y="406"/>
			<point x="300" y="406" type="curve" smooth="yes"/>
			<point x="287" y="406"/>
			<point x="275" y="405"/>
			<point x="264" y="403" type="curve"/>
			<point x="560" y="640" type="line"/>
			<point x="567" y="684" type="line"/>
			<point x="139" y="684" type="line"/>
			<point x="132" y="635" type="line"/>
			<point x="483" y="635" type="line"/>
			<point x="171" y="386" type="line"/>
			<point x="164" y="335" type="line"/>
			<point x="192" y="347"/>
			<point x="242" y="358"/>
			<point x="288" y="358" type="curve" smooth="yes"/>
			<point x="415" y="358"/>
			<point x="455" y="299"/>
			<point x="455" y="219" type="curve" smooth="yes"/>
			<point x="455" y="104"/>
			<point x="384" y="35"/>
			<point x="267" y="35" type="curve" smooth="yes"/>
			<point x="190" y="35"/>
			<point x="118" y="64"/>
			<point x="59" y="128" type="curve"/>
			<point x="51" y="71" type="line"/>
			<point x="89" y="32"/>
			<point x="163" y="-14"/>
		</contour>
	</outline>
	<guideline x="208" y="40" angle="0"/>
</glyph>
<glyph name="five" format="2">
	<unicode hex="0035"/>
	<advance width="600"/>
	<outline>
		<contour>
			<point x="270" y="-13" type="curve" smooth="yes"/>
			<point x="414" y="-13"/>
			<point x="513" y="82"/>
			<point x="511" y="232" type="curve" smooth="yes"/>
			<point x="509" y="363"/>
			<point x="419" y="410"/>
			<point x="300" y="410" type="curve" smooth="yes"/>
			<point x="251" y="410"/>
			<point x="213" y="403"/>
			<point x="176" y="390" type="curve"/>
			<point x="209" y="635" type="line"/>
			<point x="561" y="635" type="line"/>
			<point x="568" y="684" type="line"/>
			<point x="165" y="684" type="line"/>
			<point x="115" y="320" type="line"/>
			<point x="171" y="344"/>
			<point x="216" y="361"/>
			<point x="286" y="361" type="curve" smooth="yes"/>
			<point x="399" y="361"/>
			<point x="453" y="317"/>
			<point x="455" y="226" type="curve" smooth="yes"/>
			<point x="457" y="102"/>
			<point x="379" y="36"/>
			<point x="271" y="36" type="curve" smooth="yes"/>
			<point x="200" y="36"/>
			<point x="126" y="64"/>
			<point x="64" y="131" type="curve"/>
			<point x="56" y="74" type="line"/>
			<point x="108" y="21"/>
			<point x="180" y="-13"/>
		</contour>
	</outline>
	<guideline x="61" y="135" angle="82"/>
</glyph>
<glyph name="seven" format="2">
	<unicode hex="0037"/>
	<advance width="600"/>
	<outline>
		<contour>
			<point x="116" y="0" type="line"/>
			<point x="179" y="0" type="line"/>
			<point x="599" y="635" type="line"/>
			<point x="605" y="684" type="line"/>
			<point x="131" y="684" type="line"/>
			<point x="104" y="499" type="line"/>
			<point x="156" y="499" type="line"/>
			<point x="176" y="635" type="line"/>
			<point x="536" y="635" type="line"/>
		</contour>
	</outline>
</glyph>
<glyph name="at" format="2">
	<unicode hex="0040"/>
	<advance width="600"/>
	<outline>
		<contour>
			<point x="326" y="-134" type="curve" smooth="yes"/>
			<point x="382" y="-134"/>
			<point x="443" y="-121"/>
			<point x="483" y="-98" type="curve"/>
			<point x="490" y="-48" type="line"/>
			<point x="441" y="-75"/>
			<point x="387" y="-85"/>
			<point x="333" y="-85" type="curve" smooth="yes"/>
			<point x="153" y="-85"/>
			<point x="73" y="55"/>
			<point x="107" y="293" type="curve" smooth="yes"/>
			<point x="108" y="300" type="line" smooth="yes"/>
			<point x="141" y="531"/>
			<point x="231" y="650"/>
			<point x="371" y="650" type="curve" smooth="yes"/>
			<point x="494" y="650"/>
			<point x="529" y="567"/>
			<point x="514" y="454" type="curve" smooth="yes"/>
			<point x="505" y="386" type="line"/>
			<point x="487" y="458"/>
			<point x="444" y="492"/>
			<point x="377" y="492" type="curve" smooth="yes"/>
			<point x="292" y="492"/>
			<point x="224" y="422"/>
			<point x="205" y="287" type="curve" smooth="yes"/>
			<point x="185" y="148"/>
			<point x="239" y="64"/>
			<point x="337" y="64" type="curve" smooth="yes"/>
			<point x="402" y="64"/>
			<point x="449" y="106"/>
			<point x="474" y="161" type="curve"/>
			<point x="460" y="67" type="line"/>
			<point x="507" y="67" type="line"/>
			<point x="562" y="454" type="line" smooth="yes"/>
			<point x="583" y="602"/>
			<point x="529" y="697"/>
			<point x="374" y="697" type="curve" smooth="yes"/>
			<point x="197" y="697"/>
			<point x="94" y="554"/>
			<point x="59" y="309" type="curve" smooth="yes"/>
			<point x="57" y="295" type="line" smooth="yes"/>
			<point x="18" y="23"/>
			<point x="122" y="-134"/>
		</contour>
		<contour>
			<point x="352" y="109" type="curve" smooth="yes"/>
			<point x="278" y="109"/>
			<point x="240" y="176"/>
			<point x="254" y="282" type="curve" smooth="yes"/>
			<point x="269" y="393"/>
			<point x="318" y="447"/>
			<point x="386" y="447" type="curve" smooth="yes"/>
			<point x="455" y="447"/>
			<point x="505" y="384"/>
			<point x="489" y="276" type="curve" smooth="yes"/>
			<point x="474" y="174"/>
			<point x="432" y="109"/>
		</contour>
	</outline>
	<guideline x="766" y="348" angle="82"/>
	<guideline x="69" y="325" angle="82"/>
	<guideline x="276" y="293" angle="82"/>
	<guideline x="507" y="67" angle="82"/>
	<guideline x="254" y="282" angle="82"/>
</glyph>
<glyph name="A" format="2">
	<unicode hex="0041"/>
	<advance width="600"/>
	<outline>
		<contour>
			<point x="-7" y="0" type="line"/>
			<point x="54" y="0" type="line"/>
			<point x="145" y="192" type="line"/>
			<point x="437" y="192" type="line"/>
			<point x="475" y="0" type="line"/>
			<point x="533" y="0" type="line"/>
			<point x="391" y="688" type="line"/>
			<point x="324" y="688" type="line"/>
		</contour>
		<contour>
			<point x="168" y="241" type="line"/>
			<point x="350" y="628" type="line"/>
			<point x="427" y="241" type="line"/>
		</contour>
	</outline>
	<anchor name="bottom" x="265" y="0"/>
	<anchor name="ogonek" x="533" y="0"/>
	<anchor name="top" x="357" y="684"/>
	<guideline x="604" y="0" angle="0"/>
	<guideline x="322" y="401" angle="0"/>
</glyph>
<glyph name="E" format="2">
	<unicode hex="0045"/>
	<advance width="600"/>
	<outline>
		<contour>
			<point x="160" y="684" type="line"/>
			<point x="64" y="0" type="line"/>
			<point x="486" y="0" type="line"/>
			<point x="493" y="50" type="line"/>
			<point x="125" y="50" type="line"/>
			<point x="163" y="319" type="line"/>
			<point x="488" y="319" type="line"/>
			<point x="496" y="368" type="line"/>
			<point x="170" y="368" type="line"/>
			<point x="208" y="635" type="line"/>
			<point x="566" y="635" type="line"/>
			<point x="574" y="684" type="line"/>
		</contour>
	</outline>
	<anchor name="bottom" x="284" y="0"/>
	<anchor name="ogonek" x="486" y="0"/>
	<anchor name="top" x="365" y="684"/>
	<guideline x="154" y="510" angle="0"/>
	<guideline x="273" y="403" angle="90"/>
</glyph>
<glyph name="F" format="2">
	<unicode hex="0046"/>
	<advance width="600"/>
	<outline>
		<contour>
			<point x="69" y="0" type="line"/>
			<point x="124" y="1" type="line"/>
			<point x="168" y="318" type="line"/>
			<point x="503" y="318" type="line"/>
			<point x="510" y="367" type="line"/>
			<point x="175" y="367" type="line"/>
			<point x="214" y="635" type="line"/>
			<point x="582" y="635" type="line"/>
			<point x="589" y="684" type="line"/>
			<point x="165" y="684" type="line"/>
		</contour>
	</outline>
	<anchor name="bottom" x="295" y="0"/>
	<anchor name="ogonek" x="525" y="0"/>
	<anchor name="top" x="381" y="684"/>
</glyph>
<glyph name="G" format="2">
	<unicode hex="0047"/>
	<advance width="600"/>
	<outline>
		<contour>
			<point x="283" y="-14" type="curve" smooth="yes"/>
			<point x="434" y="-14"/>
			<point x="515" y="84"/>
			<point x="546" y="294" type="curve" smooth="yes"/>
			<point x="556" y="362" type="line"/>
			<point x="295" y="362" type="line"/>
			<point x="288" y="314" type="line"/>
			<point x="495" y="314" type="line"/>
			<point x="492" y="294" type="line" smooth="yes"/>
			<point x="468" y="126"/>
			<point x="413" y="34"/>
			<point x="286" y="34" type="curve" smooth="yes"/>
			<point x="148" y="34"/>
			<point x="94" y="155"/>
			<point x="123" y="361" type="curve" smooth="yes"/>
			<point x="124" y="368" type="line" smooth="yes"/>
			<point x="150" y="552"/>
			<point x="223" y="651"/>
			<point x="363" y="651" type="curve" smooth="yes"/>
			<point x="446" y="651"/>
			<point x="520" y="612"/>
			<point x="552" y="571" type="curve"/>
			<point x="561" y="631" type="line"/>
			<point x="523" y="664"/>
			<point x="461" y="698"/>
			<point x="360" y="698" type="curve" smooth="yes"/>
			<point x="191" y="698"/>
			<point x="96" y="574"/>
			<point x="68" y="380" type="curve" smooth="yes"/>
			<point x="66" y="366" type="line" smooth="yes"/>
			<point x="34" y="142"/>
			<point x="97" y="-14"/>
		</contour>
	</outline>
	<anchor name="bottom" x="276" y="0"/>
	<anchor name="top" x="368" y="684"/>
	<guideline x="71" y="400" angle="82"/>
	<guideline x="552" y="362" angle="82"/>
</glyph>
<glyph name="I" format="2">
	<unicode hex="0049"/>
	<advance width="600"/>
	<outline>
		<contour>
			<point x="54" y="0" type="line"/>
			<point x="471" y="0" type="line"/>
			<point x="479" y="49" type="line"/>
			<point x="297" y="49" type="line"/>
			<point x="379" y="635" type="line"/>
			<point x="560" y="635" type="line"/>
			<point x="567" y="684" type="line"/>
			<point x="150" y="684" type="line"/>
			<point x="143" y="635" type="line"/>
			<point x="324" y="635" type="line"/>
			<point x="242" y="49" type="line"/>
			<point x="61" y="49" type="line"/>
		</contour>
	</outline>
	<anchor name="bottom" x="12913" y="0"/>
	<anchor name="ogonek" x="471" y="0"/>
	<anchor name="top" x="359" y="684"/>
	<guideline x="361" y="268" angle="90"/>
	<guideline x="-6" y="0" angle="0"/>
</glyph>
<glyph name="J" format="2">
	<unicode hex="004A"/>
	<advance width="600"/>
	<outline>
		<contour>
			<point x="235" y="-14" type="curve" smooth="yes"/>
			<point x="373" y="-14"/>
			<point x="464" y="48"/>
			<point x="484" y="193" type="curve" smooth="yes"/>
			<point x="552" y="684" type="line"/>
			<point x="150" y="684" type="line"/>
			<point x="143" y="635" type="line"/>
			<point x="491" y="635" type="line"/>
			<point x="430" y="202" type="line" smooth="yes"/>
			<point x="411" y="70"/>
			<point x="340" y="34"/>
			<point x="235" y="34" type="curve" smooth="yes"/>
			<point x="168" y="34"/>
			<point x="111" y="55"/>
			<point x="65" y="85" type="curve"/>
			<point x="58" y="33" type="line"/>
			<point x="100" y="6"/>
			<point x="161" y="-14"/>
		</contour>
	</outline>
	<anchor name="bottom" x="87" y="0"/>
	<anchor name="top" x="356" y="684"/>
	<guideline x="369" y="398" angle="0"/>
	<guideline x="132" y="106" angle="90"/>
</glyph>
<glyph name="K" format="2">
	<unicode hex="004B"/>
	<advance width="600"/>
	<outline>
		<contour>
			<point x="60" y="0" type="line"/>
			<point x="115" y="0" type="line"/>
			<point x="142" y="198" type="line"/>
			<point x="304" y="367" type="line"/>
			<point x="461" y="0" type="line"/>
			<point x="524" y="0" type="line"/>
			<point x="347" y="406" type="line"/>
			<point x="606" y="685" type="line"/>
			<point x="536" y="685" type="line"/>
			<point x="153" y="270" type="line"/>
			<point x="211" y="685" type="line"/>
			<point x="156" y="685" type="line"/>
		</contour>
	</outline>
	<anchor name="bottom" x="287" y="0"/>
	<anchor name="top" x="420" y="684"/>
	<guideline x="500" y="720" angle="90"/>
	<guideline x="522" y="0" angle="0"/>
</glyph>
<glyph name="M" format="2">
	<unicode hex="004D"/>
	<advance width="600"/>
	<outline>
		<contour>
			<point x="38" y="0" type="line"/>
			<point x="91" y="0" type="line"/>
			<point x="157" y="471" type="line" smooth="yes"/>
			<point x="157" y="474"/>
			<point x="172" y="583"/>
			<point x="176" y="630" type="curve"/>
			<point x="180" y="630" type="line"/>
			<point x="257" y="195" type="line"/>
			<point x="322" y="195" type="line"/>
			<point x="524" y="630" type="line"/>
			<point x="528" y="630" type="line"/>
			<point x="521" y="587"/>
			<point x="509" y="522"/>
			<point x="502" y="471" type="curve" smooth="yes"/>
			<point x="436" y="0" type="line"/>
			<point x="489" y="0" type="line"/>
			<point x="585" y="685" type="line"/>
			<point x="494" y="685" type="line"/>
			<point x="300" y="256" type="line"/>
			<point x="296" y="256" type="line"/>
			<point x="222" y="685" type="line"/>
			<point x="134" y="685" type="line"/>
		</contour>
	</outline>
	<guideline x="244" y="721" angle="0"/>
	<guideline x="891" y="139" angle="0"/>
</glyph>
<glyph name="R" format="2">
	<unicode hex="0052"/>
	<advance width="600"/>
	<outline>
		<contour>
			<point x="50" y="0" type="line"/>
			<point x="105" y="0" type="line"/>
			<point x="144" y="284" type="line"/>
			<point x="315" y="284" type="line" smooth="yes"/>
			<point x="410" y="284"/>
			<point x="431" y="237"/>
			<point x="437" y="156" type="curve" smooth="yes"/>
			<point x="448" y="0" type="line"/>
			<point x="504" y="0" type="line"/>
			<point x="491" y="168" type="line" smooth="yes"/>
			<point x="485" y="243"/>
			<point x="462" y="293"/>
			<point x="407" y="305" type="curve"/>
			<point x="502" y="321"/>
			<point x="571" y="384"/>
			<point x="571" y="506" type="curve" smooth="yes"/>
			<point x="571" y="612"/>
			<point x="502" y="684"/>
			<point x="381" y="684" type="curve" smooth="yes"/>
			<point x="146" y="684" type="line"/>
		</contour>
		<contour>
			<point x="377" y="635" type="line" smooth="yes"/>
			<point x="464" y="635"/>
			<point x="515" y="584"/>
			<point x="515" y="500" type="curve" smooth="yes"/>
			<point x="515" y="392"/>
			<point x="452" y="334"/>
			<point x="343" y="334" type="curve" smooth="yes"/>
			<point x="151" y="334" type="line"/>
			<point x="194" y="635" type="line"/>
		</contour>
	</outline>
	<anchor name="bottom" x="273" y="0"/>
	<anchor name="top" x="339" y="684"/>
	<guideline x="560" y="512" angle="117.7343"/>
</glyph>
<glyph name="S" format="2">
	<unicode hex="0053"/>
	<advance width="600"/>
	<outline>
		<contour>
			<point x="286" y="-14" type="curve" smooth="yes"/>
			<point x="418" y="-14"/>
			<point x="519" y="68"/>
			<point x="519" y="199" type="curve" smooth="yes"/>
			<point x="519" y="318"/>
			<point x="432" y="342"/>
			<point x="320" y="368" type="curve" smooth="yes"/>
			<point x="227" y="390"/>
			<point x="163" y="409"/>
			<point x="163" y="499" type="curve" smooth="yes"/>
			<point x="163" y="593"/>
			<point x="228" y="650"/>
			<point x="335" y="650" type="curve" smooth="yes"/>
			<point x="419" y="650"/>
			<point x="500" y="620"/>
			<point x="553" y="568" type="curve"/>
			<point x="561" y="623" type="line"/>
			<point x="506" y="669"/>
			<point x="438" y="697"/>
			<point x="334" y="697" type="curve" smooth="yes"/>
			<point x="197" y="697"/>
			<point x="107" y="614"/>
			<point x="107" y="488" type="curve" smooth="yes"/>
			<point x="107" y="358"/>
			<point x="210" y="334"/>
			<point x="304" y="314" type="curve" smooth="yes"/>
			<point x="397" y="294"/>
			<point x="463" y="281"/>
			<point x="463" y="191" type="curve" smooth="yes"/>
			<point x="463" y="96"/>
			<point x="391" y="34"/>
			<point x="285" y="34" type="curve" smooth="yes"/>
			<point x="200" y="34"/>
			<point x="125" y="65"/>
			<point x="65" y="138" type="curve"/>
			<point x="56" y="78" type="line"/>
			<point x="111" y="20"/>
			<point x="187" y="-14"/>
		</contour>
	</outline>
	<anchor name="bottom" x="277" y="0"/>
	<anchor name="top" x="364" y="684"/>
	<guideline x="18" y="522" angle="0"/>
	<guideline x="259" y="730" angle="0"/>
	<guideline x="259" y="714" angle="90"/>
</glyph>
<glyph name="U" format="2">
	<unicode hex="0055"/>
	<advance width="600"/>
	<outline>
		<contour>
			<point x="268" y="-14" type="curve" smooth="yes"/>
			<point x="418" y="-14"/>
			<point x="492" y="82"/>
			<point x="512" y="223" type="curve" smooth="yes"/>
			<point x="576" y="684" type="line"/>
			<point x="522" y="684" type="line"/>
			<point x="457" y="223" type="line" smooth="yes"/>
			<point x="441" y="112"/>
			<point x="394" y="34"/>
			<point x="276" y="34" type="curve" smooth="yes"/>
			<point x="160" y="34"/>
			<point x="118" y="124"/>
			<point x="135" y="243" type="curve" smooth="yes"/>
			<point x="197" y="684" type="line"/>
			<point x="142" y="684" type="line"/>
			<point x="81" y="243" type="line" smooth="yes"/>
			<point x="59" y="86"/>
			<point x="121" y="-14"/>
		</contour>
	</outline>
	<anchor name="bottom" x="264" y="0"/>
	<anchor name="ogonek" x="358" y="0"/>
	<anchor name="top" x="359" y="684"/>
	<guideline x="527" y="507" angle="0"/>
	<guideline x="356" y="-15" angle="45.3561"/>
</glyph>
<glyph name="V" format="2">
	<unicode hex="0056"/>
	<advance width="600"/>
	<outline>
		<contour>
			<point x="226" y="-3" type="line"/>
			<point x="297" y="-3" type="line"/>
			<point x="619" y="684" type="line"/>
			<point x="558" y="684" type="line"/>
			<point x="270" y="56" type="line"/>
			<point x="156" y="684" type="line"/>
			<point x="99" y="684" type="line"/>
		</contour>
	</outline>
	<anchor name="bottom" x="274" y="0"/>
	<anchor name="ogonek" x="560" y="0"/>
	<anchor name="overlap" x="359" y="684"/>
	<anchor name="top" x="366" y="684"/>
	<guideline x="575" y="720" angle="0"/>
	<guideline x="733" y="720" angle="270"/>
	<guideline x="440" y="0" angle="67.5159"/>
	<guideline x="82" y="720" angle="270"/>
</glyph>
<glyph name="W" format="2">
	<unicode hex="0057"/>
	<advance width="600"/>
	<outline>
		<contour>
			<point x="89" y="0" type="line"/>
			<point x="169" y="0" type="line"/>
			<point x="323" y="449" type="line"/>
			<point x="329" y="449" type="line"/>
			<point x="357" y="0" type="line"/>
			<point x="437" y="0" type="line"/>
			<point x="616" y="684" type="line"/>
			<point x="561" y="684" type="line"/>
			<point x="405" y="62" type="line"/>
			<point x="401" y="62" type="line"/>
			<point x="373" y="518" type="line"/>
			<point x="299" y="518" type="line"/>
			<point x="144" y="62" type="line"/>
			<point x="138" y="62" type="line"/>
			<point x="156" y="684" type="line"/>
			<point x="102" y="684" type="line"/>
		</contour>
	</outline>
	<anchor name="top" x="359" y="684"/>
	<guideline x="313" y="121" angle="90"/>
</glyph>
<glyph name="X" format="2">
	<unicode hex="0058"/>
	<advance width="600"/>
	<outline>
		<contour>
			<point x="4" y="0" type="line"/>
			<point x="71" y="0" type="line"/>
			<point x="307" y="314" type="line"/>
			<point x="460" y="0" type="line"/>
			<point x="522" y="0" type="line"/>
			<point x="345" y="356" type="line"/>
			<point x="604" y="684" type="line"/>
			<point x="538" y="684" type="line"/>
			<point x="317" y="402" type="line"/>
			<point x="175" y="684" type="line"/>
			<point x="114" y="684" type="line"/>
			<point x="280" y="361" type="line"/>
		</contour>
	</outline>
	<anchor name="bottom" x="270" y="0"/>
	<anchor name="top" x="361" y="684"/>
	<guideline x="293" y="479" angle="0"/>
	<guideline x="69" y="720" angle="0"/>
</glyph>
<glyph name="Z" format="2">
	<unicode hex="005A"/>
	<advance width="600"/>
	<outline>
		<contour>
			<point x="33" y="0" type="line"/>
			<point x="495" y="0" type="line"/>
			<point x="502" y="50" type="line"/>
			<point x="112" y="50" type="line"/>
			<point x="583" y="642" type="line"/>
			<point x="589" y="684" type="line"/>
			<point x="146" y="684" type="line"/>
			<point x="139" y="635" type="line"/>
			<point x="513" y="635" type="line"/>
			<point x="39" y="41" type="line"/>
		</contour>
	</outline>
	<anchor name="bottom" x="261" y="0"/>
	<anchor name="top" x="366" y="684"/>
	<guideline x="377" y="91" angle="90"/>
</glyph>
<glyph name="bracketleft" format="2">
	<unicode hex="005B"/>
	<advance width="600"/>
	<outline>
		<contour>
			<point x="418" y="-119" type="line"/>
			<point x="211" y="-119" type="line"/>
			<point x="332" y="748" type="line"/>
			<point x="540" y="748" type="line"/>
			<point x="546" y="792" type="line"/>
			<point x="287" y="792" type="line"/>
			<point x="152" y="-163" type="line"/>
			<point x="411" y="-163" type="line"/>
		</contour>
	</outline>
</glyph>
<glyph name="a" format="2">
	<unicode hex="0061"/>
	<advance width="600"/>
	<outline>
		<contour>
			<point x="229" y="-14" type="curve" smooth="yes"/>
			<point x="311" y="-14"/>
			<point x="368" y="27"/>
			<point x="406" y="96" type="curve"/>
			<point x="393" y="0" type="line"/>
			<point x="447" y="0" type="line"/>
			<point x="492" y="318" type="line" smooth="yes"/>
			<point x="514" y="472"/>
			<point x="439" y="537"/>
			<point x="317" y="537" type="curve" smooth="yes"/>
			<point x="242" y="537"/>
			<point x="181" y="516"/>
			<point x="138" y="489" type="curve"/>
			<point x="130" y="434" type="line"/>
			<point x="190" y="476"/>
			<point x="252" y="489"/>
			<point x="307" y="489" type="curve" smooth="yes"/>
			<point x="412" y="489"/>
			<point x="454" y="432"/>
			<point x="439" y="324" type="curve"/>
			<point x="309" y="304" type="line" smooth="yes"/>
			<point x="156" y="281"/>
			<point x="77" y="227"/>
			<point x="78" y="116" type="curve" smooth="yes"/>
			<point x="79" y="33"/>
			<point x="136" y="-14"/>
		</contour>
		<contour>
			<point x="242" y="32" type="curve" smooth="yes"/>
			<point x="179" y="32"/>
			<point x="134" y="67"/>
			<point x="134" y="125" type="curve" smooth="yes"/>
			<point x="133" y="203"/>
			<point x="192" y="242"/>
			<point x="314" y="262" type="curve" smooth="yes"/>
			<point x="433" y="281" type="line"/>
			<point x="422" y="207" type="line" smooth="yes"/>
			<point x="408" y="108"/>
			<point x="339" y="32"/>
		</contour>
	</outline>
	<anchor name="bottom" x="253" y="0"/>
	<anchor name="ogonek" x="447" y="0"/>
	<anchor name="top" x="339" y="523"/>
	<guideline x="18" y="136" angle="90"/>
	<guideline x="101" y="517" angle="82"/>
</glyph>
<glyph name="b" format="2">
	<unicode hex="0062"/>
	<advance width="600"/>
	<outline>
		<contour>
			<point x="355" y="537" type="curve" smooth="yes"/>
			<point x="288" y="537"/>
			<point x="227" y="506"/>
			<point x="183" y="425" type="curve"/>
			<point x="229" y="750" type="line"/>
			<point x="175" y="750" type="line"/>
			<point x="70" y="0" type="line"/>
			<point x="216" y="0" type="line" smooth="yes"/>
			<point x="388" y="0"/>
			<point x="498" y="100"/>
			<point x="521" y="261" type="curve" smooth="yes"/>
			<point x="523" y="275" type="line" smooth="yes"/>
			<point x="547" y="445"/>
			<point x="471" y="537"/>
		</contour>
		<contour>
			<point x="466" y="273" type="curve" smooth="yes"/>
			<point x="465" y="266" type="line"/>
			<point x="444" y="121"/>
			<point x="359" y="47"/>
			<point x="224" y="47" type="curve" smooth="yes"/>
			<point x="130" y="47" type="line"/>
			<point x="165" y="297" type="line" smooth="yes"/>
			<point x="180" y="406"/>
			<point x="242" y="490"/>
			<point x="340" y="490" type="curve" smooth="yes"/>
			<point x="433" y="490"/>
			<point x="486" y="415"/>
		</contour>
	</outline>
</glyph>
<glyph name="c" format="2">
	<unicode hex="0063"/>
	<advance width="600"/>
	<outline>
		<contour>
			<point x="345" y="-12" type="curve" smooth="yes"/>
			<point x="390" y="-12"/>
			<point x="432" y="-3"/>
			<point x="466" y="14" type="curve"/>
			<point x="472" y="65" type="line"/>
			<point x="440" y="46"/>
			<point x="393" y="36"/>
			<point x="352" y="36" type="curve" smooth="yes"/>
			<point x="206" y="36"/>
			<point x="138" y="138"/>
			<point x="159" y="286" type="curve" smooth="yes"/>
			<point x="160" y="293" type="line" smooth="yes"/>
			<point x="178" y="417"/>
			<point x="251" y="486"/>
			<point x="375" y="486" type="curve" smooth="yes"/>
			<point x="438" y="486"/>
			<point x="487" y="472"/>
			<point x="526" y="443" type="curve"/>
			<point x="533" y="495" type="line"/>
			<point x="493" y="522"/>
			<point x="432" y="535"/>
			<point x="379" y="535" type="curve" smooth="yes"/>
			<point x="222" y="535"/>
			<point x="124" y="441"/>
			<point x="104" y="299" type="curve" smooth="yes"/>
			<point x="102" y="285" type="line" smooth="yes"/>
			<point x="78" y="114"/>
			<point x="165" y="-12"/>
		</contour>
	</outline>
	<anchor name="bottom" x="329" y="0"/>
	<anchor name="top" x="399" y="523"/>
</glyph>
<glyph name="d" format="2">
	<unicode hex="0064"/>
	<advance width="600"/>
	<outline>
		<contour>
			<point x="243" y="-14" type="curve" smooth="yes"/>
			<point x="315" y="-14"/>
			<point x="380" y="19"/>
			<point x="419" y="106" type="curve"/>
			<point x="403" y="0" type="line"/>
			<point x="457" y="0" type="line"/>
			<point x="563" y="750" type="line"/>
			<point x="509" y="750" type="line"/>
			<point x="477" y="523" type="line"/>
			<point x="384" y="523" type="line" smooth="yes"/>
			<point x="215" y="523"/>
			<point x="102" y="424"/>
			<point x="79" y="264" type="curve" smooth="yes"/>
			<point x="77" y="250" type="line" smooth="yes"/>
			<point x="53" y="80"/>
			<point x="124" y="-14"/>
		</contour>
		<contour>
			<point x="134" y="252" type="curve" smooth="yes"/>
			<point x="135" y="259" type="line"/>
			<point x="156" y="403"/>
			<point x="241" y="476"/>
			<point x="376" y="476" type="curve" smooth="yes"/>
			<point x="471" y="476" type="line"/>
			<point x="435" y="222" type="line" smooth="yes"/>
			<point x="420" y="118"/>
			<point x="358" y="34"/>
			<point x="262" y="34" type="curve" smooth="yes"/>
			<point x="166" y="34"/>
			<point x="114" y="111"/>
		</contour>
	</outline>
	<anchor name="caron" x="713" y="780"/>
	<anchor name="center" x="473" y="624"/>
	<anchor name="ogonek" x="518" y="8"/>
	<anchor name="top" x="396" y="550"/>
	<guideline x="457" y="0" angle="82"/>
	<guideline x="591" y="435" angle="0"/>
</glyph>
<glyph name="e" format="2">
	<unicode hex="0065"/>
	<advance width="600"/>
	<outline>
		<contour>
			<point x="312" y="-14" type="curve" smooth="yes"/>
			<point x="382" y="-14"/>
			<point x="433" y="2"/>
			<point x="470" y="25" type="curve"/>
			<point x="477" y="77" type="line"/>
			<point x="437" y="51"/>
			<point x="386" y="34"/>
			<point x="316" y="34" type="curve" smooth="yes"/>
			<point x="193" y="34"/>
			<point x="126" y="114"/>
			<point x="137" y="249" type="curve"/>
			<point x="515" y="249" type="line"/>
			<point x="519" y="277" type="line" smooth="yes"/>
			<point x="542" y="438"/>
			<point x="464" y="537"/>
			<point x="331" y="537" type="curve" smooth="yes"/>
			<point x="207" y="537"/>
			<point x="108" y="440"/>
			<point x="87" y="295" type="curve" smooth="yes"/>
			<point x="85" y="281" type="line" smooth="yes"/>
			<point x="63" y="125"/>
			<point x="123" y="-14"/>
		</contour>
		<contour>
			<point x="327" y="491" type="curve" smooth="yes"/>
			<point x="425" y="491"/>
			<point x="481" y="414"/>
			<point x="466" y="293" type="curve"/>
			<point x="142" y="293" type="line"/>
			<point x="159" y="419"/>
			<point x="236" y="491"/>
		</contour>
	</outline>
	<anchor name="ogonek" x="414" y="0"/>
	<anchor name="top" x="336" y="523"/>
</glyph>
<glyph name="g" format="2">
	<unicode hex="0067"/>
	<advance width="600"/>
	<outline>
		<contour>
			<point x="213" y="-204" type="curve" smooth="yes"/>
			<point x="236" y="-204" type="line" smooth="yes"/>
			<point x="404" y="-204"/>
			<point x="499" y="-138"/>
			<point x="499" y="-45" type="curve" smooth="yes"/>
			<point x="499" y="27"/>
			<point x="442" y="61"/>
			<point x="330" y="61" type="curve" smooth="yes"/>
			<point x="207" y="61" type="line" smooth="yes"/>
			<point x="153" y="61"/>
			<point x="123" y="77"/>
			<point x="123" y="105" type="curve" smooth="yes"/>
			<point x="123" y="146"/>
			<point x="181" y="165"/>
			<point x="258" y="165" type="curve" smooth="yes"/>
			<point x="273" y="165" type="line" smooth="yes"/>
			<point x="397" y="165"/>
			<point x="478" y="246"/>
			<point x="478" y="354" type="curve" smooth="yes"/>
			<point x="478" y="407"/>
			<point x="454" y="452"/>
			<point x="423" y="475" type="curve"/>
			<point x="557" y="475" type="line"/>
			<point x="566" y="523" type="line"/>
			<point x="303" y="523" type="line" smooth="yes"/>
			<point x="184" y="523"/>
			<point x="97" y="438"/>
			<point x="97" y="327" type="curve" smooth="yes"/>
			<point x="97" y="254"/>
			<point x="133" y="205"/>
			<point x="191" y="181" type="curve"/>
			<point x="117" y="171"/>
			<point x="68" y="137"/>
			<point x="68" y="90" type="curve" smooth="yes"/>
			<point x="68" y="56"/>
			<point x="89" y="32"/>
			<point x="137" y="22" type="curve"/>
			<point x="54" y="4"/>
			<point x="8" y="-42"/>
			<point x="8" y="-94" type="curve" smooth="yes"/>
			<point x="8" y="-166"/>
			<point x="74" y="-204"/>
		</contour>
		<contour>
			<point x="426" y="355" type="curve" smooth="yes"/>
			<point x="426" y="269"/>
			<point x="369" y="208"/>
			<point x="278" y="208" type="curve" smooth="yes"/>
			<point x="196" y="208"/>
			<point x="150" y="259"/>
			<point x="150" y="330" type="curve" smooth="yes"/>
			<point x="150" y="418"/>
			<point x="207" y="479"/>
			<point x="298" y="479" type="curve" smooth="yes"/>
			<point x="380" y="479"/>
			<point x="426" y="429"/>
		</contour>
		<contour>
			<point x="238" y="-160" type="curve" smooth="yes"/>
			<point x="223" y="-160" type="line"/>
			<point x="119" y="-160"/>
			<point x="64" y="-139"/>
			<point x="64" y="-81" type="curve" smooth="yes"/>
			<point x="64" y="-26"/>
			<point x="129" y="12"/>
			<point x="214" y="12" type="curve" smooth="yes"/>
			<point x="320" y="12" type="line" smooth="yes"/>
			<point x="408" y="12"/>
			<point x="445" y="-9"/>
			<point x="445" y="-54" type="curve" smooth="yes"/>
			<point x="445" y="-121"/>
			<point x="367" y="-160"/>
		</contour>
	</outline>
	<anchor name="bottom" x="263" y="-7"/>
	<anchor name="top" x="336" y="523"/>
	<guideline x="516" y="410" angle="90"/>
	<guideline x="546" y="550" angle="82"/>
	<guideline x="-27" y="94" angle="0"/>
	<guideline x="275" y="-83" angle="0"/>
</glyph>
<glyph name="i" format="2">
	<unicode hex="0069"/>
	<advance width="600"/>
	<outline>
		<contour>
			<point x="372" y="650" type="curve" smooth="yes"/>
			<point x="408" y="650"/>
			<point x="420" y="666"/>
			<point x="423" y="695" type="curve" smooth="yes"/>
			<point x="426" y="722"/>
			<point x="412" y="738"/>
			<point x="379" y="738" type="curve" smooth="yes"/>
			<point x="342" y="738"/>
			<point x="330" y="722"/>
			<point x="327" y="694" type="curve" smooth="yes"/>
			<point x="324" y="666"/>
			<point x="338" y="650"/>
		</contour>
		<contour>
			<point x="56" y="0" type="line"/>
			<point x="498" y="0" type="line"/>
			<point x="506" y="48" type="line"/>
			<point x="315" y="48" type="line"/>
			<point x="382" y="523" type="line"/>
			<point x="130" y="523" type="line"/>
			<point x="123" y="475" type="line"/>
			<point x="321" y="475" type="line"/>
			<point x="261" y="48" type="line"/>
			<point x="63" y="48" type="line"/>
		</contour>
	</outline>
	<anchor name="ogonek" x="498" y="0"/>
	<guideline x="104" y="702" angle="0"/>
	<guideline x="109" y="748" angle="0"/>
	<guideline x="227" y="702" angle="82"/>
</glyph>
<glyph name="j" format="2">
	<unicode hex="006A"/>
	<advance width="600"/>
	<outline>
		<contour>
			<point x="473" y="650" type="curve" smooth="yes"/>
			<point x="509" y="650"/>
			<point x="521" y="666"/>
			<point x="524" y="695" type="curve" smooth="yes"/>
			<point x="527" y="722"/>
			<point x="513" y="738"/>
			<point x="480" y="738" type="curve" smooth="yes"/>
			<point x="443" y="738"/>
			<point x="431" y="722"/>
			<point x="428" y="694" type="curve" smooth="yes"/>
			<point x="425" y="666"/>
			<point x="439" y="650"/>
		</contour>
		<contour>
			<point x="178" y="-204" type="curve" smooth="yes"/>
			<point x="288" y="-204"/>
			<point x="387" y="-167"/>
			<point x="408" y="-18" type="curve" smooth="yes"/>
			<point x="483" y="523" type="line"/>
			<point x="131" y="523" type="line"/>
			<point x="124" y="475" type="line"/>
			<point x="422" y="475" type="line"/>
			<point x="355" y="-8" type="line" smooth="yes"/>
			<point x="341" y="-111"/>
			<point x="287" y="-156"/>
			<point x="177" y="-156" type="curve" smooth="yes"/>
			<point x="121" y="-156"/>
			<point x="69" y="-138"/>
			<point x="37" y="-122" type="curve"/>
			<point x="31" y="-171" type="line"/>
			<point x="59" y="-187"/>
			<point x="119" y="-204"/>
		</contour>
	</outline>
</glyph>
<glyph name="k" format="2">
	<unicode hex="006B"/>
	<advance width="600"/>
	<outline>
		<contour>
			<point x="81" y="0" type="line"/>
			<point x="135" y="0" type="line"/>
			<point x="166" y="220" type="line"/>
			<point x="420" y="0" type="line"/>
			<point x="497" y="0" type="line"/>
			<point x="258" y="203" type="line"/>
			<point x="286" y="203" type="line" smooth="yes"/>
			<point x="430" y="203"/>
			<point x="518" y="276"/>
			<point x="518" y="395" type="curve" smooth="yes"/>
			<point x="518" y="483"/>
			<point x="457" y="537"/>
			<point x="368" y="537" type="curve" smooth="yes"/>
			<point x="291" y="537"/>
			<point x="231" y="496"/>
			<point x="194" y="423" type="curve"/>
			<point x="241" y="750" type="line"/>
			<point x="187" y="750" type="line"/>
		</contour>
		<contour>
			<point x="352" y="491" type="curve" smooth="yes"/>
			<point x="418" y="491"/>
			<point x="462" y="455"/>
			<point x="462" y="389" type="curve" smooth="yes"/>
			<point x="462" y="292"/>
			<point x="394" y="241"/>
			<point x="275" y="241" type="curve" smooth="yes"/>
			<point x="169" y="241" type="line"/>
			<point x="178" y="304" type="line" smooth="yes"/>
			<point x="193" y="413"/>
			<point x="258" y="491"/>
		</contour>
	</outline>
	<anchor name="bottom" x="266" y="0"/>
</glyph>
<glyph name="l" format="2">
	<unicode hex="006C"/>
	<advance width="600"/>
	<outline>
		<contour>
			<point x="45" y="0" type="line"/>
			<point x="487" y="0" type="line"/>
			<point x="495" y="48" type="line"/>
			<point x="304" y="48" type="line"/>
			<point x="405" y="750" type="line"/>
			<point x="153" y="750" type="line"/>
			<point x="146" y="702" type="line"/>
			<point x="345" y="702" type="line"/>
			<point x="250" y="48" type="line"/>
			<point x="52" y="48" type="line"/>
		</contour>
	</outline>
	<anchor name="bottom" x="270" y="-1"/>
	<anchor name="caron" x="554" y="750"/>
	<anchor name="center" x="325" y="377"/>
	<anchor name="top" x="379" y="731"/>
	<guideline x="300" y="279" angle="0"/>
	<guideline x="32" y="0" angle="82"/>
</glyph>
<glyph name="n" format="2">
	<unicode hex="006E"/>
	<advance width="600"/>
	<outline>
		<contour>
			<point x="69" y="0" type="line"/>
			<point x="123" y="0" type="line"/>
			<point x="165" y="298" type="line" smooth="yes"/>
			<point x="170" y="330"/>
			<point x="176" y="365"/>
			<point x="196" y="399" type="curve" smooth="yes"/>
			<point x="224" y="448"/>
			<point x="266" y="490"/>
			<point x="339" y="490" type="curve" smooth="yes"/>
			<point x="417" y="490"/>
			<point x="469" y="437"/>
			<point x="452" y="316" type="curve" smooth="yes"/>
			<point x="407" y="0" type="line"/>
			<point x="461" y="0" type="line"/>
			<point x="507" y="325" type="line" smooth="yes"/>
			<point x="527" y="468"/>
			<point x="457" y="537"/>
			<point x="355" y="537" type="curve" smooth="yes"/>
			<point x="278" y="537"/>
			<point x="220" y="497"/>
			<point x="183" y="426" type="curve"/>
			<point x="197" y="523" type="line"/>
			<point x="143" y="523" type="line"/>
		</contour>
	</outline>
	<anchor name="bottom" x="264" y="0"/>
	<anchor name="top" x="338" y="523"/>
</glyph>
<glyph name="o" format="2">
	<unicode hex="006F"/>
	<advance width="600"/>
	<outline>
		<contour>
			<point x="283" y="-14" type="curve" smooth="yes"/>
			<point x="407" y="-14"/>
			<point x="497" y="77"/>
			<point x="519" y="228" type="curve" smooth="yes"/>
			<point x="521" y="242" type="line" smooth="yes"/>
			<point x="546" y="420"/>
			<point x="467" y="537"/>
			<point x="319" y="537" type="curve" smooth="yes"/>
			<point x="201" y="537"/>
			<point x="103" y="447"/>
			<point x="81" y="296" type="curve" smooth="yes"/>
			<point x="79" y="282" type="line" smooth="yes"/>
			<point x="53" y="102"/>
			<point x="135" y="-14"/>
		</contour>
		<contour>
			<point x="284" y="34" type="curve" smooth="yes"/>
			<point x="176" y="34"/>
			<point x="113" y="122"/>
			<point x="135" y="279" type="curve" smooth="yes"/>
			<point x="136" y="286" type="line" smooth="yes"/>
			<point x="155" y="421"/>
			<point x="226" y="490"/>
			<point x="317" y="490" type="curve" smooth="yes"/>
			<point x="425" y="490"/>
			<point x="488" y="402"/>
			<point x="465" y="244" type="curve" smooth="yes"/>
			<point x="464" y="237" type="line" smooth="yes"/>
			<point x="445" y="103"/>
			<point x="377" y="34"/>
		</contour>
	</outline>
	<anchor name="bottom" x="259" y="0"/>
	<anchor name="center" x="300" y="274"/>
	<anchor name="top" x="336" y="523"/>
	<guideline x="313" y="595" angle="90"/>
	<guideline x="549" y="254" angle="82"/>
	<guideline x="135" y="284" angle="82"/>
	<guideline x="519" y="241" angle="82"/>
	<guideline x="319" y="537" angle="0"/>
	<guideline x="320" y="489" angle="0"/>
</glyph>
<glyph name="p" format="2">
	<unicode hex="0070"/>
	<advance width="600"/>
	<outline>
		<contour>
			<point x="355" y="537" type="curve" smooth="yes"/>
			<point x="288" y="537"/>
			<point x="227" y="506"/>
			<point x="183" y="425" type="curve"/>
			<point x="197" y="523" type="line"/>
			<point x="143" y="523" type="line"/>
			<point x="42" y="-194" type="line"/>
			<point x="96" y="-194" type="line"/>
			<point x="123" y="0" type="line"/>
			<point x="216" y="0" type="line" smooth="yes"/>
			<point x="388" y="0"/>
			<point x="498" y="100"/>
			<point x="521" y="261" type="curve" smooth="yes"/>
			<point x="523" y="275" type="line" smooth="yes"/>
			<point x="547" y="445"/>
			<point x="471" y="537"/>
		</contour>
		<contour>
			<point x="466" y="273" type="curve" smooth="yes"/>
			<point x="465" y="266" type="line"/>
			<point x="444" y="121"/>
			<point x="359" y="47"/>
			<point x="224" y="47" type="curve" smooth="yes"/>
			<point x="130" y="47" type="line"/>
			<point x="165" y="297" type="line" smooth="yes"/>
			<point x="180" y="406"/>
			<point x="242" y="490"/>
			<point x="340" y="490" type="curve" smooth="yes"/>
			<point x="433" y="490"/>
			<point x="486" y="415"/>
		</contour>
	</outline>
	<anchor name="bottom" x="277" y="0"/>
	<anchor name="ogonek" x="173" y="550"/>
	<guideline x="143" y="523" angle="82"/>
	<guideline x="197" y="523" angle="82"/>
</glyph>
<glyph name="q" format="2">
	<unicode hex="0071"/>
	<advance width="600"/>
	<outline>
		<contour>
			<point x="376" y="-194" type="line"/>
			<point x="430" y="-194" type="line"/>
			<point x="530" y="523" type="line"/>
			<point x="384" y="523" type="line" smooth="yes"/>
			<point x="215" y="523"/>
			<point x="102" y="424"/>
			<point x="79" y="264" type="curve" smooth="yes"/>
			<point x="77" y="250" type="line" smooth="yes"/>
			<point x="53" y="80"/>
			<point x="127" y="-14"/>
			<point x="244" y="-14" type="curve" smooth="yes"/>
			<point x="316" y="-14"/>
			<point x="379" y="18"/>
			<point x="418" y="101" type="curve"/>
		</contour>
		<contour>
			<point x="262" y="34" type="curve" smooth="yes"/>
			<point x="166" y="34"/>
			<point x="114" y="111"/>
			<point x="134" y="252" type="curve" smooth="yes"/>
			<point x="135" y="259" type="line" smooth="yes"/>
			<point x="156" y="403"/>
			<point x="241" y="476"/>
			<point x="376" y="476" type="curve" smooth="yes"/>
			<point x="470" y="476" type="line"/>
			<point x="434" y="222" type="line" smooth="yes"/>
			<point x="419" y="119"/>
			<point x="358" y="34"/>
		</contour>
	</outline>
</glyph>
<glyph name="r" format="2">
	<unicode hex="0072"/>
	<advance width="600"/>
	<outline>
		<contour>
			<point x="47" y="0" type="line"/>
			<point x="459" y="0" type="line"/>
			<point x="466" y="48" type="line"/>
			<point x="257" y="48" type="line"/>
			<point x="290" y="286" type="line" smooth="yes"/>
			<point x="304" y="383"/>
			<point x="377" y="481"/>
			<point x="478" y="481" type="curve" smooth="yes"/>
			<point x="511" y="481"/>
			<point x="536" y="474"/>
			<point x="555" y="463" type="curve"/>
			<point x="562" y="513" type="line"/>
			<point x="547" y="522"/>
			<point x="525" y="531"/>
			<point x="484" y="531" type="curve" smooth="yes"/>
			<point x="406" y="531"/>
			<point x="343" y="480"/>
			<point x="307" y="403" type="curve"/>
			<point x="324" y="523" type="line"/>
			<point x="120" y="523" type="line"/>
			<point x="113" y="475" type="line"/>
			<point x="262" y="475" type="line"/>
			<point x="203" y="48" type="line"/>
			<point x="53" y="48" type="line"/>
		</contour>
	</outline>
	<anchor name="bottom" x="221" y="0"/>
	<anchor name="top" x="383" y="523"/>
</glyph>
<glyph name="v" format="2">
	<unicode hex="0076"/>
	<advance width="600"/>
	<outline>
		<contour>
			<point x="248" y="-14" type="curve" smooth="yes"/>
			<point x="399" y="-14"/>
			<point x="506" y="128"/>
			<point x="530" y="318" type="curve" smooth="yes"/>
			<point x="539" y="390"/>
			<point x="534" y="456"/>
			<point x="517" y="522" type="curve"/>
			<point x="462" y="523" type="line"/>
			<point x="480" y="457"/>
			<point x="486" y="396"/>
			<point x="477" y="322" type="curve" smooth="yes"/>
			<point x="455" y="145"/>
			<point x="366" y="33"/>
			<point x="254" y="33" type="curve" smooth="yes"/>
			<point x="196" y="33"/>
			<point x="168" y="64"/>
			<point x="177" y="129" type="curve" smooth="yes"/>
			<point x="232" y="523" type="line"/>
			<point x="63" y="523" type="line"/>
			<point x="57" y="476" type="line"/>
			<point x="172" y="476" type="line"/>
			<point x="123" y="122" type="line" smooth="yes"/>
			<point x="112" y="39"/>
			<point x="152" y="-14"/>
		</contour>
	</outline>
</glyph>
<glyph name="x" format="2">
	<unicode hex="0078"/>
	<advance width="600"/>
	<outline>
		<contour>
			<point x="45" y="0" type="line"/>
			<point x="112" y="0" type="line"/>
			<point x="294" y="234" type="line"/>
			<point x="419" y="0" type="line"/>
			<point x="481" y="0" type="line"/>
			<point x="332" y="273" type="line"/>
			<point x="542" y="523" type="line"/>
			<point x="476" y="523" type="line"/>
			<point x="304" y="312" type="line"/>
			<point x="191" y="523" type="line"/>
			<point x="129" y="523" type="line"/>
			<point x="267" y="274" type="line"/>
		</contour>
	</outline>
	<anchor name="bottom" x="301" y="0"/>
	<anchor name="top" x="370" y="523"/>
	<guideline x="265" y="304" angle="0"/>
	<guideline x="94" y="585" angle="0"/>
	<guideline x="454" y="0" angle="0"/>
</glyph>
<glyph name="braceleft" format="2">
	<unicode hex="007B"/>
	<advance width="600"/>
	<outline>
		<contour>
			<point x="146" y="287" type="line"/>
			<point x="216" y="287" type="line" smooth="yes"/>
			<point x="273" y="287"/>
			<point x="292" y="253"/>
			<point x="292" y="221" type="curve" smooth="yes"/>
			<point x="292" y="143"/>
			<point x="147" y="86"/>
			<point x="147" y="-38" type="curve" smooth="yes"/>
			<point x="147" y="-104"/>
			<point x="184" y="-163"/>
			<point x="299" y="-163" type="curve" smooth="yes"/>
			<point x="420" y="-163" type="line"/>
			<point x="426" y="-119" type="line"/>
			<point x="304" y="-119" type="line" smooth="yes"/>
			<point x="236" y="-119"/>
			<point x="201" y="-92"/>
			<point x="201" y="-36" type="curve" smooth="yes"/>
			<point x="201" y="71"/>
			<point x="345" y="118"/>
			<point x="345" y="222" type="curve" smooth="yes"/>
			<point x="345" y="272"/>
			<point x="303" y="307"/>
			<point x="258" y="314" type="curve"/>
			<point x="307" y="321"/>
			<point x="373" y="349"/>
			<point x="373" y="430" type="curve" smooth="yes"/>
			<point x="373" y="514"/>
			<point x="299" y="579"/>
			<point x="299" y="657" type="curve" smooth="yes"/>
			<point x="299" y="728"/>
			<point x="351" y="748"/>
			<point x="424" y="748" type="curve" smooth="yes"/>
			<point x="547" y="748" type="line"/>
			<point x="554" y="792" type="line"/>
			<point x="421" y="792" type="line" smooth="yes"/>
			<point x="305" y="792"/>
			<point x="245" y="740"/>
			<point x="245" y="657" type="curve" smooth="yes"/>
			<point x="245" y="572"/>
			<point x="320" y="501"/>
			<point x="320" y="425" type="curve" smooth="yes"/>
			<point x="320" y="378"/>
			<point x="288" y="341"/>
			<point x="225" y="341" type="curve" smooth="yes"/>
			<point x="154" y="341" type="line"/>
		</contour>
	</outline>
</glyph>
<glyph name="asciitilde" format="2">
	<unicode hex="007E"/>
	<advance width="600"/>
	<outline>
		<contour>
			<point x="85" y="231" type="curve"/>
			<point x="138" y="231" type="line"/>
			<point x="150" y="318"/>
			<point x="172" y="355"/>
			<point x="214" y="355" type="curve" smooth="yes"/>
			<point x="283" y="355"/>
			<point x="302" y="227"/>
			<point x="404" y="227" type="curve" smooth="yes"/>
			<point x="468" y="227"/>
			<point x="512" y="267"/>
			<point x="530" y="400" type="curve"/>
			<point x="477" y="400" type="line"/>
			<point x="465" y="315"/>
			<point x="448" y="277"/>
			<point x="404" y="277" type="curve" smooth="yes"/>
			<point x="338" y="277"/>
			<point x="317" y="406"/>
			<point x="214" y="406" type="curve" smooth="yes"/>
			<point x="133" y="406"/>
			<point x="99" y="334"/>
		</contour>
	</outline>
</glyph>
<glyph name="exclamdown" format="2">
	<unicode hex="00A1"/>
	<advance width="600"/>
	<outline>
		<contour>
			<point x="334" y="535" type="curve" smooth="yes"/>
			<point x="296" y="535"/>
			<point x="282" y="519"/>
			<point x="279" y="489" type="curve" smooth="yes"/>
			<point x="276" y="461"/>
			<point x="287" y="439"/>
			<point x="329" y="439" type="curve" smooth="yes"/>
			<point x="367" y="439"/>
			<point x="381" y="456"/>
			<point x="384" y="485" type="curve" smooth="yes"/>
			<point x="387" y="514"/>
			<point x="376" y="535"/>
		</contour>
		<contour>
			<point x="333" y="341" type="line"/>
			<point x="293" y="341" type="line"/>
			<point x="234" y="-6" type="line"/>
			<point x="212" y="-161" type="line"/>
			<point x="273" y="-161" type="line"/>
			<point x="295" y="-7" type="line"/>
		</contour>
	</outline>
</glyph>
<glyph name="cent" format="2">
	<unicode hex="00A2"/>
	<advance width="600"/>
	<outline>
		<contour>
			<point x="245" y="-93" type="line"/>
			<point x="294" y="-93" type="line"/>
			<point x="313" y="-11" type="line"/>
			<point x="323" y="-12"/>
			<point x="334" y="-12"/>
			<point x="345" y="-12" type="curve" smooth="yes"/>
			<point x="390" y="-12"/>
			<point x="432" y="-3"/>
			<point x="466" y="14" type="curve"/>
			<point x="472" y="65" type="line"/>
			<point x="440" y="46"/>
			<point x="393" y="36"/>
			<point x="352" y="36" type="curve" smooth="yes"/>
			<point x="342" y="36"/>
			<point x="333" y="36"/>
			<point x="324" y="37" type="curve"/>
			<point x="429" y="482" type="line"/>
			<point x="467" y="476"/>
			<point x="499" y="463"/>
			<point x="526" y="443" type="curve"/>
			<point x="533" y="495" type="line"/>
			<point x="508" y="512"/>
			<point x="475" y="523"/>
			<point x="440" y="530" type="curve"/>
			<point x="460" y="614" type="line"/>
			<point x="411" y="614" type="line"/>
			<point x="393" y="535" type="line"/>
			<point x="379" y="535" type="line" smooth="yes"/>
			<point x="222" y="535"/>
			<point x="124" y="441"/>
			<point x="104" y="299" type="curve" smooth="yes"/>
			<point x="102" y="285" type="line" smooth="yes"/>
			<point x="82" y="141"/>
			<point x="140" y="29"/>
			<point x="266" y="-3" type="curve"/>
		</contour>
		<contour>
			<point x="159" y="286" type="curve" smooth="yes"/>
			<point x="160" y="293" type="line" smooth="yes"/>
			<point x="178" y="417"/>
			<point x="251" y="486"/>
			<point x="375" y="486" type="curve" smooth="yes"/>
			<point x="381" y="486" type="line"/>
			<point x="278" y="46" type="line"/>
			<point x="184" y="76"/>
			<point x="142" y="166"/>
		</contour>
	</outline>
	<guideline x="351" y="208" angle="90"/>
</glyph>
<glyph name="section" format="2">
	<unicode hex="00A7"/>
	<advance width="600"/>
	<outline>
		<contour>
			<point x="277" y="-85" type="curve" smooth="yes"/>
			<point x="380" y="-85"/>
			<point x="461" y="-23"/>
			<point x="461" y="81" type="curve" smooth="yes"/>
			<point x="461" y="133"/>
			<point x="435" y="170"/>
			<point x="394" y="193" type="curve"/>
			<point x="461" y="206"/>
			<point x="513" y="249"/>
			<point x="513" y="319" type="curve" smooth="yes"/>
			<point x="513" y="407"/>
			<point x="423" y="424"/>
			<point x="337" y="439" type="curve" smooth="yes"/>
			<point x="263" y="452"/>
			<point x="205" y="464"/>
			<point x="205" y="538" type="curve" smooth="yes"/>
			<point x="205" y="607"/>
			<point x="255" y="652"/>
			<point x="340" y="652" type="curve" smooth="yes"/>
			<point x="422" y="652"/>
			<point x="484" y="627"/>
			<point x="524" y="589" type="curve"/>
			<point x="532" y="642" type="line"/>
			<point x="497" y="668"/>
			<point x="436" y="698"/>
			<point x="340" y="698" type="curve" smooth="yes"/>
			<point x="235" y="698"/>
			<point x="154" y="637"/>
			<point x="154" y="534" type="curve" smooth="yes"/>
			<point x="154" y="470"/>
			<point x="183" y="434"/>
			<point x="222" y="414" type="curve"/>
			<point x="146" y="401"/>
			<point x="100" y="359"/>
			<point x="100" y="295" type="curve" smooth="yes"/>
			<point x="100" y="210"/>
			<point x="186" y="188"/>
			<point x="287" y="171" type="curve" smooth="yes"/>
			<point x="351" y="160"/>
			<point x="409" y="143"/>
			<point x="409" y="77" type="curve" smooth="yes"/>
			<point x="409" y="6"/>
			<point x="360" y="-37"/>
			<point x="276" y="-37" type="curve" smooth="yes"/>
			<point x="200" y="-37"/>
			<point x="136" y="-9"/>
			<point x="87" y="40" type="curve"/>
			<point x="78" y="-16" type="line"/>
			<point x="118" y="-52"/>
			<point x="181" y="-85"/>
		</contour>
		<contour>
			<point x="302" y="221" type="curve" smooth="yes"/>
			<point x="221" y="239"/>
			<point x="151" y="244"/>
			<point x="151" y="311" type="curve" smooth="yes"/>
			<point x="151" y="377"/>
			<point x="219" y="410"/>
			<point x="317" y="391" type="curve" smooth="yes"/>
			<point x="398" y="375"/>
			<point x="463" y="369"/>
			<point x="463" y="303" type="curve" smooth="yes"/>
			<point x="463" y="239"/>
			<point x="403" y="198"/>
		</contour>
	</outline>
</glyph>
<glyph name="dieresis" format="2">
	<unicode hex="00A8"/>
	<advance width="600"/>
	<outline>
		<contour>
			<point x="447" y="641" type="curve" smooth="yes"/>
			<point x="481" y="641"/>
			<point x="493" y="657"/>
			<point x="496" y="683" type="curve" smooth="yes"/>
			<point x="499" y="707"/>
			<point x="490" y="726"/>
			<point x="454" y="726" type="curve" smooth="yes"/>
			<point x="420" y="726"/>
			<point x="408" y="710"/>
			<point x="405" y="684" type="curve" smooth="yes"/>
			<point x="402" y="660"/>
			<point x="411" y="641"/>
		</contour>
		<contour>
			<point x="264" y="641" type="curve" smooth="yes"/>
			<point x="298" y="641"/>
			<point x="310" y="657"/>
			<point x="313" y="683" type="curve" smooth="yes"/>
			<point x="316" y="707"/>
			<point x="307" y="726"/>
			<point x="271" y="726" type="curve" smooth="yes"/>
			<point x="237" y="726"/>
			<point x="225" y="710"/>
			<point x="222" y="684" type="curve" smooth="yes"/>
			<point x="219" y="660"/>
			<point x="228" y="641"/>
		</contour>
	</outline>
	<anchor name="_top" x="336" y="523"/>
	<guideline x="535" y="760" angle="0"/>
</glyph>
<glyph name="copyright" format="2">
	<unicode hex="00A9"/>
	<advance width="600"/>
	<outline>
		<contour>
			<point x="302" y="106" type="curve" smooth="yes"/>
			<point x="442" y="106"/>
			<point x="543" y="197"/>
			<point x="565" y="349" type="curve" smooth="yes"/>
			<point x="567" y="363" type="line" smooth="yes"/>
			<point x="590" y="527"/>
			<point x="498" y="657"/>
			<point x="331" y="657" type="curve" smooth="yes"/>
			<point x="187" y="657"/>
			<point x="90" y="566"/>
			<point x="69" y="417" type="curve" smooth="yes"/>
			<point x="67" y="403" type="line" smooth="yes"/>
			<point x="43" y="237"/>
			<point x="135" y="106"/>
		</contour>
		<contour>
			<point x="305" y="144" type="curve" smooth="yes"/>
			<point x="162" y="144"/>
			<point x="87" y="254"/>
			<point x="108" y="403" type="curve" smooth="yes"/>
			<point x="109" y="410" type="line" smooth="yes"/>
			<point x="128" y="546"/>
			<point x="208" y="619"/>
			<point x="329" y="619" type="curve" smooth="yes"/>
			<point x="472" y="619"/>
			<point x="547" y="510"/>
			<point x="526" y="363" type="curve" smooth="yes"/>
			<point x="525" y="356" type="line" smooth="yes"/>
			<point x="505" y="217"/>
			<point x="421" y="144"/>
		</contour>
		<contour>
			<point x="326" y="242" type="curve" smooth="yes"/>
			<point x="345" y="242"/>
			<point x="356" y="245"/>
			<point x="370" y="250" type="curve"/>
			<point x="375" y="284" type="line"/>
			<point x="363" y="279"/>
			<point x="345" y="275"/>
			<point x="328" y="275" type="curve" smooth="yes"/>
			<point x="272" y="275"/>
			<point x="235" y="316"/>
			<point x="246" y="389" type="curve" smooth="yes"/>
			<point x="255" y="449"/>
			<point x="288" y="482"/>
			<point x="342" y="482" type="curve" smooth="yes"/>
			<point x="368" y="482"/>
			<point x="389" y="475"/>
			<point x="401" y="468" type="curve"/>
			<point x="404" y="501" type="line"/>
			<point x="392" y="509"/>
			<point x="367" y="515"/>
			<point x="341" y="515" type="curve" smooth="yes"/>
			<point x="266" y="515"/>
			<point x="220" y="466"/>
			<point x="209" y="395" type="curve" smooth="yes"/>
			<point x="196" y="313"/>
			<point x="236" y="242"/>
		</contour>
	</outline>
	<guideline x="120" y="455" angle="82"/>
	<guideline x="76" y="462" angle="82"/>
</glyph>
<glyph name="ordfeminine" format="2">
	<unicode hex="00AA"/>
	<advance width="600"/>
	<outline>
		<contour>
			<point x="259" y="224" type="curve" smooth="yes"/>
			<point x="333" y="224"/>
			<point x="386" y="259"/>
			<point x="423" y="327" type="curve"/>
			<point x="410" y="235" type="line"/>
			<point x="458" y="235" type="line"/>
			<point x="496" y="502" type="line" smooth="yes"/>
			<point x="515" y="634"/>
			<point x="447" y="696"/>
			<point x="327" y="696" type="curve" smooth="yes"/>
			<point x="260" y="696"/>
			<point x="209" y="676"/>
			<point x="175" y="655" type="curve"/>
			<point x="168" y="603" type="line"/>
			<point x="217" y="641"/>
			<point x="265" y="655"/>
			<point x="321" y="655" type="curve" smooth="yes"/>
			<point x="408" y="655"/>
			<point x="464" y="621"/>
			<point x="451" y="515" type="curve"/>
			<point x="329" y="497" type="line" smooth="yes"/>
			<point x="196" y="477"/>
			<point x="123" y="429"/>
			<point x="123" y="339" type="curve" smooth="yes"/>
			<point x="123" y="269"/>
			<point x="174" y="224"/>
		</contour>
		<contour>
			<point x="268" y="266" type="curve" smooth="yes"/>
			<point x="208" y="266"/>
			<point x="171" y="294"/>
			<point x="171" y="343" type="curve" smooth="yes"/>
			<point x="171" y="419"/>
			<point x="236" y="442"/>
			<point x="337" y="458" type="curve" smooth="yes"/>
			<point x="445" y="475" type="line"/>
			<point x="439" y="435" type="line" smooth="yes"/>
			<point x="422" y="320"/>
			<point x="351" y="266"/>
		</contour>
	</outline>
	<anchor name="bottom" x="204" y="235"/>
	<anchor name="ogonek" x="379" y="235"/>
	<anchor name="right" x="402" y="235"/>
	<anchor name="top" x="272" y="685"/>
	<guideline x="448" y="511" angle="82"/>
</glyph>
<glyph name="guillemetleft" format="2">
	<unicode hex="00AB"/>
	<advance width="600"/>
	<outline>
		<contour>
			<point x="295" y="77" type="line"/>
			<point x="150" y="284" type="line"/>
			<point x="355" y="497" type="line"/>
			<point x="287" y="497" type="line"/>
			<point x="88" y="287" type="line"/>
			<point x="235" y="77" type="line"/>
		</contour>
		<contour>
			<point x="482" y="77" type="line"/>
			<point x="337" y="284" type="line"/>
			<point x="542" y="497" type="line"/>
			<point x="474" y="497" type="line"/>
			<point x="275" y="287" type="line"/>
			<point x="422" y="77" type="line"/>
		</contour>
	</outline>
</glyph>
<glyph name="logicalnot" format="2">
	<unicode hex="00AC"/>
	<advance width="600"/>
	<outline>
		<contour>
			<point x="493" y="71" type="line"/>
			<point x="530" y="339" type="line"/>
			<point x="91" y="339" type="line"/>
			<point x="84" y="288" type="line"/>
			<point x="468" y="288" type="line"/>
			<point x="439" y="71" type="line"/>
		</contour>
	</outline>
</glyph>
<glyph name="degree" format="2">
	<unicode hex="00B0"/>
	<advance width="600"/>
	<outline>
		<contour>
			<point x="326" y="311" type="curve" smooth="yes"/>
			<point x="436" y="311"/>
			<point x="518" y="405"/>
			<point x="518" y="517" type="curve" smooth="yes"/>
			<point x="518" y="624"/>
			<point x="450" y="695"/>
			<point x="344" y="695" type="curve" smooth="yes"/>
			<point x="233" y="695"/>
			<point x="151" y="606"/>
			<point x="151" y="493" type="curve" smooth="yes"/>
			<point x="151" y="386"/>
			<point x="217" y="311"/>
		</contour>
		<contour>
			<point x="324" y="360" type="curve" smooth="yes"/>
			<point x="249" y="360"/>
			<point x="201" y="415"/>
			<point x="201" y="496" type="curve" smooth="yes"/>
			<point x="201" y="587"/>
			<point x="265" y="646"/>
			<point x="342" y="646" type="curve" smooth="yes"/>
			<point x="422" y="646"/>
			<point x="468" y="595"/>
			<point x="468" y="513" type="curve" smooth="yes"/>
			<point x="468" y="424"/>
			<point x="408" y="360"/>
		</contour>
	</outline>
</glyph>
<glyph name="guillemetright" format="2">
	<unicode hex="00BB"/>
	<advance width="600"/>
	<outline>
		<contour>
			<point x="253" y="77" type="line"/>
			<point x="320" y="77" type="line"/>
			<point x="520" y="287" type="line"/>
			<point x="374" y="497" type="line"/>
			<point x="313" y="497" type="line"/>
			<point x="458" y="292" type="line"/>
		</contour>
		<contour>
			<point x="65" y="77" type="line"/>
			<point x="131" y="77" type="line"/>
			<point x="332" y="287" type="line"/>
			<point x="185" y="497" type="line"/>
			<point x="125" y="497" type="line"/>
			<point x="270" y="291" type="line"/>
		</contour>
	</outline>
</glyph>
<glyph name="questiondown" format="2">
	<unicode hex="00BF"/>
	<advance width="600"/>
	<outline>
		<contour>
			<point x="352" y="535" type="curve" smooth="yes"/>
			<point x="314" y="535"/>
			<point x="300" y="519"/>
			<point x="297" y="491" type="curve" smooth="yes"/>
			<point x="294" y="461"/>
			<point x="305" y="439"/>
			<point x="347" y="439" type="curve" smooth="yes"/>
			<point x="385" y="439"/>
			<point x="399" y="456"/>
			<point x="402" y="483" type="curve" smooth="yes"/>
			<point x="405" y="514"/>
			<point x="394" y="535"/>
		</contour>
		<contour>
			<point x="361" y="341" type="curve"/>
			<point x="313" y="341" type="line"/>
			<point x="309" y="304" type="line" smooth="yes"/>
			<point x="291" y="138"/>
			<point x="77" y="135"/>
			<point x="77" y="-25" type="curve" smooth="yes"/>
			<point x="77" y="-108"/>
			<point x="133" y="-175"/>
			<point x="264" y="-175" type="curve" smooth="yes"/>
			<point x="331" y="-175"/>
			<point x="393" y="-157"/>
			<point x="446" y="-124" type="curve"/>
			<point x="454" y="-66" type="line"/>
			<point x="406" y="-102"/>
			<point x="342" y="-127"/>
			<point x="267" y="-127" type="curve" smooth="yes"/>
			<point x="179" y="-127"/>
			<point x="133" y="-90"/>
			<point x="133" y="-20" type="curve" smooth="yes"/>
			<point x="133" y="118"/>
			<point x="333" y="108"/>
			<point x="358" y="297" type="curve" smooth="yes"/>
			<point x="361" y="320"/>
			<point x="361" y="339"/>
		</contour>
	</outline>
</glyph>
<glyph name="Ccedilla" format="2">
	<unicode hex="00C7"/>
	<advance width="600"/>
	<outline>
		<contour>
			<point x="284" y="-214" type="curve" smooth="yes"/>
			<point x="347" y="-214"/>
			<point x="390" y="-183"/>
			<point x="392" y="-125" type="curve" smooth="yes"/>
			<point x="394" y="-78"/>
			<point x="368" y="-52"/>
			<point x="314" y="-48" type="curve"/>
			<point x="336" y="-11" type="line"/>
			<point x="343" y="-12"/>
			<point x="351" y="-12"/>
			<point x="358" y="-12" type="curve" smooth="yes"/>
			<point x="418" y="-12"/>
			<point x="458" y="-1"/>
			<point x="493" y="16" type="curve"/>
			<point x="501" y="69" type="line"/>
			<point x="460" y="47"/>
			<point x="412" y="37"/>
			<point x="362" y="37" type="curve" smooth="yes"/>
			<point x="177" y="37"/>
			<point x="121" y="206"/>
			<point x="145" y="371" type="curve" smooth="yes"/>
			<point x="146" y="378" type="line" smooth="yes"/>
			<point x="169" y="542"/>
			<point x="253" y="646"/>
			<point x="405" y="646" type="curve" smooth="yes"/>
			<point x="467" y="646"/>
			<point x="526" y="628"/>
			<point x="571" y="594" type="curve"/>
			<point x="579" y="650" type="line"/>
			<point x="537" y="676"/>
			<point x="475" y="695"/>
			<point x="406" y="695" type="curve" smooth="yes"/>
			<point x="219" y="695"/>
			<point x="116" y="570"/>
			<point x="90" y="390" type="curve" smooth="yes"/>
			<point x="88" y="376" type="line" smooth="yes"/>
			<point x="63" y="202"/>
			<point x="115" y="27"/>
			<point x="294" y="-6" type="curve"/>
			<point x="245" y="-89" type="line"/>
			<point x="255" y="-87"/>
			<point x="268" y="-85"/>
			<point x="284" y="-85" type="curve" smooth="yes"/>
			<point x="321" y="-85"/>
			<point x="346" y="-95"/>
			<point x="346" y="-125" type="curve" smooth="yes"/>
			<point x="346" y="-160"/>
			<point x="320" y="-171"/>
			<point x="283" y="-171" type="curve" smooth="yes"/>
			<point x="257" y="-171"/>
			<point x="229" y="-164"/>
			<point x="208" y="-151" type="curve"/>
			<point x="202" y="-193" type="line"/>
			<point x="221" y="-206"/>
			<point x="254" y="-214"/>
		</contour>
	</outline>
</glyph>
<glyph name="multiply" format="2">
	<unicode hex="00D7"/>
	<advance width="600"/>
	<outline>
		<contour>
			<point x="117" y="122" type="line"/>
			<point x="306" y="291" type="line"/>
			<point x="445" y="127" type="line"/>
			<point x="482" y="159" type="line"/>
			<point x="343" y="324" type="line"/>
			<point x="533" y="493" type="line"/>
			<point x="502" y="529" type="line"/>
			<point x="312" y="360" type="line"/>
			<point x="174" y="524" type="line"/>
			<point x="136" y="492" type="line"/>
			<point x="276" y="327" type="line"/>
			<point x="86" y="158" type="line"/>
		</contour>
	</outline>
</glyph>
<glyph name="Oslash" format="2">
	<unicode hex="00D8"/>
	<advance width="600"/>
	<outline>
		<contour>
			<point x="278" y="-14" type="curve" smooth="yes"/>
			<point x="426" y="-14"/>
			<point x="517" y="111"/>
			<point x="544" y="302" type="curve" smooth="yes"/>
			<point x="546" y="316" type="line" smooth="yes"/>
			<point x="563" y="434"/>
			<point x="555" y="526"/>
			<point x="525" y="590" type="curve"/>
			<point x="613" y="708" type="line"/>
			<point x="556" y="707" type="line"/>
			<point x="499" y="632" type="line"/>
			<point x="464" y="676"/>
			<point x="413" y="698"/>
			<point x="347" y="698" type="curve" smooth="yes"/>
			<point x="203" y="698"/>
			<point x="107" y="573"/>
			<point x="79" y="380" type="curve" smooth="yes"/>
			<point x="77" y="366" type="line" smooth="yes"/>
			<point x="60" y="249"/>
			<point x="68" y="158"/>
			<point x="98" y="94" type="curve"/>
			<point x="10" y="-24" type="line"/>
			<point x="66" y="-24" type="line"/>
			<point x="124" y="53" type="line"/>
			<point x="159" y="9"/>
			<point x="211" y="-14"/>
		</contour>
		<contour>
			<point x="134" y="365" type="curve" smooth="yes"/>
			<point x="135" y="372" type="line" smooth="yes"/>
			<point x="161" y="552"/>
			<point x="235" y="650"/>
			<point x="345" y="650" type="curve" smooth="yes"/>
			<point x="400" y="650"/>
			<point x="439" y="627"/>
			<point x="464" y="586" type="curve"/>
			<point x="138" y="148" type="line"/>
			<point x="122" y="203"/>
			<point x="121" y="277"/>
		</contour>
		<contour>
			<point x="280" y="34" type="curve" smooth="yes"/>
			<point x="224" y="34"/>
			<point x="184" y="57"/>
			<point x="159" y="99" type="curve"/>
			<point x="485" y="537" type="line"/>
			<point x="501" y="481"/>
			<point x="502" y="408"/>
			<point x="489" y="321" type="curve" smooth="yes"/>
			<point x="488" y="314" type="line" smooth="yes"/>
			<point x="462" y="132"/>
			<point x="394" y="34"/>
		</contour>
	</outline>
	<guideline x="672" y="328" angle="90"/>
</glyph>
<glyph name="germandbls" format="2">
	<unicode hex="00DF"/>
	<advance width="600"/>
	<outline>
		<contour>
			<point x="309" y="-9" type="curve" smooth="yes"/>
			<point x="442" y="-9"/>
			<point x="531" y="79"/>
			<point x="531" y="208" type="curve" smooth="yes"/>
			<point x="531" y="300"/>
			<point x="477" y="361"/>
			<point x="397" y="378" type="curve"/>
			<point x="473" y="390"/>
			<point x="559" y="452"/>
			<point x="559" y="578" type="curve" smooth="yes"/>
			<point x="559" y="681"/>
			<point x="499" y="760"/>
			<point x="358" y="760" type="curve" smooth="yes"/>
			<point x="214" y="760"/>
			<point x="138" y="666"/>
			<point x="118" y="525" type="curve" smooth="yes"/>
			<point x="45" y="0" type="line"/>
			<point x="99" y="0" type="line"/>
			<point x="174" y="526" type="line" smooth="yes"/>
			<point x="192" y="651"/>
			<point x="253" y="713"/>
			<point x="356" y="713" type="curve" smooth="yes"/>
			<point x="449" y="713"/>
			<point x="503" y="664"/>
			<point x="503" y="576" type="curve" smooth="yes"/>
			<point x="503" y="464"/>
			<point x="439" y="400"/>
			<point x="328" y="400" type="curve" smooth="yes"/>
			<point x="209" y="400" type="line"/>
			<point x="202" y="354" type="line"/>
			<point x="308" y="354" type="line" smooth="yes"/>
			<point x="417" y="354"/>
			<point x="476" y="306"/>
			<point x="476" y="208" type="curve" smooth="yes"/>
			<point x="476" y="103"/>
			<point x="409" y="37"/>
			<point x="308" y="37" type="curve" smooth="yes"/>
			<point x="247" y="37"/>
			<point x="200" y="54"/>
			<point x="166" y="79" type="curve"/>
			<point x="158" y="32" type="line"/>
			<point x="188" y="9"/>
			<point x="239" y="-9"/>
		</contour>
	</outline>
</glyph>
<glyph name="ae" format="2">
	<unicode hex="00E6"/>
	<advance width="600"/>
	<outline>
		<contour>
			<point x="115" y="-14" type="curve" smooth="yes"/>
			<point x="175" y="-14"/>
			<point x="230" y="21"/>
			<point x="261" y="117" type="curve"/>
			<point x="274" y="39"/>
			<point x="316" y="-14"/>
			<point x="420" y="-14" type="curve" smooth="yes"/>
			<point x="471" y="-14"/>
			<point x="519" y="10"/>
			<point x="537" y="27" type="curve"/>
			<point x="543" y="77" type="line"/>
			<point x="512" y="50"/>
			<point x="472" y="31"/>
			<point x="426" y="31" type="curve" smooth="yes"/>
			<point x="318" y="31"/>
			<point x="291" y="115"/>
			<point x="309" y="249" type="curve"/>
			<point x="578" y="249" type="line"/>
			<point x="583" y="279" type="line" smooth="yes"/>
			<point x="606" y="417"/>
			<point x="580" y="537"/>
			<point x="461" y="537" type="curve" smooth="yes"/>
			<point x="405" y="537"/>
			<point x="355" y="504"/>
			<point x="322" y="446" type="curve"/>
			<point x="310" y="503"/>
			<point x="271" y="537"/>
			<point x="196" y="537" type="curve" smooth="yes"/>
			<point x="133" y="537"/>
			<point x="81" y="509"/>
			<point x="59" y="493" type="curve"/>
			<point x="51" y="440" type="line"/>
			<point x="98" y="479"/>
			<point x="147" y="491"/>
			<point x="187" y="491" type="curve" smooth="yes"/>
			<point x="265" y="491"/>
			<point x="287" y="443"/>
			<point x="273" y="344" type="curve" smooth="yes"/>
			<point x="270" y="324" type="line"/>
			<point x="203" y="310" type="line" smooth="yes"/>
			<point x="77" y="284"/>
			<point x="0" y="228"/>
			<point x="0" y="111" type="curve" smooth="yes"/>
			<point x="0" y="35"/>
			<point x="46" y="-14"/>
		</contour>
		<contour>
			<point x="453" y="492" type="curve" smooth="yes"/>
			<point x="536" y="492"/>
			<point x="549" y="404"/>
			<point x="534" y="292" type="curve"/>
			<point x="315" y="292" type="line"/>
			<point x="337" y="428"/>
			<point x="384" y="492"/>
		</contour>
		<contour>
			<point x="50" y="119" type="curve" smooth="yes"/>
			<point x="50" y="212"/>
			<point x="112" y="250"/>
			<point x="207" y="268" type="curve" smooth="yes"/>
			<point x="264" y="279" type="line"/>
			<point x="249" y="176" type="line"/>
			<point x="235" y="77"/>
			<point x="184" y="31"/>
			<point x="125" y="31" type="curve" smooth="yes"/>
			<point x="81" y="31"/>
			<point x="50" y="67"/>
		</contour>
	</outline>
	<anchor name="top" x="332" y="523"/>
</glyph>
<glyph name="eth" format="2">
	<unicode hex="00F0"/>
	<advance width="600"/>
	<outline>
		<contour>
			<point x="277" y="-14" type="curve" smooth="yes"/>
			<point x="414" y="-14"/>
			<point x="496" y="81"/>
			<point x="523" y="258" type="curve" smooth="yes"/>
			<point x="525" y="271" type="line" smooth="yes"/>
			<point x="547" y="415"/>
			<point x="523" y="543"/>
			<point x="453" y="642" type="curve"/>
			<point x="550" y="682" type="line"/>
			<point x="557" y="732" type="line"/>
			<point x="426" y="677" type="line"/>
			<point x="402" y="704"/>
			<point x="374" y="729"/>
			<point x="343" y="750" type="curve"/>
			<point x="261" y="750" type="line"/>
			<point x="306" y="720"/>
			<point x="344" y="690"/>
			<point x="375" y="656" type="curve"/>
			<point x="263" y="610" type="line"/>
			<point x="256" y="560" type="line"/>
			<point x="404" y="621" type="line"/>
			<point x="446" y="565"/>
			<point x="470" y="497"/>
			<point x="475" y="405" type="curve"/>
			<point x="447" y="472"/>
			<point x="389" y="511"/>
			<point x="308" y="511" type="curve" smooth="yes"/>
			<point x="191" y="511"/>
			<point x="99" y="422"/>
			<point x="79" y="283" type="curve" smooth="yes"/>
			<point x="77" y="269" type="line" smooth="yes"/>
			<point x="54" y="109"/>
			<point x="122" y="-14"/>
		</contour>
		<contour>
			<point x="282" y="34" type="curve" smooth="yes"/>
			<point x="172" y="34"/>
			<point x="114" y="122"/>
			<point x="134" y="264" type="curve" smooth="yes"/>
			<point x="135" y="271" type="line" smooth="yes"/>
			<point x="152" y="392"/>
			<point x="217" y="465"/>
			<point x="313" y="465" type="curve" smooth="yes"/>
			<point x="410" y="465"/>
			<point x="482" y="403"/>
			<point x="466" y="257" type="curve" smooth="yes"/>
			<point x="465" y="248" type="line" smooth="yes"/>
			<point x="450" y="112"/>
			<point x="384" y="34"/>
		</contour>
	</outline>
	<guideline x="366" y="762" angle="0"/>
</glyph>
<glyph name="divide" format="2">
	<unicode hex="00F7"/>
	<advance width="600"/>
	<outline>
		<contour>
			<point x="327" y="456" type="curve" smooth="yes"/>
			<point x="364" y="456"/>
			<point x="386" y="468"/>
			<point x="391" y="502" type="curve" smooth="yes"/>
			<point x="396" y="537"/>
			<point x="376" y="547"/>
			<point x="340" y="547" type="curve" smooth="yes"/>
			<point x="304" y="547"/>
			<point x="281" y="537"/>
			<point x="277" y="502" type="curve" smooth="yes"/>
			<point x="272" y="468"/>
			<point x="291" y="456"/>
		</contour>
		<contour>
			<point x="84" y="288" type="line"/>
			<point x="524" y="288" type="line"/>
			<point x="531" y="339" type="line"/>
			<point x="91" y="339" type="line"/>
		</contour>
		<contour>
			<point x="274" y="78" type="curve" smooth="yes"/>
			<point x="310" y="78"/>
			<point x="333" y="90"/>
			<point x="338" y="124" type="curve" smooth="yes"/>
			<point x="342" y="159"/>
			<point x="323" y="169"/>
			<point x="287" y="169" type="curve" smooth="yes"/>
			<point x="251" y="169"/>
			<point x="228" y="159"/>
			<point x="223" y="124" type="curve" smooth="yes"/>
			<point x="218" y="90"/>
			<point x="238" y="78"/>
		</contour>
	</outline>
	<guideline x="287" y="397" angle="82"/>
	<guideline x="324" y="347" angle="82"/>
</glyph>
<glyph name="Aogonek" format="2">
	<unicode hex="0104"/>
	<advance width="600"/>
	<outline>
		<contour>
			<point x="-7" y="0" type="line"/>
			<point x="54" y="0" type="line"/>
			<point x="145" y="192" type="line"/>
			<point x="437" y="192" type="line"/>
			<point x="475" y="0" type="line"/>
			<point x="404" y="-22"/>
			<point x="362" y="-71"/>
			<point x="362" y="-123" type="curve" smooth="yes"/>
			<point x="362" y="-182"/>
			<point x="402" y="-203"/>
			<point x="462" y="-203" type="curve" smooth="yes"/>
			<point x="481" y="-203"/>
			<point x="505" y="-198"/>
			<point x="515" y="-192" type="curve"/>
			<point x="521" y="-149" type="line"/>
			<point x="508" y="-154"/>
			<point x="490" y="-158"/>
			<point x="471" y="-158" type="curve" smooth="yes"/>
			<point x="438" y="-158"/>
			<point x="413" y="-146"/>
			<point x="413" y="-113" type="curve" smooth="yes"/>
			<point x="413" y="-72"/>
			<point x="444" y="-32"/>
			<point x="533" y="0" type="curve"/>
			<point x="391" y="688" type="line"/>
			<point x="324" y="688" type="line"/>
		</contour>
		<contour>
			<point x="168" y="241" type="line"/>
			<point x="350" y="628" type="line"/>
			<point x="427" y="241" type="line"/>
		</contour>
	</outline>
</glyph>
<glyph name="aogonek" format="2">
	<unicode hex="0105"/>
	<advance width="600"/>
	<outline>
		<contour>
			<point x="229" y="-14" type="curve" smooth="yes"/>
			<point x="311" y="-14"/>
			<point x="368" y="27"/>
			<point x="406" y="96" type="curve"/>
			<point x="393" y="2" type="line"/>
			<point x="318" y="-22"/>
			<point x="276" y="-71"/>
			<point x="276" y="-123" type="curve" smooth="yes"/>
			<point x="276" y="-182"/>
			<point x="316" y="-203"/>
			<point x="376" y="-203" type="curve" smooth="yes"/>
			<point x="395" y="-203"/>
			<point x="419" y="-198"/>
			<point x="429" y="-192" type="curve"/>
			<point x="435" y="-149" type="line"/>
			<point x="422" y="-154"/>
			<point x="404" y="-158"/>
			<point x="385" y="-158" type="curve" smooth="yes"/>
			<point x="352" y="-158"/>
			<point x="327" y="-146"/>
			<point x="327" y="-113" type="curve" smooth="yes"/>
			<point x="327" y="-72"/>
			<point x="358" y="-32"/>
			<point x="447" y="0" type="curve"/>
			<point x="492" y="318" type="line" smooth="yes"/>
			<point x="514" y="472"/>
			<point x="439" y="537"/>
			<point x="317" y="537" type="curve" smooth="yes"/>
			<point x="242" y="537"/>
			<point x="181" y="516"/>
			<point x="138" y="489" type="curve"/>
			<point x="130" y="434" type="line"/>
			<point x="190" y="476"/>
			<point x="252" y="489"/>
			<point x="307" y="489" type="curve" smooth="yes"/>
			<point x="412" y="489"/>
			<point x="454" y="432"/>
			<point x="439" y="324" type="curve"/>
			<point x="309" y="304" type="line" smooth="yes"/>
			<point x="156" y="281"/>
			<point x="77" y="227"/>
			<point x="78" y="116" type="curve" smooth="yes"/>
			<point x="79" y="33"/>
			<point x="136" y="-14"/>
		</contour>
		<contour>
			<point x="242" y="32" type="curve" smooth="yes"/>
			<point x="179" y="32"/>
			<point x="134" y="67"/>
			<point x="134" y="125" type="curve" smooth="yes"/>
			<point x="133" y="203"/>
			<point x="192" y="242"/>
			<point x="314" y="262" type="curve" smooth="yes"/>
			<point x="433" y="281" type="line"/>
			<point x="422" y="207" type="line" smooth="yes"/>
			<point x="408" y="108"/>
			<point x="339" y="32"/>
		</contour>
	</outline>
	<guideline x="480" y="0" angle="0"/>
	<guideline x="364" y="-203" angle="0"/>
</glyph>
<glyph name="dcaron" format="2">
	<unicode hex="010F"/>
	<advance width="600"/>
	<outline>
		<contour>
			<point x="239" y="-14" type="curve" smooth="yes"/>
			<point x="307" y="-14"/>
			<point x="371" y="19"/>
			<point x="410" y="104" type="curve"/>
			<point x="395" y="0" type="line"/>
			<point x="449" y="0" type="line"/>
			<point x="555" y="750" type="line"/>
			<point x="501" y="750" type="line"/>
			<point x="469" y="523" type="line"/>
			<point x="376" y="523" type="line" smooth="yes"/>
			<point x="210" y="523"/>
			<point x="99" y="424"/>
			<point x="76" y="264" type="curve" smooth="yes"/>
			<point x="74" y="250" type="line" smooth="yes"/>
			<point x="50" y="83"/>
			<point x="121" y="-14"/>
		</contour>
		<contour>
			<point x="588" y="581" type="line"/>
			<point x="631" y="581" type="line"/>
			<point x="706" y="750" type="line"/>
			<point x="645" y="750" type="line"/>
		</contour>
		<contour>
			<point x="258" y="34" type="curve" smooth="yes"/>
			<point x="163" y="34"/>
			<point x="111" y="114"/>
			<point x="131" y="252" type="curve" smooth="yes"/>
			<point x="132" y="259" type="line" smooth="yes"/>
			<point x="153" y="403"/>
			<point x="236" y="476"/>
			<point x="368" y="476" type="curve" smooth="yes"/>
			<point x="463" y="476" type="line"/>
			<point x="427" y="222" type="line" smooth="yes"/>
			<point x="412" y="118"/>
			<point x="350" y="34"/>
		</contour>
	</outline>
</glyph>
<glyph name="Hbar" format="2">
	<unicode hex="0126"/>
	<advance width="600"/>
	<outline>
		<contour>
			<point x="48" y="0" type="line"/>
			<point x="103" y="0" type="line"/>
			<point x="148" y="320" type="line"/>
			<point x="468" y="320" type="line"/>
			<point x="423" y="0" type="line"/>
			<point x="478" y="0" type="line"/>
			<point x="547" y="494" type="line"/>
			<point x="633" y="494" type="line"/>
			<point x="639" y="538" type="line"/>
			<point x="554" y="538" type="line"/>
			<point x="574" y="684" type="line"/>
			<point x="519" y="684" type="line"/>
			<point x="499" y="538" type="line"/>
			<point x="179" y="538" type="line"/>
			<point x="199" y="684" type="line"/>
			<point x="144" y="684" type="line"/>
			<point x="124" y="538" type="line"/>
			<point x="39" y="538" type="line"/>
			<point x="33" y="494" type="line"/>
			<point x="117" y="494" type="line"/>
		</contour>
		<contour>
			<point x="155" y="369" type="line"/>
			<point x="172" y="494" type="line"/>
			<point x="492" y="494" type="line"/>
			<point x="475" y="369" type="line"/>
		</contour>
	</outline>
	<anchor name="bottom" x="264" y="0"/>
	<anchor name="center" x="336" y="517"/>
	<anchor name="top" x="359" y="684"/>
</glyph>
<glyph name="hbar" format="2">
	<unicode hex="0127"/>
	<advance width="600"/>
	<outline>
		<contour>
			<point x="78" y="602" type="line"/>
			<point x="154" y="602" type="line"/>
			<point x="69" y="0" type="line"/>
			<point x="124" y="0" type="line"/>
			<point x="170" y="324" type="line" smooth="yes"/>
			<point x="173" y="348"/>
			<point x="180" y="373"/>
			<point x="195" y="398" type="curve" smooth="yes"/>
			<point x="223" y="447"/>
			<point x="266" y="490"/>
			<point x="339" y="490" type="curve" smooth="yes"/>
			<point x="417" y="490"/>
			<point x="469" y="437"/>
			<point x="452" y="316" type="curve" smooth="yes"/>
			<point x="407" y="0" type="line"/>
			<point x="461" y="0" type="line"/>
			<point x="507" y="325" type="line" smooth="yes"/>
			<point x="527" y="468"/>
			<point x="455" y="537"/>
			<point x="355" y="537" type="curve" smooth="yes"/>
			<point x="277" y="537"/>
			<point x="219" y="496"/>
			<point x="183" y="424" type="curve"/>
			<point x="208" y="602" type="line"/>
			<point x="373" y="602" type="line"/>
			<point x="379" y="647" type="line"/>
			<point x="214" y="647" type="line"/>
			<point x="229" y="750" type="line"/>
			<point x="175" y="750" type="line"/>
			<point x="160" y="647" type="line"/>
			<point x="84" y="647" type="line"/>
		</contour>
	</outline>
</glyph>
<glyph name="IJ" format="2">
	<unicode hex="0132"/>
	<advance width="600"/>
	<outline>
		<contour>
			<point x="248" y="-13" type="curve" smooth="yes"/>
			<point x="374" y="-13"/>
			<point x="466" y="57"/>
			<point x="488" y="211" type="curve" smooth="yes"/>
			<point x="555" y="684" type="line"/>
			<point x="501" y="684" type="line"/>
			<point x="434" y="213" type="line" smooth="yes"/>
			<point x="416" y="84"/>
			<point x="345" y="35"/>
			<point x="247" y="35" type="curve" smooth="yes"/>
			<point x="180" y="35"/>
			<point x="125" y="53"/>
			<point x="79" y="83" type="curve"/>
			<point x="72" y="31" type="line"/>
			<point x="114" y="4"/>
			<point x="171" y="-13"/>
		</contour>
		<contour>
			<point x="95" y="194" type="line"/>
			<point x="149" y="194" type="line"/>
			<point x="217" y="684" type="line"/>
			<point x="163" y="684" type="line"/>
		</contour>
	</outline>
	<guideline x="161" y="684" angle="82"/>
</glyph>
<glyph name="ij" format="2">
	<unicode hex="0133"/>
	<advance width="600"/>
	<outline>
		<contour>
			<point x="213" y="650" type="curve" smooth="yes"/>
			<point x="249" y="650"/>
			<point x="261" y="666"/>
			<point x="264" y="695" type="curve" smooth="yes"/>
			<point x="267" y="722"/>
			<point x="253" y="738"/>
			<point x="220" y="738" type="curve" smooth="yes"/>
			<point x="183" y="738"/>
			<point x="171" y="722"/>
			<point x="168" y="694" type="curve" smooth="yes"/>
			<point x="165" y="666"/>
			<point x="179" y="650"/>
		</contour>
		<contour>
			<point x="503" y="650" type="curve" smooth="yes"/>
			<point x="539" y="650"/>
			<point x="551" y="666"/>
			<point x="554" y="695" type="curve" smooth="yes"/>
			<point x="557" y="722"/>
			<point x="543" y="738"/>
			<point x="510" y="738" type="curve" smooth="yes"/>
			<point x="473" y="738"/>
			<point x="461" y="722"/>
			<point x="458" y="694" type="curve" smooth="yes"/>
			<point x="455" y="666"/>
			<point x="469" y="650"/>
		</contour>
		<contour>
			<point x="230" y="-204" type="curve" smooth="yes"/>
			<point x="328" y="-204"/>
			<point x="413" y="-167"/>
			<point x="432" y="-28" type="curve" smooth="yes"/>
			<point x="509" y="523" type="line"/>
			<point x="455" y="523" type="line"/>
			<point x="380" y="-18" type="line" smooth="yes"/>
			<point x="367" y="-111"/>
			<point x="323" y="-156"/>
			<point x="229" y="-156" type="curve" smooth="yes"/>
			<point x="179" y="-156"/>
			<point x="133" y="-143"/>
			<point x="104" y="-128" type="curve"/>
			<point x="98" y="-177" type="line"/>
			<point x="123" y="-190"/>
			<point x="177" y="-204"/>
		</contour>
		<contour>
			<point x="91" y="0" type="line"/>
			<point x="145" y="0" type="line"/>
			<point x="219" y="523" type="line"/>
			<point x="165" y="523" type="line"/>
		</contour>
	</outline>
	<guideline x="194" y="550" angle="82"/>
</glyph>
<glyph name="ldot" format="2">
	<unicode hex="0140"/>
	<advance width="600"/>
	<outline>
		<contour>
			<point x="45" y="0" type="line"/>
			<point x="487" y="0" type="line"/>
			<point x="495" y="48" type="line"/>
			<point x="304" y="48" type="line"/>
			<point x="405" y="750" type="line"/>
			<point x="153" y="750" type="line"/>
			<point x="146" y="702" type="line"/>
			<point x="345" y="702" type="line"/>
			<point x="250" y="48" type="line"/>
			<point x="52" y="48" type="line"/>
		</contour>
		<contour>
			<point x="610" y="325" type="curve" smooth="yes"/>
			<point x="651" y="325"/>
			<point x="666" y="343"/>
			<point x="670" y="373" type="curve" smooth="yes"/>
			<point x="674" y="404"/>
			<point x="663" y="428"/>
			<point x="617" y="428" type="curve" smooth="yes"/>
			<point x="576" y="428"/>
			<point x="561" y="410"/>
			<point x="557" y="380" type="curve" smooth="yes"/>
			<point x="553" y="349"/>
			<point x="564" y="325"/>
		</contour>
	</outline>
</glyph>
<glyph name="eng" format="2">
	<unicode hex="014B"/>
	<advance width="600"/>
	<outline>
		<contour>
			<point x="314" y="-214" type="curve" smooth="yes"/>
			<point x="370" y="-214"/>
			<point x="435" y="-190"/>
			<point x="448" y="-96" type="curve" smooth="yes"/>
			<point x="507" y="325" type="line" smooth="yes"/>
			<point x="527" y="468"/>
			<point x="457" y="537"/>
			<point x="355" y="537" type="curve" smooth="yes"/>
			<point x="277" y="537"/>
			<point x="219" y="496"/>
			<point x="183" y="424" type="curve"/>
			<point x="197" y="523" type="line"/>
			<point x="143" y="523" type="line"/>
			<point x="69" y="0" type="line"/>
			<point x="123" y="0" type="line"/>
			<point x="165" y="298" type="line" smooth="yes"/>
			<point x="170" y="330"/>
			<point x="176" y="365"/>
			<point x="196" y="399" type="curve" smooth="yes"/>
			<point x="224" y="448"/>
			<point x="266" y="490"/>
			<point x="339" y="490" type="curve" smooth="yes"/>
			<point x="417" y="490"/>
			<point x="469" y="437"/>
			<point x="452" y="316" type="curve" smooth="yes"/>
			<point x="396" y="-80" type="line" smooth="yes"/>
			<point x="386" y="-154"/>
			<point x="346" y="-168"/>
			<point x="311" y="-168" type="curve" smooth="yes"/>
			<point x="295" y="-168"/>
			<point x="269" y="-163"/>
			<point x="253" y="-156" type="curve"/>
			<point x="247" y="-200" type="line"/>
			<point x="262" y="-207"/>
			<point x="287" y="-214"/>
		</contour>
	</outline>
	<guideline x="541" y="41" angle="90"/>
</glyph>
<glyph name="OE" format="2">
	<unicode hex="0152"/>
	<advance width="600"/>
	<outline>
		<contour>
			<point x="161" y="-13" type="curve" smooth="yes"/>
			<point x="212" y="-13"/>
			<point x="250" y="20"/>
			<point x="278" y="70" type="curve"/>
			<point x="267" y="0" type="line"/>
			<point x="527" y="0" type="line"/>
			<point x="534" y="50" type="line"/>
			<point x="328" y="50" type="line"/>
			<point x="365" y="319" type="line"/>
			<point x="548" y="319" type="line"/>
			<point x="554" y="366" type="line"/>
			<point x="371" y="366" type="line"/>
			<point x="409" y="636" type="line"/>
			<point x="613" y="636" type="line"/>
			<point x="620" y="684" type="line"/>
			<point x="317" y="684" type="line" smooth="yes"/>
			<point x="156" y="684"/>
			<point x="77" y="554"/>
			<point x="47" y="341" type="curve" smooth="yes"/>
			<point x="45" y="327" type="line" smooth="yes"/>
			<point x="15" y="117"/>
			<point x="44" y="-13"/>
		</contour>
		<contour>
			<point x="176" y="34" type="curve" smooth="yes"/>
			<point x="93" y="34"/>
			<point x="74" y="143"/>
			<point x="100" y="325" type="curve" smooth="yes"/>
			<point x="101" y="332" type="line" smooth="yes"/>
			<point x="128" y="518"/>
			<point x="184" y="636"/>
			<point x="308" y="636" type="curve" smooth="yes"/>
			<point x="357" y="636" type="line"/>
			<point x="294" y="185" type="line" smooth="yes"/>
			<point x="282" y="100"/>
			<point x="241" y="34"/>
		</contour>
	</outline>
	<guideline x="107" y="356" angle="82"/>
</glyph>
<glyph name="oe" format="2">
	<unicode hex="0153"/>
	<advance width="600"/>
	<outline>
		<contour>
			<point x="131" y="-14" type="curve" smooth="yes"/>
			<point x="193" y="-14"/>
			<point x="247" y="33"/>
			<point x="274" y="134" type="curve"/>
			<point x="282" y="36"/>
			<point x="330" y="-14"/>
			<point x="422" y="-14" type="curve" smooth="yes"/>
			<point x="479" y="-14"/>
			<point x="519" y="9"/>
			<point x="540" y="27" type="curve"/>
			<point x="547" y="77" type="line"/>
			<point x="509" y="45"/>
			<point x="468" y="31"/>
			<point x="428" y="31" type="curve" smooth="yes"/>
			<point x="345" y="31"/>
			<point x="304" y="89"/>
			<point x="325" y="249" type="curve"/>
			<point x="582" y="249" type="line"/>
			<point x="586" y="279" type="line" smooth="yes"/>
			<point x="605" y="418"/>
			<point x="582" y="537"/>
			<point x="466" y="537" type="curve" smooth="yes"/>
			<point x="406" y="537"/>
			<point x="355" y="499"/>
			<point x="322" y="423" type="curve"/>
			<point x="309" y="495"/>
			<point x="266" y="537"/>
			<point x="202" y="537" type="curve" smooth="yes"/>
			<point x="110" y="537"/>
			<point x="42" y="450"/>
			<point x="19" y="286" type="curve" smooth="yes"/>
			<point x="17" y="272" type="line" smooth="yes"/>
			<point x="-9" y="92"/>
			<point x="36" y="-14"/>
		</contour>
		<contour>
			<point x="143" y="32" type="curve" smooth="yes"/>
			<point x="75" y="32"/>
			<point x="47" y="125"/>
			<point x="68" y="270" type="curve" smooth="yes"/>
			<point x="69" y="277" type="line" smooth="yes"/>
			<point x="90" y="422"/>
			<point x="130" y="492"/>
			<point x="200" y="492" type="curve" smooth="yes"/>
			<point x="269" y="492"/>
			<point x="295" y="405"/>
			<point x="274" y="257" type="curve" smooth="yes"/>
			<point x="273" y="250" type="line" smooth="yes"/>
			<point x="253" y="109"/>
			<point x="216" y="32"/>
		</contour>
		<contour>
			<point x="463" y="492" type="curve" smooth="yes"/>
			<point x="541" y="492"/>
			<point x="552" y="401"/>
			<point x="538" y="293" type="curve"/>
			<point x="330" y="293" type="line"/>
			<point x="351" y="429"/>
			<point x="392" y="492"/>
		</contour>
	</outline>
	<guideline x="62" y="281" angle="82"/>
	<guideline x="593" y="279" angle="82"/>
</glyph>
<glyph name="Scedilla" format="2">
	<unicode hex="015E"/>
	<advance width="600"/>
	<outline>
		<contour>
			<point x="241" y="-214" type="curve" smooth="yes"/>
			<point x="304" y="-214"/>
			<point x="347" y="-183"/>
			<point x="349" y="-125" type="curve" smooth="yes"/>
			<point x="351" y="-78"/>
			<point x="325" y="-52"/>
			<point x="271" y="-48" type="curve"/>
			<point x="292" y="-14" type="line"/>
			<point x="418" y="-14"/>
			<point x="519" y="68"/>
			<point x="519" y="199" type="curve" smooth="yes"/>
			<point x="519" y="318"/>
			<point x="432" y="342"/>
			<point x="320" y="368" type="curve" smooth="yes"/>
			<point x="227" y="390"/>
			<point x="163" y="409"/>
			<point x="163" y="499" type="curve" smooth="yes"/>
			<point x="163" y="593"/>
			<point x="228" y="650"/>
			<point x="335" y="650" type="curve" smooth="yes"/>
			<point x="419" y="650"/>
			<point x="500" y="620"/>
			<point x="553" y="568" type="curve"/>
			<point x="561" y="623" type="line"/>
			<point x="506" y="669"/>
			<point x="438" y="697"/>
			<point x="334" y="697" type="curve" smooth="yes"/>
			<point x="197" y="697"/>
			<point x="107" y="614"/>
			<point x="107" y="488" type="curve" smooth="yes"/>
			<point x="107" y="358"/>
			<point x="210" y="334"/>
			<point x="304" y="314" type="curve" smooth="yes"/>
			<point x="397" y="294"/>
			<point x="463" y="281"/>
			<point x="463" y="191" type="curve" smooth="yes"/>
			<point x="463" y="96"/>
			<point x="391" y="34"/>
			<point x="285" y="34" type="curve" smooth="yes"/>
			<point x="200" y="34"/>
			<point x="125" y="65"/>
			<point x="65" y="138" type="curve"/>
			<point x="56" y="78" type="line"/>
			<point x="104" y="28"/>
			<point x="167" y="-5"/>
			<point x="248" y="-12" type="curve"/>
			<point x="202" y="-89" type="line"/>
			<point x="212" y="-87"/>
			<point x="225" y="-85"/>
			<point x="241" y="-85" type="curve" smooth="yes"/>
			<point x="278" y="-85"/>
			<point x="303" y="-95"/>
			<point x="303" y="-125" type="curve" smooth="yes"/>
			<point x="303" y="-160"/>
			<point x="277" y="-171"/>
			<point x="240" y="-171" type="curve" smooth="yes"/>
			<point x="214" y="-171"/>
			<point x="186" y="-164"/>
			<point x="165" y="-151" type="curve"/>
			<point x="159" y="-193" type="line"/>
			<point x="178" y="-206"/>
			<point x="211" y="-214"/>
		</contour>
	</outline>
</glyph>
<glyph name="tcaron" format="2">
	<unicode hex="0165"/>
	<advance width="600"/>
	<outline>
		<contour>
			<point x="470" y="628" type="line"/>
			<point x="514" y="628" type="line"/>
			<point x="586" y="780" type="line"/>
			<point x="523" y="780" type="line"/>
		</contour>
		<contour>
			<point x="358" y="-12" type="curve"/>
			<point x="401" y="-12"/>
			<point x="445" y="0"/>
			<point x="465" y="11" type="curve"/>
			<point x="471" y="59" type="line"/>
			<point x="448" y="47"/>
			<point x="404" y="36"/>
			<point x="365" y="36" type="curve" smooth="yes"/>
			<point x="277" y="36"/>
			<point x="245" y="76"/>
			<point x="259" y="176" type="curve" smooth="yes"/>
			<point x="300" y="475" type="line"/>
			<point x="527" y="475" type="line"/>
			<point x="535" y="523" type="line"/>
			<point x="306" y="523" type="line"/>
			<point x="330" y="692" type="line"/>
			<point x="291" y="692" type="line"/>
			<point x="266" y="579" type="line" smooth="yes"/>
			<point x="255" y="529"/>
			<point x="235" y="520"/>
			<point x="201" y="520" type="curve" smooth="yes"/>
			<point x="106" y="520" type="line"/>
			<point x="100" y="475" type="line"/>
			<point x="247" y="475" type="line"/>
			<point x="204" y="170" type="line" smooth="yes"/>
			<point x="185" y="32"/>
			<point x="258" y="-12"/>
		</contour>
	</outline>
</glyph>
<glyph name="oslashacute" format="2">
	<unicode hex="01FF"/>
	<advance width="600"/>
	<outline>
		<contour>
			<point x="500" y="750" type="line"/>
			<point x="429" y="750" type="line"/>
			<point x="320" y="607" type="line"/>
			<point x="373" y="607" type="line"/>
		</contour>
		<contour>
			<point x="283" y="-14" type="curve" smooth="yes"/>
			<point x="407" y="-14"/>
			<point x="497" y="77"/>
			<point x="519" y="228" type="curve" smooth="yes"/>
			<point x="521" y="242" type="line" smooth="yes"/>
			<point x="533" y="325"/>
			<point x="522" y="394"/>
			<point x="492" y="445" type="curve"/>
			<point x="582" y="547" type="line"/>
			<point x="523" y="547" type="line"/>
			<point x="465" y="481" type="line"/>
			<point x="430" y="517"/>
			<point x="380" y="537"/>
			<point x="319" y="537" type="curve" smooth="yes"/>
			<point x="201" y="537"/>
			<point x="103" y="447"/>
			<point x="81" y="296" type="curve" smooth="yes"/>
			<point x="79" y="282" type="line" smooth="yes"/>
			<point x="67" y="199"/>
			<point x="78" y="129"/>
			<point x="108" y="79" type="curve"/>
			<point x="18" y="-24" type="line"/>
			<point x="77" y="-24" type="line"/>
			<point x="136" y="42" type="line"/>
			<point x="171" y="6"/>
			<point x="221" y="-14"/>
		</contour>
		<contour>
			<point x="135" y="279" type="curve" smooth="yes"/>
			<point x="136" y="286" type="line" smooth="yes"/>
			<point x="155" y="421"/>
			<point x="226" y="490"/>
			<point x="317" y="490" type="curve" smooth="yes"/>
			<point x="364" y="490"/>
			<point x="403" y="473"/>
			<point x="429" y="441" type="curve"/>
			<point x="147" y="124" type="line"/>
			<point x="131" y="163"/>
			<point x="126" y="215"/>
		</contour>
		<contour>
			<point x="284" y="34" type="curve" smooth="yes"/>
			<point x="237" y="34"/>
			<point x="198" y="51"/>
			<point x="171" y="83" type="curve"/>
			<point x="453" y="401" type="line"/>
			<point x="469" y="361"/>
			<point x="474" y="309"/>
			<point x="465" y="244" type="curve" smooth="yes"/>
			<point x="464" y="237" type="line" smooth="yes"/>
			<point x="445" y="103"/>
			<point x="377" y="34"/>
		</contour>
	</outline>
</glyph>
<glyph name="circumflex" format="2">
	<unicode hex="02C6"/>
	<advance width="600"/>
	<outline>
		<contour>
			<point x="200" y="607" type="line"/>
			<point x="259" y="607" type="line"/>
			<point x="366" y="715" type="line"/>
			<point x="441" y="607" type="line"/>
			<point x="498" y="607" type="line"/>
			<point x="396" y="750" type="line"/>
			<point x="342" y="750" type="line"/>
		</contour>
	</outline>
	<anchor name="_top" x="338" y="523"/>
</glyph>
<glyph name="breve" format="2">
	<unicode hex="02D8"/>
	<advance width="600"/>
	<outline>
		<contour>
			<point x="351" y="597" type="curve" smooth="yes"/>
			<point x="446" y="597"/>
			<point x="492" y="637"/>
			<point x="507" y="750" type="curve"/>
			<point x="461" y="750" type="line"/>
			<point x="450" y="677"/>
			<point x="432" y="637"/>
			<point x="358" y="637" type="curve" smooth="yes"/>
			<point x="278" y="637"/>
			<point x="267" y="677"/>
			<point x="276" y="750" type="curve"/>
			<point x="231" y="750" type="line"/>
			<point x="216" y="644"/>
			<point x="255" y="597"/>
		</contour>
	</outline>
	<anchor name="_top" x="339" y="523"/>
</glyph>
<glyph name="dotaccent" format="2">
	<unicode hex="02D9"/>
	<advance width="600"/>
	<outline>
		<contour>
			<point x="356" y="638" type="curve" smooth="yes"/>
			<point x="392" y="638"/>
			<point x="404" y="654"/>
			<point x="407" y="683" type="curve" smooth="yes"/>
			<point x="410" y="710"/>
			<point x="396" y="726"/>
			<point x="363" y="726" type="curve" smooth="yes"/>
			<point x="326" y="726"/>
			<point x="314" y="710"/>
			<point x="311" y="682" type="curve" smooth="yes"/>
			<point x="308" y="654"/>
			<point x="322" y="638"/>
		</contour>
	</outline>
	<anchor name="_top" x="337" y="523"/>
</glyph>
<glyph name="tilde" format="2">
	<unicode hex="02DC"/>
	<advance width="600"/>
	<outline>
		<contour>
			<point x="203" y="619" type="curve"/>
			<point x="248" y="619" type="line"/>
			<point x="255" y="665"/>
			<point x="269" y="689"/>
			<point x="291" y="689" type="curve" smooth="yes"/>
			<point x="333" y="689"/>
			<point x="362" y="615"/>
			<point x="425" y="615" type="curve" smooth="yes"/>
			<point x="475" y="615"/>
			<point x="502" y="650"/>
			<point x="513" y="728" type="curve"/>
			<point x="468" y="728" type="line"/>
			<point x="461" y="683"/>
			<point x="449" y="658"/>
			<point x="426" y="658" type="curve" smooth="yes"/>
			<point x="385" y="658"/>
			<point x="356" y="732"/>
			<point x="292" y="732" type="curve" smooth="yes"/>
			<point x="240" y="732"/>
			<point x="213" y="688"/>
		</contour>
	</outline>
	<anchor name="_top" x="338" y="523"/>
</glyph>
<glyph name="hungarumlaut" format="2">
	<unicode hex="02DD"/>
	<advance width="600"/>
	<outline>
		<contour>
			<point x="357" y="607" type="line"/>
			<point x="407" y="607" type="line"/>
			<point x="519" y="750" type="line"/>
			<point x="453" y="750" type="line"/>
		</contour>
		<contour>
			<point x="199" y="607" type="line"/>
			<point x="249" y="607" type="line"/>
			<point x="361" y="750" type="line"/>
			<point x="295" y="750" type="line"/>
		</contour>
	</outline>
	<anchor name="_top" x="291" y="523"/>
</glyph>
<glyph name="endash" format="2">
	<unicode hex="2013"/>
	<advance width="600"/>
	<outline>
		<contour>
			<point x="551" y="339" type="line"/>
			<point x="71" y="339" type="line"/>
			<point x="64" y="287" type="line"/>
			<point x="544" y="287" type="line"/>
		</contour>
	</outline>
</glyph>
<glyph name="quoteright" format="2">
	<unicode hex="2019"/>
	<advance width="600"/>
	<outline>
		<contour>
			<point x="348" y="750" type="line"/>
			<point x="253" y="480" type="line"/>
			<point x="295" y="480" type="line"/>
			<point x="437" y="750" type="line"/>
		</contour>
	</outline>
</glyph>
<glyph name="quotedblright" format="2">
	<unicode hex="201D"/>
	<advance width="600"/>
	<outline>
		<contour>
			<point x="281" y="750" type="line"/>
			<point x="186" y="480" type="line"/>
			<point x="228" y="480" type="line"/>
			<point x="370" y="750" type="line"/>
		</contour>
		<contour>
			<point x="443" y="750" type="line"/>
			<point x="348" y="480" type="line"/>
			<point x="390" y="480" type="line"/>
			<point x="532" y="750" type="line"/>
		</contour>
	</outline>
	<guideline x="342" y="538" angle="0"/>
</glyph>
<glyph name="daggerdbl" format="2">
	<unicode hex="2021"/>
	<advance width="600"/>
	<outline>
		<contour>
			<point x="81" y="198" type="line"/>
			<point x="74" y="149" type="line"/>
			<point x="256" y="149" type="line"/>
			<point x="215" y="-143" type="line"/>
			<point x="270" y="-143" type="line"/>
			<point x="311" y="149" type="line"/>
			<point x="494" y="149" type="line"/>
			<point x="501" y="198" type="line"/>
			<point x="318" y="198" type="line"/>
			<point x="363" y="520" type="line"/>
			<point x="546" y="520" type="line"/>
			<point x="553" y="568" type="line"/>
			<point x="370" y="568" type="line"/>
			<point x="398" y="765" type="line"/>
			<point x="343" y="765" type="line"/>
			<point x="315" y="568" type="line"/>
			<point x="133" y="568" type="line"/>
			<point x="126" y="520" type="line"/>
			<point x="308" y="520" type="line"/>
			<point x="263" y="198" type="line"/>
		</contour>
	</outline>
</glyph>
<glyph name="ellipsis" format="2">
	<unicode hex="2026"/>
	<advance width="600"/>
	<outline>
		<contour>
			<point x="91" y="-12" type="curve" smooth="yes"/>
			<point x="127" y="-12"/>
			<point x="139" y="6"/>
			<point x="143" y="36" type="curve" smooth="yes"/>
			<point x="147" y="70"/>
			<point x="133" y="91"/>
			<point x="98" y="91" type="curve" smooth="yes"/>
			<point x="62" y="91"/>
			<point x="50" y="73"/>
			<point x="46" y="43" type="curve" smooth="yes"/>
			<point x="42" y="9"/>
			<point x="56" y="-12"/>
		</contour>
		<contour>
			<point x="266" y="-12" type="curve" smooth="yes"/>
			<point x="302" y="-12"/>
			<point x="313" y="6"/>
			<point x="317" y="36" type="curve" smooth="yes"/>
			<point x="321" y="70"/>
			<point x="307" y="91"/>
			<point x="272" y="91" type="curve" smooth="yes"/>
			<point x="236" y="91"/>
			<point x="224" y="73"/>
			<point x="220" y="43" type="curve" smooth="yes"/>
			<point x="216" y="9"/>
			<point x="231" y="-12"/>
		</contour>
		<contour>
			<point x="440" y="-12" type="curve" smooth="yes"/>
			<point x="476" y="-12"/>
			<point x="487" y="6"/>
			<point x="491" y="36" type="curve" smooth="yes"/>
			<point x="495" y="70"/>
			<point x="481" y="91"/>
			<point x="446" y="91" type="curve" smooth="yes"/>
			<point x="410" y="91"/>
			<point x="398" y="73"/>
			<point x="394" y="43" type="curve" smooth="yes"/>
			<point x="390" y="9"/>
			<point x="405" y="-12"/>
		</contour>
	</outline>
</glyph>
<glyph name="guilsinglleft" format="2">
	<unicode hex="2039"/>
	<advance width="600"/>
	<outline>
		<contour>
			<point x="348" y="77" type="line"/>
			<point x="420" y="77" type="line"/>
			<point x="218" y="285" type="line"/>
			<point x="480" y="497" type="line"/>
			<point x="401" y="497" type="line"/>
			<point x="146" y="287" type="line"/>
		</contour>
	</outline>
</glyph>
<glyph name="guilsinglright" format="2">
	<unicode hex="203A"/>
	<advance width="600"/>
	<outline>
		<contour>
			<point x="127" y="77" type="line"/>
			<point x="208" y="77" type="line"/>
			<point x="462" y="286" type="line"/>
			<point x="257" y="497" type="line"/>
			<point x="187" y="497" type="line"/>
			<point x="390" y="290" type="line"/>
		</contour>
	</outline>
</glyph>
<glyph name="fraction" format="2">
	<unicode hex="2044"/>
	<advance width="600"/>
	<outline>
		<contour>
			<point x="417" y="420" type="line"/>
			<point x="467" y="420" type="line"/>
			<point x="629" y="684" type="line"/>
			<point x="567" y="684" type="line"/>
		</contour>
		<contour>
			<point x="-7" y="0" type="line"/>
			<point x="55" y="0" type="line"/>
			<point x="206" y="263" type="line"/>
			<point x="155" y="263" type="line"/>
		</contour>
	</outline>
</glyph>
<glyph name="Euro" format="2">
	<unicode hex="20AC"/>
	<advance width="600"/>
	<outline>
		<contour>
			<point x="30" y="256" type="line"/>
			<point x="120" y="256" type="line"/>
			<point x="130" y="95"/>
			<point x="217" y="-12"/>
			<point x="381" y="-12" type="curve" smooth="yes"/>
			<point x="439" y="-12"/>
			<point x="478" y="-2"/>
			<point x="512" y="16" type="curve"/>
			<point x="520" y="68" type="line"/>
			<point x="480" y="45"/>
			<point x="434" y="36"/>
			<point x="386" y="36" type="curve" smooth="yes"/>
			<point x="252" y="36"/>
			<point x="187" y="126"/>
			<point x="178" y="256" type="curve"/>
			<point x="431" y="256" type="line"/>
			<point x="438" y="301" type="line"/>
			<point x="177" y="301" type="line"/>
			<point x="177" y="324"/>
			<point x="180" y="348"/>
			<point x="183" y="372" type="curve" smooth="yes"/>
			<point x="184" y="377" type="line"/>
			<point x="448" y="377" type="line"/>
			<point x="455" y="422" type="line"/>
			<point x="192" y="422" type="line"/>
			<point x="224" y="571"/>
			<point x="308" y="647"/>
			<point x="435" y="647" type="curve" smooth="yes"/>
			<point x="496" y="647"/>
			<point x="551" y="631"/>
			<point x="596" y="597" type="curve"/>
			<point x="603" y="650" type="line"/>
			<point x="562" y="678"/>
			<point x="508" y="695"/>
			<point x="437" y="695" type="curve" smooth="yes"/>
			<point x="278" y="695"/>
			<point x="169" y="598"/>
			<point x="134" y="422" type="curve"/>
			<point x="54" y="422" type="line"/>
			<point x="47" y="377" type="line"/>
			<point x="126" y="377" type="line"/>
			<point x="126" y="374" type="line" smooth="yes"/>
			<point x="122" y="349"/>
			<point x="120" y="325"/>
			<point x="120" y="301" type="curve"/>
			<point x="37" y="301" type="line"/>
		</contour>
	</outline>
	<guideline x="459" y="421" angle="82"/>
	<guideline x="306" y="306" angle="0"/>
</glyph>
<glyph name="servicemark" format="2">
	<unicode hex="2120"/>
	<advance width="600"/>
	<outline>
		<contour>
			<point x="157" y="337" type="curve" smooth="yes"/>
			<point x="225" y="337"/>
			<point x="281" y="377"/>
			<point x="281" y="447" type="curve" smooth="yes"/>
			<point x="281" y="504"/>
			<point x="243" y="516"/>
			<point x="187" y="530" type="curve" smooth="yes"/>
			<point x="135" y="543"/>
			<point x="115" y="553"/>
			<point x="115" y="589" type="curve" smooth="yes"/>
			<point x="115" y="630"/>
			<point x="142" y="657"/>
			<point x="197" y="657" type="curve" smooth="yes"/>
			<point x="245" y="657"/>
			<point x="277" y="640"/>
			<point x="300" y="618" type="curve"/>
			<point x="305" y="657" type="line"/>
			<point x="292" y="669"/>
			<point x="256" y="689"/>
			<point x="204" y="689" type="curve" smooth="yes"/>
			<point x="124" y="689"/>
			<point x="79" y="643"/>
			<point x="79" y="581" type="curve" smooth="yes"/>
			<point x="79" y="520"/>
			<point x="125" y="507"/>
			<point x="173" y="496" type="curve" smooth="yes"/>
			<point x="216" y="486"/>
			<point x="245" y="478"/>
			<point x="245" y="439" type="curve" smooth="yes"/>
			<point x="245" y="398"/>
			<point x="212" y="370"/>
			<point x="161" y="370" type="curve" smooth="yes"/>
			<point x="117" y="370"/>
			<point x="84" y="388"/>
			<point x="59" y="414" type="curve"/>
			<point x="53" y="373" type="line"/>
			<point x="66" y="361"/>
			<point x="104" y="337"/>
		</contour>
		<contour>
			<point x="307" y="342" type="line"/>
			<point x="343" y="342" type="line"/>
			<point x="371" y="545" type="line" smooth="yes"/>
			<point x="376" y="582"/>
			<point x="380" y="613"/>
			<point x="382" y="644" type="curve"/>
			<point x="385" y="644" type="line"/>
			<point x="421" y="436" type="line"/>
			<point x="464" y="436" type="line"/>
			<point x="560" y="644" type="line"/>
			<point x="563" y="644" type="line"/>
			<point x="556" y="609"/>
			<point x="550" y="574"/>
			<point x="546" y="545" type="curve" smooth="yes"/>
			<point x="518" y="342" type="line"/>
			<point x="554" y="342" type="line"/>
			<point x="602" y="684" type="line"/>
			<point x="541" y="684" type="line"/>
			<point x="448" y="478" type="line"/>
			<point x="446" y="478" type="line"/>
			<point x="414" y="684" type="line"/>
			<point x="355" y="684" type="line"/>
		</contour>
	</outline>
</glyph>
<glyph name="ohm" format="2">
	<unicode hex="2126"/>
	<advance width="600"/>
	<outline>
		<contour>
			<point x="31" y="-1" type="line"/>
			<point x="238" y="0" type="line"/>
			<point x="244" y="48" type="line"/>
			<point x="154" y="142"/>
			<point x="122" y="276"/>
			<point x="141" y="412" type="curve" smooth="yes"/>
			<point x="142" y="419" type="line" smooth="yes"/>
			<point x="162" y="558"/>
			<point x="225" y="649"/>
			<point x="341" y="649" type="curve" smooth="yes"/>
			<point x="486" y="649"/>
			<point x="517" y="524"/>
			<point x="495" y="371" type="curve" smooth="yes"/>
			<point x="494" y="364" type="line" smooth="yes"/>
			<point x="475" y="230"/>
			<point x="408" y="125"/>
			<point x="296" y="48" type="curve"/>
			<point x="289" y="0" type="line"/>
			<point x="495" y="0" type="line"/>
			<point x="502" y="50" type="line"/>
			<point x="366" y="50" type="line"/>
			<point x="469" y="127"/>
			<point x="532" y="229"/>
			<point x="551" y="356" type="curve" smooth="yes"/>
			<point x="553" y="370" type="line" smooth="yes"/>
			<point x="578" y="547"/>
			<point x="524" y="697"/>
			<point x="344" y="697" type="curve" smooth="yes"/>
			<point x="201" y="697"/>
			<point x="108" y="590"/>
			<point x="85" y="428" type="curve" smooth="yes"/>
			<point x="83" y="414" type="line" smooth="yes"/>
			<point x="63" y="280"/>
			<point x="95" y="138"/>
			<point x="179" y="50" type="curve"/>
			<point x="38" y="49" type="line"/>
		</contour>
	</outline>
	<guideline x="670" y="422" angle="90"/>
	<guideline x="46" y="421" angle="90"/>
	<guideline x="507" y="453" angle="82"/>
	<guideline x="82" y="428" angle="82"/>
	<guideline x="556" y="389" angle="82"/>
</glyph>
<glyph name="arrowleft" format="2">
	<unicode hex="2190"/>
	<advance width="600"/>
	<outline>
		<contour>
			<point x="303" y="140" type="line"/>
			<point x="130" y="341" type="line"/>
			<point x="563" y="341" type="line"/>
			<point x="570" y="391" type="line"/>
			<point x="136" y="391" type="line"/>
			<point x="366" y="591" type="line"/>
			<point x="297" y="591" type="line"/>
			<point x="40" y="366" type="line"/>
			<point x="234" y="140" type="line"/>
		</contour>
	</outline>
	<guideline x="50" y="364" angle="45"/>
</glyph>
<glyph name="arrowright" format="2">
	<unicode hex="2192"/>
	<advance width="600"/>
	<outline>
		<contour>
			<point x="327" y="591" type="line"/>
			<point x="500" y="390" type="line"/>
			<point x="66" y="390" type="line"/>
			<point x="59" y="340" type="line"/>
			<point x="494" y="340" type="line"/>
			<point x="264" y="140" type="line"/>
			<point x="333" y="140" type="line"/>
			<point x="590" y="365" type="line"/>
			<point x="396" y="591" type="line"/>
		</contour>
	</outline>
</glyph>
<glyph name="arrowdown" format="2">
	<unicode hex="2193"/>
	<advance width="600"/>
	<outline>
		<contour>
			<point x="527" y="275" type="line"/>
			<point x="299" y="74" type="line"/>
			<point x="384" y="684" type="line"/>
			<point x="334" y="684" type="line"/>
			<point x="249" y="74" type="line"/>
			<point x="76" y="275" type="line"/>
			<point x="66" y="206" type="line"/>
			<point x="261" y="-19" type="line"/>
			<point x="517" y="206" type="line"/>
		</contour>
	</outline>
</glyph>
<glyph name="uni2196" format="2">
	<unicode hex="2196"/>
	<advance width="600"/>
	<outline>
		<contour>
			<point x="523" y="76" type="line"/>
			<point x="561" y="109" type="line"/>
			<point x="171" y="562" type="line"/>
			<point x="485" y="561" type="line"/>
			<point x="443" y="610" type="line"/>
			<point x="97" y="610" type="line"/>
			<point x="48" y="264" type="line"/>
			<point x="89" y="216" type="line"/>
			<point x="133" y="530" type="line"/>
		</contour>
	</outline>
</glyph>
<glyph name="uni2199" format="2">
	<unicode hex="2199"/>
	<advance width="600"/>
	<outline>
		<contour>
			<point x="22" y="76" type="line"/>
			<point x="368" y="76" type="line"/>
			<point x="423" y="124" type="line"/>
			<point x="113" y="123" type="line"/>
			<point x="626" y="572" type="line"/>
			<point x="594" y="610" type="line"/>
			<point x="83" y="162" type="line"/>
			<point x="127" y="471" type="line"/>
			<point x="71" y="422" type="line"/>
		</contour>
	</outline>
</glyph>
<glyph name="increment" format="2">
	<unicode hex="2206"/>
	<advance width="600"/>
	<outline>
		<contour>
			<point x="-7" y="0" type="line"/>
			<point x="533" y="0" type="line"/>
			<point x="391" y="688" type="line"/>
			<point x="324" y="688" type="line"/>
		</contour>
		<contour>
			<point x="77" y="49" type="line"/>
			<point x="350" y="628" type="line"/>
			<point x="465" y="49" type="line"/>
		</contour>
	</outline>
</glyph>
<glyph name="summation" format="2">
	<unicode hex="2211"/>
	<advance width="600"/>
	<outline>
		<contour>
			<point x="39" y="0" type="line"/>
			<point x="488" y="0" type="line"/>
			<point x="495" y="50" type="line"/>
			<point x="128" y="50" type="line"/>
			<point x="426" y="322" type="line"/>
			<point x="432" y="365" type="line"/>
			<point x="207" y="635" type="line"/>
			<point x="569" y="635" type="line"/>
			<point x="575" y="684" type="line"/>
			<point x="136" y="684" type="line"/>
			<point x="130" y="642" type="line"/>
			<point x="378" y="347" type="line"/>
			<point x="45" y="42" type="line"/>
		</contour>
	</outline>
</glyph>
<glyph name="minus" format="2">
	<unicode hex="2212"/>
	<advance width="600"/>
	<outline>
		<contour>
			<point x="84" y="288" type="line"/>
			<point x="524" y="288" type="line"/>
			<point x="531" y="339" type="line"/>
			<point x="91" y="339" type="line"/>
		</contour>
	</outline>
	<guideline x="529" y="329" angle="82"/>
</glyph>
<glyph name="radical" format="2">
	<unicode hex="221A"/>
	<advance width="600"/>
	<outline>
		<contour>
			<point x="216" y="0" type="line"/>
			<point x="280" y="0" type="line"/>
			<point x="619" y="684" type="line"/>
			<point x="558" y="684" type="line"/>
			<point x="257" y="62" type="line"/>
			<point x="187" y="450" type="line"/>
			<point x="74" y="450" type="line"/>
			<point x="67" y="402" type="line"/>
			<point x="141" y="402" type="line"/>
		</contour>
	</outline>
</glyph>
<glyph name="infinity" format="2">
	<unicode hex="221E"/>
	<advance width="600"/>
	<outline>
		<contour>
			<point x="212" y="592" type="curve" smooth="yes"/>
			<point x="123" y="592"/>
			<point x="68" y="507"/>
			<point x="46" y="354" type="curve" smooth="yes"/>
			<point x="22" y="181"/>
			<point x="55" y="75"/>
			<point x="162" y="75" type="curve" smooth="yes"/>
			<point x="220" y="75"/>
			<point x="276" y="121"/>
			<point x="294" y="207" type="curve"/>
			<point x="301" y="114"/>
			<point x="344" y="75"/>
			<point x="409" y="75" type="curve" smooth="yes"/>
			<point x="497" y="75"/>
			<point x="553" y="160"/>
			<point x="574" y="313" type="curve" smooth="yes"/>
			<point x="598" y="485"/>
			<point x="568" y="592"/>
			<point x="460" y="592" type="curve" smooth="yes"/>
			<point x="397" y="592"/>
			<point x="348" y="544"/>
			<point x="326" y="467" type="curve"/>
			<point x="317" y="553"/>
			<point x="273" y="592"/>
		</contour>
		<contour>
			<point x="166" y="120" type="curve" smooth="yes"/>
			<point x="94" y="120"/>
			<point x="74" y="206"/>
			<point x="95" y="350" type="curve" smooth="yes"/>
			<point x="113" y="477"/>
			<point x="147" y="547"/>
			<point x="209" y="547" type="curve" smooth="yes"/>
			<point x="282" y="547"/>
			<point x="303" y="461"/>
			<point x="281" y="310" type="curve" smooth="yes"/>
			<point x="263" y="186"/>
			<point x="228" y="120"/>
		</contour>
		<contour>
			<point x="412" y="120" type="curve" smooth="yes"/>
			<point x="339" y="120"/>
			<point x="317" y="203"/>
			<point x="339" y="355" type="curve" smooth="yes"/>
			<point x="356" y="472"/>
			<point x="390" y="547"/>
			<point x="454" y="547" type="curve" smooth="yes"/>
			<point x="527" y="547"/>
			<point x="547" y="461"/>
			<point x="527" y="317" type="curve" smooth="yes"/>
			<point x="509" y="190"/>
			<point x="473" y="120"/>
		</contour>
	</outline>
</glyph>
<glyph name="integral" format="2">
	<unicode hex="222B"/>
	<advance width="600"/>
	<outline>
		<contour>
			<point x="104" y="-204" type="curve" smooth="yes"/>
			<point x="182" y="-204"/>
			<point x="254" y="-169"/>
			<point x="271" y="-48" type="curve" smooth="yes"/>
			<point x="350" y="515" type="line" smooth="yes"/>
			<point x="365" y="619"/>
			<point x="411" y="649"/>
			<point x="478" y="649" type="curve" smooth="yes"/>
			<point x="513" y="649"/>
			<point x="539" y="641"/>
			<point x="553" y="635" type="curve"/>
			<point x="559" y="680" type="line"/>
			<point x="542" y="689"/>
			<point x="509" y="695"/>
			<point x="477" y="695" type="curve" smooth="yes"/>
			<point x="380" y="695"/>
			<point x="315" y="645"/>
			<point x="298" y="524" type="curve" smooth="yes"/>
			<point x="219" y="-41" type="line" smooth="yes"/>
			<point x="208" y="-120"/>
			<point x="178" y="-159"/>
			<point x="106" y="-159" type="curve" smooth="yes"/>
			<point x="74" y="-159"/>
			<point x="43" y="-153"/>
			<point x="17" y="-141" type="curve"/>
			<point x="11" y="-184" type="line"/>
			<point x="27" y="-194"/>
			<point x="69" y="-204"/>
		</contour>
	</outline>
</glyph>
<glyph name="approxequal" format="2">
	<unicode hex="2248"/>
	<advance width="600"/>
	<outline>
		<contour>
			<point x="200" y="417" type="curve" smooth="yes"/>
			<point x="266" y="417"/>
			<point x="343" y="361"/>
			<point x="435" y="361" type="curve" smooth="yes"/>
			<point x="476" y="361"/>
			<point x="520" y="377"/>
			<point x="540" y="402" type="curve"/>
			<point x="548" y="458" type="line"/>
			<point x="515" y="422"/>
			<point x="473" y="410"/>
			<point x="435" y="410" type="curve" smooth="yes"/>
			<point x="362" y="410"/>
			<point x="283" y="466"/>
			<point x="207" y="466" type="curve" smooth="yes"/>
			<point x="166" y="466"/>
			<point x="123" y="451"/>
			<point x="103" y="426" type="curve"/>
			<point x="95" y="369" type="line"/>
			<point x="124" y="402"/>
			<point x="164" y="417"/>
		</contour>
		<contour>
			<point x="171" y="212" type="curve" smooth="yes"/>
			<point x="237" y="212"/>
			<point x="315" y="156"/>
			<point x="406" y="156" type="curve" smooth="yes"/>
			<point x="447" y="156"/>
			<point x="491" y="172"/>
			<point x="511" y="197" type="curve"/>
			<point x="519" y="253" type="line"/>
			<point x="486" y="217"/>
			<point x="444" y="205"/>
			<point x="406" y="205" type="curve" smooth="yes"/>
			<point x="333" y="205"/>
			<point x="253" y="261"/>
			<point x="175" y="261" type="curve" smooth="yes"/>
			<point x="134" y="261"/>
			<point x="94" y="245"/>
			<point x="74" y="221" type="curve"/>
			<point x="66" y="164" type="line"/>
			<point x="95" y="197"/>
			<point x="135" y="212"/>
		</contour>
	</outline>
</glyph>
<glyph name="notequal" format="2">
	<unicode hex="2260"/>
	<advance width="600"/>
	<outline>
		<contour>
			<point x="103" y="105" type="line"/>
			<point x="161" y="105" type="line"/>
			<point x="226" y="185" type="line"/>
			<point x="510" y="185" type="line"/>
			<point x="517" y="236" type="line"/>
			<point x="268" y="236" type="line"/>
			<point x="394" y="392" type="line"/>
			<point x="538" y="392" type="line"/>
			<point x="545" y="443" type="line"/>
			<point x="436" y="443" type="line"/>
			<point x="501" y="523" type="line"/>
			<point x="443" y="523" type="line"/>
			<point x="378" y="443" type="line"/>
			<point x="105" y="443" type="line"/>
			<point x="98" y="392" type="line"/>
			<point x="336" y="392" type="line"/>
			<point x="210" y="236" type="line"/>
			<point x="77" y="236" type="line"/>
			<point x="70" y="185" type="line"/>
			<point x="168" y="185" type="line"/>
		</contour>
	</outline>
	<guideline x="68" y="177" angle="82"/>
</glyph>
<glyph name="greaterequal" format="2">
	<unicode hex="2265"/>
	<advance width="600"/>
	<outline>
		<contour>
			<point x="59" y="111" type="line"/>
			<point x="526" y="306" type="line"/>
			<point x="534" y="365" type="line"/>
			<point x="123" y="560" type="line"/>
			<point x="114" y="503" type="line"/>
			<point x="474" y="337" type="line"/>
			<point x="68" y="173" type="line"/>
		</contour>
		<contour>
			<point x="41" y="-14" type="line"/>
			<point x="481" y="-14" type="line"/>
			<point x="488" y="37" type="line"/>
			<point x="48" y="37" type="line"/>
		</contour>
	</outline>
	<guideline x="73" y="113" angle="82"/>
</glyph>
<glyph name="lozenge" format="2">
	<unicode hex="25CA"/>
	<advance width="600"/>
	<outline>
		<contour>
			<point x="234" y="0" type="line"/>
			<point x="294" y="0" type="line"/>
			<point x="567" y="339" type="line"/>
			<point x="389" y="684" type="line"/>
			<point x="328" y="684" type="line"/>
			<point x="55" y="339" type="line"/>
		</contour>
		<contour>
			<point x="119" y="339" type="line"/>
			<point x="354" y="638" type="line"/>
			<point x="504" y="346" type="line"/>
			<point x="268" y="48" type="line"/>
		</contour>
	</outline>
</glyph>
<glyph name="diamond" format="2">
	<unicode hex="2666"/>
	<advance width="600"/>
	<outline>
		<contour>
			<point x="125" y="364" type="line"/>
			<point x="446" y="-10" type="line"/>
			<point x="766" y="364" type="line"/>
			<point x="446" y="734" type="line"/>
		</contour>
	</outline>
</glyph>
<glyph name="anglebracketleft" format="2">
	<unicode hex="3008"/>
	<advance width="600"/>
	<outline>
		<contour>
			<point x="399" y="-163" type="line"/>
			<point x="457" y="-163" type="line"/>
			<point x="208" y="313" type="line"/>
			<point x="591" y="792" type="line"/>
			<point x="528" y="792" type="line"/>
			<point x="149" y="316" type="line"/>
		</contour>
	</outline>
</glyph>
<glyph name="ampersand_ampersand_ampersand.rem" format="2">
	<advance width="600"/>
	<outline>
		<contour>
			<point x="-858" y="-14" type="curve" smooth="yes"/>
			<point x="-757" y="-14"/>
			<point x="-668" y="27"/>
			<point x="-600" y="96" type="curve"/>
			<point x="-573" y="27"/>
			<point x="-504" y="-14"/>
			<point x="-404" y="-14" type="curve" smooth="yes"/>
			<point x="-301" y="-14"/>
			<point x="-213" y="28"/>
			<point x="-145" y="99" type="curve"/>
			<point x="-119" y="27"/>
			<point x="-49" y="-14"/>
			<point x="53" y="-14" type="curve" smooth="yes"/>
			<point x="151" y="-14"/>
			<point x="231" y="23"/>
			<point x="294" y="86" type="curve"/>
			<point x="371" y="0" type="line"/>
			<point x="439" y="0" type="line"/>
			<point x="329" y="125" type="line"/>
			<point x="380" y="192"/>
			<point x="418" y="279"/>
			<point x="443" y="379" type="curve"/>
			<point x="392" y="379" type="line"/>
			<point x="369" y="288"/>
			<point x="338" y="215"/>
			<point x="299" y="160" type="curve"/>
			<point x="115" y="368" type="line" smooth="yes"/>
			<point x="73" y="415"/>
			<point x="48" y="455"/>
			<point x="48" y="514" type="curve" smooth="yes"/>
			<point x="48" y="595"/>
			<point x="98" y="650"/>
			<point x="187" y="650" type="curve" smooth="yes"/>
			<point x="257" y="650"/>
			<point x="334" y="619"/>
			<point x="377" y="581" type="curve"/>
			<point x="385" y="634" type="line"/>
			<point x="344" y="667"/>
			<point x="267" y="698"/>
			<point x="191" y="698" type="curve" smooth="yes"/>
			<point x="71" y="698"/>
			<point x="-7" y="616"/>
			<point x="-7" y="508" type="curve" smooth="yes"/>
			<point x="-7" y="472"/>
			<point x="3" y="440"/>
			<point x="20" y="409" type="curve"/>
			<point x="-64" y="373"/>
			<point x="-155" y="291"/>
			<point x="-156" y="169" type="curve"/>
			<point x="-344" y="368" type="line" smooth="yes"/>
			<point x="-387" y="414"/>
			<point x="-413" y="455"/>
			<point x="-413" y="514" type="curve" smooth="yes"/>
			<point x="-413" y="595"/>
			<point x="-363" y="650"/>
			<point x="-274" y="650" type="curve" smooth="yes"/>
			<point x="-212" y="650"/>
			<point x="-143" y="622"/>
			<point x="-104" y="587" type="curve"/>
			<point x="-96" y="640" type="line"/>
			<point x="-134" y="670"/>
			<point x="-201" y="698"/>
			<point x="-270" y="698" type="curve" smooth="yes"/>
			<point x="-390" y="698"/>
			<point x="-468" y="616"/>
			<point x="-468" y="508" type="curve" smooth="yes"/>
			<point x="-468" y="472"/>
			<point x="-458" y="439"/>
			<point x="-441" y="408" type="curve"/>
			<point x="-522" y="373"/>
			<point x="-611" y="294"/>
			<point x="-613" y="173" type="curve"/>
			<point x="-797" y="368" type="line" smooth="yes"/>
			<point x="-841" y="414"/>
			<point x="-866" y="455"/>
			<point x="-866" y="514" type="curve" smooth="yes"/>
			<point x="-866" y="595"/>
			<point x="-816" y="650"/>
			<point x="-727" y="650" type="curve" smooth="yes"/>
			<point x="-665" y="650"/>
			<point x="-596" y="622"/>
			<point x="-557" y="587" type="curve"/>
			<point x="-549" y="640" type="line"/>
			<point x="-587" y="670"/>
			<point x="-654" y="698"/>
			<point x="-723" y="698" type="curve" smooth="yes"/>
			<point x="-843" y="698"/>
			<point x="-921" y="616"/>
			<point x="-921" y="508" type="curve" smooth="yes"/>
			<point x="-921" y="472"/>
			<point x="-911" y="439"/>
			<point x="-894" y="408" type="curve"/>
			<point x="-976" y="372"/>
			<point x="-1066" y="293"/>
			<point x="-1066" y="171" type="curve" smooth="yes"/>
			<point x="-1066" y="58"/>
			<point x="-989" y="-14"/>
		</contour>
		<contour>
			<point x="-101" y="171" type="curve" smooth="yes"/>
			<point x="-101" y="267"/>
			<point x="-37" y="341"/>
			<point x="44" y="370" type="curve"/>
			<point x="53" y="358"/>
			<point x="63" y="346"/>
			<point x="74" y="334" type="curve" smooth="yes"/>
			<point x="265" y="119" type="line"/>
			<point x="210" y="62"/>
			<point x="142" y="34"/>
			<point x="61" y="34" type="curve" smooth="yes"/>
			<point x="-50" y="34"/>
			<point x="-101" y="89"/>
		</contour>
		<contour>
			<point x="-1011" y="174" type="curve" smooth="yes"/>
			<point x="-1011" y="270"/>
			<point x="-949" y="341"/>
			<point x="-869" y="370" type="curve"/>
			<point x="-859" y="358"/>
			<point x="-849" y="346"/>
			<point x="-838" y="335" type="curve" smooth="yes"/>
			<point x="-635" y="125" type="line"/>
			<point x="-695" y="64"/>
			<point x="-769" y="34"/>
			<point x="-850" y="34" type="curve" smooth="yes"/>
			<point x="-960" y="34"/>
			<point x="-1011" y="93"/>
		</contour>
		<contour>
			<point x="-558" y="173" type="curve" smooth="yes"/>
			<point x="-558" y="269"/>
			<point x="-496" y="340"/>
			<point x="-416" y="370" type="curve"/>
			<point x="-406" y="358"/>
			<point x="-396" y="346"/>
			<point x="-385" y="335" type="curve" smooth="yes"/>
			<point x="-182" y="125" type="line"/>
			<point x="-242" y="64"/>
			<point x="-315" y="34"/>
			<point x="-396" y="34" type="curve" smooth="yes"/>
			<point x="-506" y="34"/>
			<point x="-558" y="92"/>
		</contour>
	</outline>
</glyph>
<glyph name="aogonek.001" format="2">
	<advance width="600"/>
	<outline>
		<contour>
			<point x="243" y="-14" type="curve" smooth="yes"/>
			<point x="315" y="-14"/>
			<point x="380" y="19"/>
			<point x="419" y="106" type="curve"/>
			<point x="403" y="2" type="line"/>
			<point x="328" y="-22"/>
			<point x="286" y="-71"/>
			<point x="286" y="-123" type="curve" smooth="yes"/>
			<point x="286" y="-182"/>
			<point x="326" y="-203"/>
			<point x="386" y="-203" type="curve" smooth="yes"/>
			<point x="405" y="-203"/>
			<point x="429" y="-198"/>
			<point x="439" y="-192" type="curve"/>
			<point x="445" y="-149" type="line"/>
			<point x="432" y="-154"/>
			<point x="414" y="-158"/>
			<point x="395" y="-158" type="curve" smooth="yes"/>
			<point x="362" y="-158"/>
			<point x="337" y="-146"/>
			<point x="337" y="-113" type="curve" smooth="yes"/>
			<point x="337" y="-72"/>
			<point x="368" y="-32"/>
			<point x="457" y="0" type="curve"/>
			<point x="531" y="523" type="line"/>
			<point x="384" y="523" type="line" smooth="yes"/>
			<point x="215" y="523"/>
			<point x="102" y="424"/>
			<point x="79" y="264" type="curve" smooth="yes"/>
			<point x="77" y="250" type="line" smooth="yes"/>
			<point x="53" y="80"/>
			<point x="124" y="-14"/>
		</contour>
		<contour>
			<point x="134" y="252" type="curve" smooth="yes"/>
			<point x="135" y="259" type="line"/>
			<point x="156" y="403"/>
			<point x="241" y="476"/>
			<point x="376" y="476" type="curve" smooth="yes"/>
			<point x="471" y="476" type="line"/>
			<point x="435" y="222" type="line" smooth="yes"/>
			<point x="420" y="118"/>
			<point x="358" y="34"/>
			<point x="262" y="34" type="curve" smooth="yes"/>
			<point x="166" y="34"/>
			<point x="114" y="111"/>
		</contour>
	</outline>
	<guideline x="480" y="0" angle="0"/>
	<guideline x="364" y="-203" angle="0"/>
</glyph>
<glyph name="asciitilde_at.cLig" format="2">
	<advance width="600"/>
	<outline>
		<contour>
			<point x="345" y="-14" type="curve"/>
			<point x="432" y="-14"/>
			<point x="489" y="78"/>
			<point x="516" y="265" type="curve" smooth="yes"/>
			<point x="518" y="279" type="line" smooth="yes"/>
			<point x="555" y="539"/>
			<point x="461" y="698"/>
			<point x="238" y="698" type="curve"/>
			<point x="18" y="698"/>
			<point x="-73" y="566"/>
			<point x="-137" y="383" type="curve" smooth="yes"/>
			<point x="-163" y="309"/>
			<point x="-173" y="270"/>
			<point x="-215" y="270" type="curve" smooth="yes"/>
			<point x="-282" y="270"/>
			<point x="-298" y="406"/>
			<point x="-401" y="406" type="curve" smooth="yes"/>
			<point x="-481" y="406"/>
			<point x="-515" y="334"/>
			<point x="-529" y="231" type="curve"/>
			<point x="-477" y="231" type="line"/>
			<point x="-465" y="317"/>
			<point x="-443" y="355"/>
			<point x="-402" y="355" type="curve" smooth="yes"/>
			<point x="-332" y="355"/>
			<point x="-317" y="218"/>
			<point x="-218" y="218" type="curve" smooth="yes"/>
			<point x="-152" y="218"/>
			<point x="-128" y="259"/>
			<point x="-88" y="378" type="curve" smooth="yes"/>
			<point x="-29" y="553"/>
			<point x="63" y="651"/>
			<point x="233" y="651" type="curve"/>
			<point x="436" y="651"/>
			<point x="499" y="500"/>
			<point x="468" y="280" type="curve" smooth="yes"/>
			<point x="467" y="273" type="line" smooth="yes"/>
			<point x="444" y="109"/>
			<point x="400" y="31"/>
			<point x="348" y="31" type="curve"/>
			<point x="309" y="31"/>
			<point x="298" y="55"/>
			<point x="307" y="118" type="curve" smooth="yes"/>
			<point x="359" y="482" type="line"/>
			<point x="311" y="482" type="line"/>
			<point x="298" y="386" type="line"/>
			<point x="280" y="458"/>
			<point x="238" y="492"/>
			<point x="173" y="492" type="curve" smooth="yes"/>
			<point x="89" y="492"/>
			<point x="23" y="422"/>
			<point x="4" y="287" type="curve" smooth="yes"/>
			<point x="-16" y="148"/>
			<point x="38" y="64"/>
			<point x="133" y="64" type="curve" smooth="yes"/>
			<point x="198" y="64"/>
			<point x="242" y="106"/>
			<point x="267" y="159" type="curve"/>
			<point x="261" y="123" type="line" smooth="yes"/>
			<point x="246" y="24"/>
			<point x="278" y="-14"/>
		</contour>
		<contour>
			<point x="148" y="110" type="curve" smooth="yes"/>
			<point x="74" y="110"/>
			<point x="39" y="176"/>
			<point x="53" y="282" type="curve" smooth="yes"/>
			<point x="68" y="393"/>
			<point x="116" y="445"/>
			<point x="182" y="445" type="curve" smooth="yes"/>
			<point x="249" y="445"/>
			<point x="296" y="384"/>
			<point x="280" y="276" type="curve" smooth="yes"/>
			<point x="265" y="174"/>
			<point x="222" y="110"/>
		</contour>
	</outline>
</glyph>
<glyph name="asciitilde_greater.cLig" format="2">
	<advance width="600"/>
	<outline>
		<contour>
			<point x="251" y="340" type="line"/>
			<point x="-109" y="340" type="line"/>
			<point x="-120" y="293"/>
			<point x="-141" y="266"/>
			<point x="-181" y="266" type="curve" smooth="yes"/>
			<point x="-255" y="266"/>
			<point x="-268" y="401"/>
			<point x="-372" y="401" type="curve" smooth="yes"/>
			<point x="-435" y="401"/>
			<point x="-488" y="363"/>
			<point x="-505" y="237" type="curve"/>
			<point x="-452" y="237" type="line"/>
			<point x="-441" y="316"/>
			<point x="-419" y="351"/>
			<point x="-374" y="351" type="curve" smooth="yes"/>
			<point x="-303" y="351"/>
			<point x="-288" y="215"/>
			<point x="-182" y="215" type="curve" smooth="yes"/>
			<point x="-131" y="215"/>
			<point x="-94" y="244"/>
			<point x="-75" y="289" type="curve"/>
			<point x="-21" y="289" type="line"/>
			<point x="395" y="288" type="line"/>
			<point x="92" y="0" type="line"/>
			<point x="165" y="0" type="line"/>
			<point x="492" y="314" type="line"/>
			<point x="249" y="629" type="line"/>
			<point x="185" y="629" type="line"/>
			<point x="408" y="339" type="line"/>
			<point x="251" y="339" type="line"/>
		</contour>
	</outline>
</glyph>
<glyph name="asterisk_asterisk_slash.rem" format="2">
	<advance width="600"/>
	<outline>
		<contour>
			<point x="-1029" y="174" type="line"/>
			<point x="-843" y="286" type="line"/>
			<point x="-884" y="83" type="line"/>
			<point x="-820" y="83" type="line"/>
			<point x="-804" y="286" type="line"/>
			<point x="-652" y="175" type="line"/>
			<point x="-612" y="230" type="line"/>
			<point x="-780" y="320" type="line"/>
			<point x="-586" y="411" type="line"/>
			<point x="-610" y="466" type="line"/>
			<point x="-795" y="354" type="line"/>
			<point x="-755" y="556" type="line"/>
			<point x="-819" y="556" type="line"/>
			<point x="-834" y="353" type="line"/>
			<point x="-989" y="466" type="line"/>
			<point x="-1029" y="411" type="line"/>
			<point x="-859" y="320" type="line"/>
			<point x="-1053" y="229" type="line"/>
		</contour>
		<contour>
			<point x="-449" y="174" type="line"/>
			<point x="-263" y="286" type="line"/>
			<point x="-304" y="83" type="line"/>
			<point x="-240" y="83" type="line"/>
			<point x="-224" y="286" type="line"/>
			<point x="-72" y="175" type="line"/>
			<point x="-32" y="230" type="line"/>
			<point x="-200" y="320" type="line"/>
			<point x="-6" y="411" type="line"/>
			<point x="-30" y="466" type="line"/>
			<point x="-215" y="354" type="line"/>
			<point x="-175" y="556" type="line"/>
			<point x="-239" y="556" type="line"/>
			<point x="-254" y="353" type="line"/>
			<point x="-409" y="466" type="line"/>
			<point x="-449" y="411" type="line"/>
			<point x="-279" y="320" type="line"/>
			<point x="-473" y="229" type="line"/>
		</contour>
		<contour>
			<point x="486" y="792" type="line"/>
			<point x="-40" y="-163" type="line"/>
			<point x="18" y="-163" type="line"/>
			<point x="545" y="792" type="line"/>
		</contour>
	</outline>
</glyph>
<glyph name="backslash_backslash.rem" format="2">
	<advance width="600"/>
	<outline>
		<contour>
			<point x="-123" y="-163" type="line"/>
			<point x="-70" y="-163" type="line"/>
			<point x="-333" y="792" type="line"/>
			<point x="-385" y="792" type="line"/>
		</contour>
		<contour>
			<point x="347" y="-163" type="line"/>
			<point x="400" y="-163" type="line"/>
			<point x="137" y="792" type="line"/>
			<point x="85" y="792" type="line"/>
		</contour>
	</outline>
</glyph>
<glyph name="backslash_slash.cLig" format="2">
	<advance width="600"/>
	<outline>
		<contour>
			<point x="-98" y="-163" type="line"/>
			<point x="-17" y="-163" type="line"/>
			<point x="510" y="792" type="line"/>
			<point x="451" y="792" type="line"/>
			<point x="-55" y="-127" type="line"/>
			<point x="-308" y="792" type="line"/>
			<point x="-360" y="792" type="line"/>
		</contour>
	</outline>
</glyph>
<glyph name="bar_bar_equal.med" format="2">
	<advance width="600"/>
	<outline>
		<contour>
			<point x="119" y="-55" type="line"/>
			<point x="171" y="-55" type="line"/>
			<point x="205" y="186" type="line"/>
			<point x="589" y="186" type="line"/>
			<point x="596" y="237" type="line"/>
			<point x="212" y="237" type="line"/>
			<point x="234" y="392" type="line"/>
			<point x="618" y="392" type="line"/>
			<point x="625" y="443" type="line"/>
			<point x="241" y="443" type="line"/>
			<point x="275" y="684" type="line"/>
			<point x="223" y="684" type="line"/>
		</contour>
		<contour>
			<point x="-610" y="186" type="line"/>
			<point x="-226" y="186" type="line"/>
			<point x="-260" y="-55" type="line"/>
			<point x="-208" y="-55" type="line"/>
			<point x="-104" y="684" type="line"/>
			<point x="-156" y="684" type="line"/>
			<point x="-190" y="443" type="line"/>
			<point x="-574" y="443" type="line"/>
			<point x="-581" y="392" type="line"/>
			<point x="-197" y="392" type="line"/>
			<point x="-219" y="237" type="line"/>
			<point x="-603" y="237" type="line"/>
		</contour>
	</outline>
</glyph>
<glyph name="bar_bar_greater.cLig" format="2">
	<advance width="600"/>
	<outline>
		<contour>
			<point x="-787" y="708" type="line"/>
			<point x="-897" y="-79" type="line"/>
			<point x="-845" y="-79" type="line"/>
			<point x="-735" y="708" type="line"/>
		</contour>
		<contour>
			<point x="-337" y="-79" type="line"/>
			<point x="-285" y="-79" type="line"/>
			<point x="323" y="284" type="line"/>
			<point x="331" y="343" type="line"/>
			<point x="-175" y="708" type="line"/>
			<point x="-227" y="708" type="line"/>
		</contour>
		<contour>
			<point x="-183" y="652" type="line"/>
			<point x="283" y="317" type="line"/>
			<point x="-276" y="-16" type="line"/>
		</contour>
	</outline>
</glyph>
<glyph name="bar_bar_hyphen.init" format="2">
	<advance width="600"/>
	<outline>
		<contour>
			<point x="0" y="-55" type="line"/>
			<point x="52" y="-55" type="line"/>
			<point x="100" y="288" type="line"/>
			<point x="604" y="288" type="line"/>
			<point x="611" y="339" type="line"/>
			<point x="107" y="339" type="line"/>
			<point x="156" y="684" type="line"/>
			<point x="104" y="684" type="line"/>
		</contour>
		<contour>
			<point x="-380" y="-55" type="line"/>
			<point x="-328" y="-55" type="line"/>
			<point x="-224" y="684" type="line"/>
			<point x="-276" y="684" type="line"/>
		</contour>
	</outline>
</glyph>
<glyph name="bar_bar_hyphen.rem" format="2">
	<advance width="600"/>
	<outline>
		<contour>
			<point x="-600" y="-55" type="line"/>
			<point x="-548" y="-55" type="line"/>
			<point x="-500" y="288" type="line"/>
			<point x="424" y="288" type="line"/>
			<point x="431" y="339" type="line"/>
			<point x="-493" y="339" type="line"/>
			<point x="-444" y="684" type="line"/>
			<point x="-496" y="684" type="line"/>
		</contour>
		<contour>
			<point x="-984" y="-55" type="line"/>
			<point x="-932" y="-55" type="line"/>
			<point x="-828" y="684" type="line"/>
			<point x="-880" y="684" type="line"/>
		</contour>
	</outline>
</glyph>
<glyph name="bar_equal.init" format="2">
	<advance width="600"/>
	<outline>
		<contour>
			<point x="224" y="684" type="line"/>
			<point x="120" y="-55" type="line"/>
			<point x="172" y="-55" type="line"/>
			<point x="206" y="186" type="line"/>
			<point x="589" y="186" type="line"/>
			<point x="596" y="237" type="line"/>
			<point x="213" y="237" type="line"/>
			<point x="235" y="392" type="line"/>
			<point x="618" y="392" type="line"/>
			<point x="625" y="443" type="line"/>
			<point x="242" y="443" type="line"/>
			<point x="276" y="684" type="line"/>
		</contour>
	</outline>
</glyph>
<glyph name="bar_equal.med" format="2">
	<advance width="600"/>
	<outline>
		<contour>
			<point x="-10" y="186" type="line"/>
			<point x="264" y="186" type="line"/>
			<point x="230" y="-55" type="line"/>
			<point x="282" y="-55" type="line"/>
			<point x="316" y="186" type="line"/>
			<point x="589" y="186" type="line"/>
			<point x="596" y="237" type="line"/>
			<point x="323" y="237" type="line"/>
			<point x="345" y="392" type="line"/>
			<point x="618" y="392" type="line"/>
			<point x="625" y="443" type="line"/>
			<point x="352" y="443" type="line"/>
			<point x="386" y="684" type="line"/>
			<point x="334" y="684" type="line"/>
			<point x="300" y="443" type="line"/>
			<point x="26" y="443" type="line"/>
			<point x="19" y="392" type="line"/>
			<point x="293" y="392" type="line"/>
			<point x="271" y="237" type="line"/>
			<point x="-3" y="237" type="line"/>
		</contour>
	</outline>
</glyph>
<glyph name="bar_equal_greater.rem" format="2">
	<advance width="600"/>
	<outline>
		<contour>
			<point x="-978" y="186" type="line"/>
			<point x="263" y="186" type="line"/>
			<point x="68" y="0" type="line"/>
			<point x="139" y="0" type="line"/>
			<point x="467" y="313" type="line"/>
			<point x="224" y="629" type="line"/>
			<point x="161" y="629" type="line"/>
			<point x="304" y="443" type="line"/>
			<point x="-942" y="443" type="line"/>
			<point x="-916" y="629" type="line"/>
			<point x="-968" y="629" type="line"/>
			<point x="-1030" y="187" type="line"/>
			<point x="-1030" y="186" type="line"/>
			<point x="-1056" y="0" type="line"/>
			<point x="-1004" y="0" type="line"/>
		</contour>
		<contour>
			<point x="401" y="317" type="line"/>
			<point x="317" y="237" type="line"/>
			<point x="-971" y="237" type="line"/>
			<point x="-949" y="392" type="line"/>
			<point x="343" y="392" type="line"/>
		</contour>
	</outline>
</glyph>
<glyph name="bar_greater.cLig" format="2">
	<advance width="600"/>
	<outline>
		<contour>
			<point x="-297" y="-79" type="line"/>
			<point x="-245" y="-79" type="line"/>
			<point x="363" y="284" type="line"/>
			<point x="371" y="343" type="line"/>
			<point x="-135" y="708" type="line"/>
			<point x="-187" y="708" type="line"/>
		</contour>
		<contour>
			<point x="-143" y="652" type="line"/>
			<point x="323" y="317" type="line"/>
			<point x="-236" y="-16" type="line"/>
		</contour>
	</outline>
</glyph>
<glyph name="bar_hyphen.fina" format="2">
	<advance width="600"/>
	<outline>
		<contour>
			<point x="4" y="288" type="line"/>
			<point x="387" y="288" type="line"/>
			<point x="339" y="-55" type="line"/>
			<point x="391" y="-55" type="line"/>
			<point x="495" y="684" type="line"/>
			<point x="443" y="684" type="line"/>
			<point x="394" y="339" type="line"/>
			<point x="11" y="339" type="line"/>
		</contour>
	</outline>
</glyph>
<glyph name="bar_hyphen.init" format="2">
	<advance width="600"/>
	<outline>
		<contour>
			<point x="120" y="-55" type="line"/>
			<point x="172" y="-55" type="line"/>
			<point x="220" y="288" type="line"/>
			<point x="604" y="288" type="line"/>
			<point x="611" y="339" type="line"/>
			<point x="227" y="339" type="line"/>
			<point x="276" y="684" type="line"/>
			<point x="224" y="684" type="line"/>
		</contour>
	</outline>
</glyph>
<glyph name="braceleft_numbersign.cLig" format="2">
	<advance width="600"/>
	<outline>
		<contour>
			<point x="-454" y="287" type="line"/>
			<point x="-384" y="287" type="line" smooth="yes"/>
			<point x="-327" y="287"/>
			<point x="-308" y="253"/>
			<point x="-308" y="221" type="curve" smooth="yes"/>
			<point x="-308" y="143"/>
			<point x="-453" y="86"/>
			<point x="-453" y="-38" type="curve" smooth="yes"/>
			<point x="-453" y="-104"/>
			<point x="-416" y="-163"/>
			<point x="-301" y="-163" type="curve" smooth="yes"/>
			<point x="-180" y="-163" type="line"/>
			<point x="-174" y="-119" type="line"/>
			<point x="-296" y="-119" type="line" smooth="yes"/>
			<point x="-364" y="-119"/>
			<point x="-399" y="-92"/>
			<point x="-399" y="-36" type="curve" smooth="yes"/>
			<point x="-399" y="71"/>
			<point x="-255" y="118"/>
			<point x="-255" y="222" type="curve" smooth="yes"/>
			<point x="-255" y="272"/>
			<point x="-297" y="307"/>
			<point x="-342" y="314" type="curve"/>
			<point x="-293" y="321"/>
			<point x="-227" y="349"/>
			<point x="-227" y="430" type="curve" smooth="yes"/>
			<point x="-227" y="514"/>
			<point x="-301" y="579"/>
			<point x="-301" y="657" type="curve" smooth="yes"/>
			<point x="-301" y="728"/>
			<point x="-249" y="748"/>
			<point x="-176" y="748" type="curve" smooth="yes"/>
			<point x="-53" y="748" type="line"/>
			<point x="-46" y="792" type="line"/>
			<point x="-179" y="792" type="line" smooth="yes"/>
			<point x="-295" y="792"/>
			<point x="-355" y="740"/>
			<point x="-355" y="657" type="curve" smooth="yes"/>
			<point x="-355" y="572"/>
			<point x="-280" y="501"/>
			<point x="-280" y="425" type="curve" smooth="yes"/>
			<point x="-280" y="378"/>
			<point x="-312" y="341"/>
			<point x="-375" y="341" type="curve" smooth="yes"/>
			<point x="-446" y="341" type="line"/>
		</contour>
		<contour>
			<point x="-110" y="222" type="line"/>
			<point x="-117" y="174" type="line"/>
			<point x="27" y="174" type="line"/>
			<point x="-14" y="0" type="line"/>
			<point x="39" y="0" type="line"/>
			<point x="80" y="174" type="line"/>
			<point x="235" y="174" type="line"/>
			<point x="194" y="0" type="line"/>
			<point x="244" y="0" type="line"/>
			<point x="285" y="174" type="line"/>
			<point x="405" y="174" type="line"/>
			<point x="412" y="222" type="line"/>
			<point x="297" y="222" type="line"/>
			<point x="357" y="476" type="line"/>
			<point x="472" y="476" type="line"/>
			<point x="479" y="525" type="line"/>
			<point x="368" y="525" type="line"/>
			<point x="406" y="684" type="line"/>
			<point x="354" y="684" type="line"/>
			<point x="317" y="525" type="line"/>
			<point x="162" y="525" type="line"/>
			<point x="199" y="684" type="line"/>
			<point x="148" y="684" type="line"/>
			<point x="110" y="525" type="line"/>
			<point x="-67" y="525" type="line"/>
			<point x="-74" y="476" type="line"/>
			<point x="99" y="476" type="line"/>
			<point x="39" y="222" type="line"/>
		</contour>
		<contour>
			<point x="91" y="222" type="line"/>
			<point x="150" y="476" type="line"/>
			<point x="305" y="476" type="line"/>
			<point x="246" y="222" type="line"/>
		</contour>
	</outline>
</glyph>
<glyph name="bracketleft_bar.cLig" format="2">
	<advance width="600"/>
	<outline>
		<contour>
			<point x="-25" y="-119" type="line"/>
			<point x="-386" y="-119" type="line"/>
			<point x="-265" y="748" type="line"/>
			<point x="97" y="748" type="line"/>
			<point x="103" y="792" type="line"/>
			<point x="-310" y="792" type="line"/>
			<point x="-445" y="-163" type="line"/>
			<point x="-32" y="-163" type="line"/>
		</contour>
		<contour>
			<point x="353" y="792" type="line"/>
			<point x="218" y="-163" type="line"/>
			<point x="270" y="-163" type="line"/>
			<point x="404" y="792" type="line"/>
		</contour>
	</outline>
</glyph>
<glyph name="bracketleft_bracketleft_numbersign.cLig" format="2">
	<advance width="600"/>
	<outline>
		<contour>
			<point x="-147" y="222" type="line"/>
			<point x="-154" y="174" type="line"/>
			<point x="-10" y="174" type="line"/>
			<point x="-51" y="0" type="line"/>
			<point x="2" y="0" type="line"/>
			<point x="43" y="174" type="line"/>
			<point x="198" y="174" type="line"/>
			<point x="157" y="0" type="line"/>
			<point x="207" y="0" type="line"/>
			<point x="248" y="174" type="line"/>
			<point x="368" y="174" type="line"/>
			<point x="375" y="222" type="line"/>
			<point x="260" y="222" type="line"/>
			<point x="320" y="476" type="line"/>
			<point x="435" y="476" type="line"/>
			<point x="442" y="525" type="line"/>
			<point x="331" y="525" type="line"/>
			<point x="369" y="684" type="line"/>
			<point x="317" y="684" type="line"/>
			<point x="280" y="525" type="line"/>
			<point x="125" y="525" type="line"/>
			<point x="162" y="684" type="line"/>
			<point x="111" y="684" type="line"/>
			<point x="73" y="525" type="line"/>
			<point x="-104" y="525" type="line"/>
			<point x="-111" y="476" type="line"/>
			<point x="62" y="476" type="line"/>
			<point x="2" y="222" type="line"/>
		</contour>
		<contour>
			<point x="54" y="222" type="line"/>
			<point x="113" y="476" type="line"/>
			<point x="268" y="476" type="line"/>
			<point x="209" y="222" type="line"/>
		</contour>
		<contour>
			<point x="-249" y="-119" type="line"/>
			<point x="-505" y="-119" type="line"/>
			<point x="-384" y="748" type="line"/>
			<point x="-127" y="748" type="line"/>
			<point x="-121" y="792" type="line"/>
			<point x="-429" y="792" type="line"/>
			<point x="-564" y="-163" type="line"/>
			<point x="-256" y="-163" type="line"/>
		</contour>
		<contour>
			<point x="-647" y="-119" type="line"/>
			<point x="-970" y="-119" type="line"/>
			<point x="-849" y="748" type="line"/>
			<point x="-525" y="748" type="line"/>
			<point x="-519" y="792" type="line"/>
			<point x="-894" y="792" type="line"/>
			<point x="-1029" y="-163" type="line"/>
			<point x="-654" y="-163" type="line"/>
		</contour>
	</outline>
</glyph>
<glyph name="bracketleft_numbersign.cLig" format="2">
	<advance width="600"/>
	<outline>
		<contour>
			<point x="-110" y="222" type="line"/>
			<point x="-117" y="174" type="line"/>
			<point x="27" y="174" type="line"/>
			<point x="-14" y="0" type="line"/>
			<point x="39" y="0" type="line"/>
			<point x="80" y="174" type="line"/>
			<point x="235" y="174" type="line"/>
			<point x="194" y="0" type="line"/>
			<point x="244" y="0" type="line"/>
			<point x="285" y="174" type="line"/>
			<point x="405" y="174" type="line"/>
			<point x="412" y="222" type="line"/>
			<point x="297" y="222" type="line"/>
			<point x="357" y="476" type="line"/>
			<point x="472" y="476" type="line"/>
			<point x="479" y="525" type="line"/>
			<point x="368" y="525" type="line"/>
			<point x="406" y="684" type="line"/>
			<point x="354" y="684" type="line"/>
			<point x="317" y="525" type="line"/>
			<point x="162" y="525" type="line"/>
			<point x="199" y="684" type="line"/>
			<point x="148" y="684" type="line"/>
			<point x="110" y="525" type="line"/>
			<point x="-67" y="525" type="line"/>
			<point x="-74" y="476" type="line"/>
			<point x="99" y="476" type="line"/>
			<point x="39" y="222" type="line"/>
		</contour>
		<contour>
			<point x="91" y="222" type="line"/>
			<point x="150" y="476" type="line"/>
			<point x="305" y="476" type="line"/>
			<point x="246" y="222" type="line"/>
		</contour>
		<contour>
			<point x="-182" y="-119" type="line"/>
			<point x="-389" y="-119" type="line"/>
			<point x="-268" y="748" type="line"/>
			<point x="-60" y="748" type="line"/>
			<point x="-54" y="792" type="line"/>
			<point x="-313" y="792" type="line"/>
			<point x="-448" y="-163" type="line"/>
			<point x="-189" y="-163" type="line"/>
		</contour>
	</outline>
</glyph>
<glyph name="bracketright_numbersign.cLig" format="2">
	<advance width="600"/>
	<outline>
		<contour>
			<point x="-509" y="-163" type="line"/>
			<point x="-250" y="-163" type="line"/>
			<point x="-202" y="174" type="line"/>
			<point x="55" y="174" type="line"/>
			<point x="14" y="0" type="line"/>
			<point x="67" y="0" type="line"/>
			<point x="108" y="174" type="line"/>
			<point x="263" y="174" type="line"/>
			<point x="222" y="0" type="line"/>
			<point x="272" y="0" type="line"/>
			<point x="313" y="174" type="line"/>
			<point x="433" y="174" type="line"/>
			<point x="440" y="222" type="line"/>
			<point x="325" y="222" type="line"/>
			<point x="385" y="476" type="line"/>
			<point x="500" y="476" type="line"/>
			<point x="507" y="525" type="line"/>
			<point x="396" y="525" type="line"/>
			<point x="434" y="684" type="line"/>
			<point x="382" y="684" type="line"/>
			<point x="345" y="525" type="line"/>
			<point x="190" y="525" type="line"/>
			<point x="227" y="684" type="line"/>
			<point x="176" y="684" type="line"/>
			<point x="138" y="525" type="line"/>
			<point x="-153" y="525" type="line"/>
			<point x="-115" y="792" type="line"/>
			<point x="-375" y="792" type="line"/>
			<point x="-381" y="748" type="line"/>
			<point x="-174" y="748" type="line"/>
			<point x="-295" y="-119" type="line"/>
			<point x="-503" y="-119" type="line"/>
		</contour>
		<contour>
			<point x="-196" y="222" type="line"/>
			<point x="-160" y="476" type="line"/>
			<point x="127" y="476" type="line"/>
			<point x="67" y="222" type="line"/>
		</contour>
		<contour>
			<point x="119" y="222" type="line"/>
			<point x="178" y="476" type="line"/>
			<point x="333" y="476" type="line"/>
			<point x="274" y="222" type="line"/>
		</contour>
	</outline>
</glyph>
<glyph name="caron.cap" format="2">
	<advance width="600"/>
	<outline>
		<contour>
			<point x="536" y="884" type="line"/>
			<point x="475" y="884" type="line"/>
			<point x="370" y="785" type="line"/>
			<point x="295" y="884" type="line"/>
			<point x="238" y="884" type="line"/>
			<point x="342" y="750" type="line"/>
			<point x="390" y="750" type="line"/>
		</contour>
	</outline>
	<anchor name="_top" x="357" y="684"/>
	<guideline x="355" y="790" angle="0" identifier="CQmXVFRJa8"/>
</glyph>
<glyph name="caronSlovak" format="2">
	<advance width="600"/>
	<outline>
		<contour>
			<point x="297" y="581" type="line"/>
			<point x="341" y="581" type="line"/>
			<point x="417" y="750" type="line"/>
			<point x="354" y="750" type="line"/>
		</contour>
	</outline>
	<anchor name="_caron" x="354" y="750"/>
</glyph>
<glyph name="circumflex.cap" format="2">
	<advance width="600"/>
	<outline>
		<contour>
			<point x="220" y="750" type="line"/>
			<point x="281" y="750" type="line"/>
			<point x="385" y="849" type="line"/>
			<point x="461" y="750" type="line"/>
			<point x="518" y="750" type="line"/>
			<point x="413" y="884" type="line"/>
			<point x="365" y="884" type="line"/>
		</contour>
	</outline>
	<anchor name="_top" x="361" y="684"/>
</glyph>
<glyph name="colon_equal.med" format="2">
	<advance width="600"/>
	<outline>
		<contour>
			<point x="324" y="402" type="curve" smooth="yes"/>
			<point x="365" y="402"/>
			<point x="381" y="420"/>
			<point x="385" y="451" type="curve" smooth="yes"/>
			<point x="390" y="485"/>
			<point x="378" y="509"/>
			<point x="330" y="509" type="curve" smooth="yes"/>
			<point x="289" y="509"/>
			<point x="273" y="491"/>
			<point x="269" y="460" type="curve" smooth="yes"/>
			<point x="264" y="426"/>
			<point x="276" y="402"/>
		</contour>
		<contour>
			<point x="508" y="392" type="line"/>
			<point x="618" y="392" type="line"/>
			<point x="625" y="443" type="line"/>
			<point x="515" y="443" type="line"/>
		</contour>
		<contour>
			<point x="18" y="392" type="line"/>
			<point x="128" y="392" type="line"/>
			<point x="135" y="443" type="line"/>
			<point x="25" y="443" type="line"/>
		</contour>
		<contour>
			<point x="479" y="186" type="line"/>
			<point x="589" y="186" type="line"/>
			<point x="596" y="237" type="line"/>
			<point x="486" y="237" type="line"/>
		</contour>
		<contour>
			<point x="-10" y="186" type="line"/>
			<point x="99" y="186" type="line"/>
			<point x="106" y="237" type="line"/>
			<point x="-3" y="237" type="line"/>
		</contour>
		<contour>
			<point x="285" y="119" type="curve" smooth="yes"/>
			<point x="326" y="119"/>
			<point x="342" y="137"/>
			<point x="346" y="168" type="curve" smooth="yes"/>
			<point x="351" y="202"/>
			<point x="339" y="226"/>
			<point x="291" y="226" type="curve" smooth="yes"/>
			<point x="250" y="226"/>
			<point x="234" y="208"/>
			<point x="230" y="177" type="curve" smooth="yes"/>
			<point x="225" y="143"/>
			<point x="237" y="119"/>
		</contour>
	</outline>
</glyph>
<glyph name="colon_greater.cLig.x" format="2">
	<advance width="600"/>
	<outline>
		<contour>
			<point x="32" y="631" type="line"/>
			<point x="23" y="573" type="line"/>
			<point x="379" y="317" type="line"/>
			<point x="-49" y="62" type="line"/>
			<point x="-58" y="-3" type="line"/>
			<point x="423" y="284" type="line"/>
			<point x="431" y="343" type="line"/>
		</contour>
		<contour>
			<point x="-267" y="472" type="curve" smooth="yes"/>
			<point x="-226" y="472"/>
			<point x="-210" y="490"/>
			<point x="-206" y="521" type="curve" smooth="yes"/>
			<point x="-201" y="555"/>
			<point x="-213" y="579"/>
			<point x="-261" y="579" type="curve" smooth="yes"/>
			<point x="-302" y="579"/>
			<point x="-318" y="561"/>
			<point x="-322" y="530" type="curve" smooth="yes"/>
			<point x="-327" y="496"/>
			<point x="-315" y="472"/>
		</contour>
		<contour>
			<point x="-326" y="50" type="curve" smooth="yes"/>
			<point x="-285" y="50"/>
			<point x="-269" y="68"/>
			<point x="-265" y="99" type="curve" smooth="yes"/>
			<point x="-260" y="133"/>
			<point x="-272" y="157"/>
			<point x="-320" y="157" type="curve" smooth="yes"/>
			<point x="-361" y="157"/>
			<point x="-377" y="139"/>
			<point x="-381" y="108" type="curve" smooth="yes"/>
			<point x="-386" y="74"/>
			<point x="-374" y="50"/>
		</contour>
	</outline>
</glyph>
<glyph name="dieresis.cap" format="2">
	<advance width="600"/>
	<outline>
		<contour>
			<point x="472" y="854" type="curve" smooth="yes"/>
			<point x="438" y="854"/>
			<point x="427" y="839"/>
			<point x="423" y="815" type="curve" smooth="yes"/>
			<point x="419" y="789"/>
			<point x="428" y="770"/>
			<point x="464" y="770" type="curve" smooth="yes"/>
			<point x="498" y="770"/>
			<point x="509" y="785"/>
			<point x="513" y="809" type="curve" smooth="yes"/>
			<point x="517" y="835"/>
			<point x="508" y="854"/>
		</contour>
		<contour>
			<point x="283" y="770" type="curve" smooth="yes"/>
			<point x="317" y="770"/>
			<point x="328" y="785"/>
			<point x="332" y="809" type="curve" smooth="yes"/>
			<point x="336" y="835"/>
			<point x="327" y="854"/>
			<point x="291" y="854" type="curve" smooth="yes"/>
			<point x="257" y="854"/>
			<point x="246" y="839"/>
			<point x="242" y="815" type="curve" smooth="yes"/>
			<point x="238" y="789"/>
			<point x="247" y="770"/>
		</contour>
	</outline>
	<anchor name="_top" x="360" y="684"/>
</glyph>
<glyph name="dollar_greater.cLig" format="2">
	<advance width="600"/>
	<outline>
		<contour>
			<point x="-407" y="-93" type="line"/>
			<point x="-357" y="-93" type="line"/>
			<point x="-332" y="-8" type="line"/>
			<point x="-315" y="-11"/>
			<point x="-296" y="-12"/>
			<point x="-278" y="-12" type="curve" smooth="yes"/>
			<point x="-139" y="-12"/>
			<point x="-34" y="67"/>
			<point x="-34" y="199" type="curve" smooth="yes"/>
			<point x="-34" y="310"/>
			<point x="-112" y="336"/>
			<point x="-225" y="363" type="curve"/>
			<point x="-142" y="641" type="line"/>
			<point x="-65" y="626"/>
			<point x="7" y="589"/>
			<point x="84" y="543" type="curve" smooth="yes"/>
			<point x="464" y="316" type="line"/>
			<point x="71" y="118" type="line"/>
			<point x="63" y="55" type="line"/>
			<point x="507" y="284" type="line"/>
			<point x="515" y="343" type="line"/>
			<point x="111" y="586" type="line" smooth="yes"/>
			<point x="31" y="634"/>
			<point x="-44" y="672"/>
			<point x="-128" y="688" type="curve"/>
			<point x="-103" y="774" type="line"/>
			<point x="-153" y="774" type="line"/>
			<point x="-177" y="694" type="line"/>
			<point x="-189" y="695"/>
			<point x="-202" y="696"/>
			<point x="-215" y="696" type="curve" smooth="yes"/>
			<point x="-374" y="696"/>
			<point x="-465" y="614"/>
			<point x="-465" y="491" type="curve" smooth="yes"/>
			<point x="-465" y="370"/>
			<point x="-376" y="341"/>
			<point x="-286" y="321" type="curve"/>
			<point x="-365" y="49" type="line"/>
			<point x="-420" y="65"/>
			<point x="-469" y="95"/>
			<point x="-507" y="140" type="curve"/>
			<point x="-516" y="80" type="line"/>
			<point x="-480" y="43"/>
			<point x="-433" y="16"/>
			<point x="-380" y="1" type="curve"/>
		</contour>
		<contour>
			<point x="-409" y="497" type="curve" smooth="yes"/>
			<point x="-409" y="590"/>
			<point x="-341" y="649"/>
			<point x="-222" y="649" type="curve" smooth="yes"/>
			<point x="-211" y="649"/>
			<point x="-201" y="649"/>
			<point x="-191" y="648" type="curve"/>
			<point x="-271" y="374" type="line"/>
			<point x="-354" y="394"/>
			<point x="-409" y="416"/>
		</contour>
		<contour>
			<point x="-90" y="191" type="curve" smooth="yes"/>
			<point x="-90" y="96"/>
			<point x="-166" y="37"/>
			<point x="-278" y="37" type="curve" smooth="yes"/>
			<point x="-292" y="37"/>
			<point x="-305" y="38"/>
			<point x="-319" y="40" type="curve"/>
			<point x="-240" y="311" type="line"/>
			<point x="-151" y="292"/>
			<point x="-90" y="275"/>
		</contour>
	</outline>
</glyph>
<glyph name="dotaccent.cap" format="2">
	<advance width="600"/>
	<outline>
		<contour>
			<point x="375" y="770" type="curve" smooth="yes"/>
			<point x="411" y="770"/>
			<point x="423" y="786"/>
			<point x="426" y="815" type="curve" smooth="yes"/>
			<point x="429" y="842"/>
			<point x="415" y="858"/>
			<point x="382" y="858" type="curve" smooth="yes"/>
			<point x="345" y="858"/>
			<point x="333" y="842"/>
			<point x="330" y="814" type="curve" smooth="yes"/>
			<point x="327" y="786"/>
			<point x="341" y="770"/>
		</contour>
	</outline>
	<anchor name="_top" x="360" y="684"/>
</glyph>
<glyph name="eight.den" format="2">
	<advance width="600"/>
	<outline>
		<contour>
			<point x="271" y="-8" type="curve" smooth="yes"/>
			<point x="371" y="-8"/>
			<point x="431" y="41"/>
			<point x="431" y="120" type="curve" smooth="yes"/>
			<point x="431" y="169"/>
			<point x="400" y="198"/>
			<point x="353" y="209" type="curve"/>
			<point x="418" y="222"/>
			<point x="453" y="256"/>
			<point x="453" y="319" type="curve" smooth="yes"/>
			<point x="453" y="384"/>
			<point x="399" y="418"/>
			<point x="314" y="418" type="curve" smooth="yes"/>
			<point x="221" y="418"/>
			<point x="166" y="375"/>
			<point x="166" y="301" type="curve" smooth="yes"/>
			<point x="166" y="254"/>
			<point x="193" y="225"/>
			<point x="237" y="213" type="curve"/>
			<point x="167" y="206"/>
			<point x="127" y="164"/>
			<point x="127" y="99" type="curve" smooth="yes"/>
			<point x="127" y="24"/>
			<point x="191" y="-8"/>
		</contour>
		<contour>
			<point x="304" y="228" type="curve" smooth="yes"/>
			<point x="248" y="228"/>
			<point x="211" y="255"/>
			<point x="211" y="300" type="curve" smooth="yes"/>
			<point x="211" y="354"/>
			<point x="245" y="382"/>
			<point x="312" y="382" type="curve" smooth="yes"/>
			<point x="368" y="382"/>
			<point x="407" y="362"/>
			<point x="407" y="314" type="curve" smooth="yes"/>
			<point x="407" y="258"/>
			<point x="369" y="228"/>
		</contour>
		<contour>
			<point x="275" y="29" type="curve" smooth="yes"/>
			<point x="219" y="29"/>
			<point x="173" y="51"/>
			<point x="173" y="105" type="curve" smooth="yes"/>
			<point x="173" y="162"/>
			<point x="211" y="191"/>
			<point x="284" y="191" type="curve" smooth="yes"/>
			<point x="350" y="191"/>
			<point x="384" y="169"/>
			<point x="384" y="122" type="curve" smooth="yes"/>
			<point x="384" y="64"/>
			<point x="344" y="29"/>
		</contour>
	</outline>
</glyph>
<glyph name="equal.den" format="2">
	<advance width="600"/>
	<outline>
		<contour>
			<point x="154" y="270" type="line"/>
			<point x="148" y="232" type="line"/>
			<point x="443" y="232" type="line"/>
			<point x="449" y="270" type="line"/>
		</contour>
		<contour>
			<point x="136" y="143" type="line"/>
			<point x="130" y="105" type="line"/>
			<point x="425" y="105" type="line"/>
			<point x="431" y="143" type="line"/>
		</contour>
	</outline>
</glyph>
<glyph name="equal_bar.rem" format="2">
	<advance width="600"/>
	<outline>
		<contour>
			<point x="295" y="-55" type="line"/>
			<point x="399" y="684" type="line"/>
			<point x="347" y="684" type="line"/>
			<point x="313" y="443" type="line"/>
			<point x="-394" y="443" type="line"/>
			<point x="-401" y="392" type="line"/>
			<point x="306" y="392" type="line"/>
			<point x="284" y="237" type="line"/>
			<point x="-423" y="237" type="line"/>
			<point x="-430" y="186" type="line"/>
			<point x="277" y="186" type="line"/>
			<point x="243" y="-55" type="line"/>
		</contour>
	</outline>
</glyph>
<glyph name="equal_bar_bar.rem" format="2">
	<advance width="600"/>
	<outline>
		<contour>
			<point x="295" y="-55" type="line"/>
			<point x="399" y="684" type="line"/>
			<point x="347" y="684" type="line"/>
			<point x="243" y="-55" type="line"/>
		</contour>
		<contour>
			<point x="-89" y="-55" type="line"/>
			<point x="15" y="684" type="line"/>
			<point x="-37" y="684" type="line"/>
			<point x="-71" y="443" type="line"/>
			<point x="-994" y="443" type="line"/>
			<point x="-1001" y="392" type="line"/>
			<point x="-78" y="392" type="line"/>
			<point x="-100" y="237" type="line"/>
			<point x="-1023" y="237" type="line"/>
			<point x="-1030" y="186" type="line"/>
			<point x="-107" y="186" type="line"/>
			<point x="-141" y="-55" type="line"/>
		</contour>
	</outline>
</glyph>
<glyph name="equal_colon_equal.rem" format="2">
	<advance width="600"/>
	<outline>
		<contour>
			<point x="-276" y="402" type="curve" smooth="yes"/>
			<point x="-235" y="402"/>
			<point x="-219" y="420"/>
			<point x="-215" y="451" type="curve" smooth="yes"/>
			<point x="-210" y="485"/>
			<point x="-222" y="509"/>
			<point x="-270" y="509" type="curve" smooth="yes"/>
			<point x="-311" y="509"/>
			<point x="-327" y="491"/>
			<point x="-331" y="460" type="curve" smooth="yes"/>
			<point x="-336" y="426"/>
			<point x="-324" y="402"/>
		</contour>
		<contour>
			<point x="-46" y="392" type="line"/>
			<point x="438" y="392" type="line"/>
			<point x="445" y="443" type="line"/>
			<point x="-39" y="443" type="line"/>
		</contour>
		<contour>
			<point x="-1002" y="392" type="line"/>
			<point x="-518" y="392" type="line"/>
			<point x="-511" y="443" type="line"/>
			<point x="-995" y="443" type="line"/>
		</contour>
		<contour>
			<point x="-1031" y="185" type="line"/>
			<point x="-547" y="185" type="line"/>
			<point x="-540" y="236" type="line"/>
			<point x="-1024" y="236" type="line"/>
		</contour>
		<contour>
			<point x="-75" y="185" type="line"/>
			<point x="409" y="185" type="line"/>
			<point x="416" y="236" type="line"/>
			<point x="-68" y="236" type="line"/>
		</contour>
		<contour>
			<point x="-315" y="119" type="curve" smooth="yes"/>
			<point x="-274" y="119"/>
			<point x="-258" y="137"/>
			<point x="-254" y="168" type="curve" smooth="yes"/>
			<point x="-249" y="202"/>
			<point x="-261" y="226"/>
			<point x="-309" y="226" type="curve" smooth="yes"/>
			<point x="-350" y="226"/>
			<point x="-366" y="208"/>
			<point x="-370" y="177" type="curve" smooth="yes"/>
			<point x="-375" y="143"/>
			<point x="-363" y="119"/>
		</contour>
	</outline>
</glyph>
<glyph name="equal_exclam_equal.rem" format="2">
	<advance width="600"/>
	<outline>
		<contour>
			<point x="-333" y="182" type="line"/>
			<point x="-293" y="182" type="line"/>
			<point x="-234" y="529" type="line"/>
			<point x="-212" y="684" type="line"/>
			<point x="-273" y="684" type="line"/>
			<point x="-295" y="530" type="line"/>
		</contour>
		<contour>
			<point x="-46" y="392" type="line"/>
			<point x="438" y="392" type="line"/>
			<point x="445" y="443" type="line"/>
			<point x="-39" y="443" type="line"/>
		</contour>
		<contour>
			<point x="-1002" y="392" type="line"/>
			<point x="-518" y="392" type="line"/>
			<point x="-511" y="443" type="line"/>
			<point x="-995" y="443" type="line"/>
		</contour>
		<contour>
			<point x="-1031" y="185" type="line"/>
			<point x="-547" y="185" type="line"/>
			<point x="-540" y="236" type="line"/>
			<point x="-1024" y="236" type="line"/>
		</contour>
		<contour>
			<point x="-75" y="185" type="line"/>
			<point x="409" y="185" type="line"/>
			<point x="416" y="236" type="line"/>
			<point x="-68" y="236" type="line"/>
		</contour>
		<contour>
			<point x="-334" y="-12" type="curve" smooth="yes"/>
			<point x="-296" y="-12"/>
			<point x="-282" y="4"/>
			<point x="-279" y="34" type="curve" smooth="yes"/>
			<point x="-276" y="62"/>
			<point x="-287" y="84"/>
			<point x="-329" y="84" type="curve" smooth="yes"/>
			<point x="-367" y="84"/>
			<point x="-381" y="67"/>
			<point x="-384" y="38" type="curve" smooth="yes"/>
			<point x="-387" y="9"/>
			<point x="-376" y="-12"/>
		</contour>
	</outline>
</glyph>
<glyph name="equal_greater.rem" format="2">
	<advance width="600"/>
	<outline>
		<contour>
			<point x="-430" y="186" type="line"/>
			<point x="273" y="186" type="line"/>
			<point x="78" y="0" type="line"/>
			<point x="149" y="0" type="line"/>
			<point x="477" y="313" type="line"/>
			<point x="234" y="629" type="line"/>
			<point x="171" y="629" type="line"/>
			<point x="314" y="443" type="line"/>
			<point x="-394" y="443" type="line"/>
			<point x="-401" y="392" type="line"/>
			<point x="353" y="392" type="line"/>
			<point x="411" y="317" type="line"/>
			<point x="327" y="237" type="line"/>
			<point x="-423" y="237" type="line"/>
		</contour>
	</outline>
</glyph>
<glyph name="equal_greater_greater.rem" format="2">
	<advance width="600"/>
	<outline>
		<contour>
			<point x="59" y="0" type="line"/>
			<point x="131" y="0" type="line"/>
			<point x="462" y="314" type="line"/>
			<point x="217" y="629" type="line"/>
			<point x="152" y="629" type="line"/>
			<point x="394" y="318" type="line"/>
		</contour>
		<contour>
			<point x="-1030" y="186" type="line"/>
			<point x="-112" y="186" type="line"/>
			<point x="-307" y="0" type="line"/>
			<point x="-236" y="0" type="line"/>
			<point x="92" y="313" type="line"/>
			<point x="-151" y="629" type="line"/>
			<point x="-214" y="629" type="line"/>
			<point x="-71" y="443" type="line"/>
			<point x="-994" y="443" type="line"/>
			<point x="-1001" y="392" type="line"/>
			<point x="-32" y="392" type="line"/>
			<point x="26" y="317" type="line"/>
			<point x="-58" y="237" type="line"/>
			<point x="-1023" y="237" type="line"/>
		</contour>
	</outline>
</glyph>
<glyph name="equal_slash_equal.rem" format="2">
	<advance width="600"/>
	<outline>
		<contour>
			<point x="-1029" y="185" type="line"/>
			<point x="-410" y="185" type="line"/>
			<point x="-607" y="-72" type="line"/>
			<point x="-545" y="-72" type="line"/>
			<point x="-348" y="185" type="line"/>
			<point x="409" y="185" type="line"/>
			<point x="416" y="236" type="line"/>
			<point x="-309" y="236" type="line"/>
			<point x="-190" y="392" type="line"/>
			<point x="437" y="392" type="line"/>
			<point x="444" y="443" type="line"/>
			<point x="-151" y="443" type="line"/>
			<point x="9" y="652" type="line"/>
			<point x="-53" y="652" type="line"/>
			<point x="-213" y="443" type="line"/>
			<point x="-994" y="443" type="line"/>
			<point x="-1001" y="392" type="line"/>
			<point x="-252" y="392" type="line"/>
			<point x="-371" y="236" type="line"/>
			<point x="-1022" y="236" type="line"/>
		</contour>
	</outline>
</glyph>
<glyph name="exclam_equal.cLig" format="2">
	<advance width="600"/>
	<outline>
		<contour>
			<point x="-430" y="185" type="line"/>
			<point x="-111" y="185" type="line"/>
			<point x="-308" y="-72" type="line"/>
			<point x="-246" y="-72" type="line"/>
			<point x="-49" y="185" type="line"/>
			<point x="409" y="185" type="line"/>
			<point x="416" y="236" type="line"/>
			<point x="-10" y="236" type="line"/>
			<point x="109" y="392" type="line"/>
			<point x="437" y="392" type="line"/>
			<point x="444" y="443" type="line"/>
			<point x="148" y="443" type="line"/>
			<point x="308" y="652" type="line"/>
			<point x="246" y="652" type="line"/>
			<point x="86" y="443" type="line"/>
			<point x="-395" y="443" type="line"/>
			<point x="-402" y="392" type="line"/>
			<point x="47" y="392" type="line"/>
			<point x="-72" y="236" type="line"/>
			<point x="-423" y="236" type="line"/>
		</contour>
	</outline>
	<guideline x="308" y="652" angle="0" identifier="OCl7tb7dzs"/>
	<guideline x="-246" y="-72" angle="0" identifier="kh4VoEQRqa"/>
</glyph>
<glyph name="exclam_equal.med" format="2">
	<advance width="600"/>
	<outline>
		<contour>
			<point x="267" y="182" type="line"/>
			<point x="307" y="182" type="line"/>
			<point x="366" y="529" type="line"/>
			<point x="388" y="684" type="line"/>
			<point x="327" y="684" type="line"/>
			<point x="305" y="530" type="line"/>
		</contour>
		<contour>
			<point x="508" y="392" type="line"/>
			<point x="618" y="392" type="line"/>
			<point x="625" y="443" type="line"/>
			<point x="515" y="443" type="line"/>
		</contour>
		<contour>
			<point x="18" y="392" type="line"/>
			<point x="128" y="392" type="line"/>
			<point x="135" y="443" type="line"/>
			<point x="25" y="443" type="line"/>
		</contour>
		<contour>
			<point x="479" y="186" type="line"/>
			<point x="589" y="186" type="line"/>
			<point x="596" y="237" type="line"/>
			<point x="486" y="237" type="line"/>
		</contour>
		<contour>
			<point x="-11" y="186" type="line"/>
			<point x="99" y="186" type="line"/>
			<point x="106" y="237" type="line"/>
			<point x="-4" y="237" type="line"/>
		</contour>
		<contour>
			<point x="266" y="-12" type="curve" smooth="yes"/>
			<point x="304" y="-12"/>
			<point x="318" y="4"/>
			<point x="321" y="34" type="curve" smooth="yes"/>
			<point x="324" y="62"/>
			<point x="313" y="84"/>
			<point x="271" y="84" type="curve" smooth="yes"/>
			<point x="233" y="84"/>
			<point x="219" y="67"/>
			<point x="216" y="38" type="curve" smooth="yes"/>
			<point x="213" y="9"/>
			<point x="224" y="-12"/>
		</contour>
	</outline>
</glyph>
<glyph name="exclam_exclam.cLig" format="2">
	<advance width="600"/>
	<outline>
		<contour>
			<point x="-260" y="182" type="line"/>
			<point x="-220" y="182" type="line"/>
			<point x="-161" y="529" type="line"/>
			<point x="-139" y="684" type="line"/>
			<point x="-200" y="684" type="line"/>
			<point x="-222" y="530" type="line"/>
		</contour>
		<contour>
			<point x="-261" y="-12" type="curve" smooth="yes"/>
			<point x="-223" y="-12"/>
			<point x="-209" y="4"/>
			<point x="-206" y="34" type="curve" smooth="yes"/>
			<point x="-203" y="62"/>
			<point x="-214" y="84"/>
			<point x="-256" y="84" type="curve" smooth="yes"/>
			<point x="-294" y="84"/>
			<point x="-308" y="67"/>
			<point x="-311" y="38" type="curve" smooth="yes"/>
			<point x="-314" y="9"/>
			<point x="-303" y="-12"/>
		</contour>
		<contour>
			<point x="194" y="182" type="line"/>
			<point x="234" y="182" type="line"/>
			<point x="293" y="529" type="line"/>
			<point x="315" y="684" type="line"/>
			<point x="254" y="684" type="line"/>
			<point x="232" y="530" type="line"/>
		</contour>
		<contour>
			<point x="193" y="-12" type="curve" smooth="yes"/>
			<point x="231" y="-12"/>
			<point x="245" y="4"/>
			<point x="248" y="34" type="curve" smooth="yes"/>
			<point x="251" y="62"/>
			<point x="240" y="84"/>
			<point x="198" y="84" type="curve" smooth="yes"/>
			<point x="160" y="84"/>
			<point x="146" y="67"/>
			<point x="143" y="38" type="curve" smooth="yes"/>
			<point x="140" y="9"/>
			<point x="151" y="-12"/>
		</contour>
	</outline>
</glyph>
<glyph name="exclam_exclam_exclam.rem" format="2">
	<advance width="600"/>
	<outline>
		<contour>
			<point x="-825" y="182" type="line"/>
			<point x="-785" y="182" type="line"/>
			<point x="-726" y="529" type="line"/>
			<point x="-704" y="684" type="line"/>
			<point x="-765" y="684" type="line"/>
			<point x="-787" y="530" type="line"/>
		</contour>
		<contour>
			<point x="-826" y="-12" type="curve" smooth="yes"/>
			<point x="-788" y="-12"/>
			<point x="-774" y="4"/>
			<point x="-771" y="34" type="curve" smooth="yes"/>
			<point x="-768" y="62"/>
			<point x="-779" y="84"/>
			<point x="-821" y="84" type="curve" smooth="yes"/>
			<point x="-859" y="84"/>
			<point x="-873" y="67"/>
			<point x="-876" y="38" type="curve" smooth="yes"/>
			<point x="-879" y="9"/>
			<point x="-868" y="-12"/>
		</contour>
		<contour>
			<point x="-333" y="182" type="line"/>
			<point x="-293" y="182" type="line"/>
			<point x="-234" y="529" type="line"/>
			<point x="-212" y="684" type="line"/>
			<point x="-273" y="684" type="line"/>
			<point x="-295" y="530" type="line"/>
		</contour>
		<contour>
			<point x="-334" y="-12" type="curve" smooth="yes"/>
			<point x="-296" y="-12"/>
			<point x="-282" y="4"/>
			<point x="-279" y="34" type="curve" smooth="yes"/>
			<point x="-276" y="62"/>
			<point x="-287" y="84"/>
			<point x="-329" y="84" type="curve" smooth="yes"/>
			<point x="-367" y="84"/>
			<point x="-381" y="67"/>
			<point x="-384" y="38" type="curve" smooth="yes"/>
			<point x="-387" y="9"/>
			<point x="-376" y="-12"/>
		</contour>
		<contour>
			<point x="159" y="182" type="line"/>
			<point x="199" y="182" type="line"/>
			<point x="258" y="529" type="line"/>
			<point x="280" y="684" type="line"/>
			<point x="219" y="684" type="line"/>
			<point x="197" y="530" type="line"/>
		</contour>
		<contour>
			<point x="158" y="-12" type="curve" smooth="yes"/>
			<point x="196" y="-12"/>
			<point x="210" y="4"/>
			<point x="213" y="34" type="curve" smooth="yes"/>
			<point x="216" y="62"/>
			<point x="205" y="84"/>
			<point x="163" y="84" type="curve" smooth="yes"/>
			<point x="125" y="84"/>
			<point x="111" y="67"/>
			<point x="108" y="38" type="curve" smooth="yes"/>
			<point x="105" y="9"/>
			<point x="116" y="-12"/>
		</contour>
	</outline>
</glyph>
<glyph name="five.numr" format="2">
	<advance width="600"/>
	<outline>
		<contour>
			<point x="318" y="366" type="curve" smooth="yes"/>
			<point x="399" y="366"/>
			<point x="450" y="420"/>
			<point x="448" y="492" type="curve" smooth="yes"/>
			<point x="447" y="550"/>
			<point x="412" y="580"/>
			<point x="340" y="580" type="curve" smooth="yes"/>
			<point x="315" y="580"/>
			<point x="295" y="577"/>
			<point x="277" y="572" type="curve"/>
			<point x="293" y="684" type="line"/>
			<point x="467" y="684" type="line"/>
			<point x="472" y="718" type="line"/>
			<point x="260" y="718" type="line"/>
			<point x="233" y="530" type="line"/>
			<point x="269" y="543"/>
			<point x="294" y="548"/>
			<point x="324" y="548" type="curve" smooth="yes"/>
			<point x="385" y="548"/>
			<point x="406" y="528"/>
			<point x="407" y="486" type="curve" smooth="yes"/>
			<point x="408" y="434"/>
			<point x="376" y="400"/>
			<point x="317" y="400" type="curve" smooth="yes"/>
			<point x="280" y="400"/>
			<point x="243" y="412"/>
			<point x="210" y="444" type="curve"/>
			<point x="205" y="406" type="line"/>
			<point x="233" y="380"/>
			<point x="272" y="366"/>
		</contour>
	</outline>
</glyph>
<glyph name="four.numr" format="2">
	<advance width="600"/>
	<outline>
		<contour>
			<point x="364" y="372" type="line"/>
			<point x="404" y="372" type="line"/>
			<point x="415" y="445" type="line"/>
			<point x="457" y="445" type="line"/>
			<point x="462" y="479" type="line"/>
			<point x="419" y="479" type="line"/>
			<point x="453" y="719" type="line"/>
			<point x="397" y="719" type="line"/>
			<point x="197" y="480" type="line"/>
			<point x="192" y="445" type="line"/>
			<point x="375" y="445" type="line"/>
		</contour>
		<contour>
			<point x="240" y="479" type="line"/>
			<point x="407" y="681" type="line"/>
			<point x="379" y="479" type="line"/>
		</contour>
	</outline>
</glyph>
<glyph name="g.ss01" format="2">
	<advance width="600"/>
	<outline>
		<contour>
			<point x="233" y="-204" type="curve" smooth="yes"/>
			<point x="360" y="-204"/>
			<point x="438" y="-135"/>
			<point x="458" y="8" type="curve" smooth="yes"/>
			<point x="531" y="523" type="line"/>
			<point x="384" y="523" type="line" smooth="yes"/>
			<point x="214" y="523"/>
			<point x="103" y="430"/>
			<point x="80" y="271" type="curve" smooth="yes"/>
			<point x="78" y="257" type="line" smooth="yes"/>
			<point x="55" y="94"/>
			<point x="125" y="0"/>
			<point x="248" y="0" type="curve" smooth="yes"/>
			<point x="318" y="0"/>
			<point x="382" y="33"/>
			<point x="421" y="121" type="curve"/>
			<point x="407" y="23" type="line" smooth="yes"/>
			<point x="389" y="-102"/>
			<point x="338" y="-157"/>
			<point x="236" y="-157" type="curve" smooth="yes"/>
			<point x="165" y="-157"/>
			<point x="107" y="-126"/>
			<point x="64" y="-87" type="curve"/>
			<point x="56" y="-141" type="line"/>
			<point x="88" y="-170"/>
			<point x="148" y="-204"/>
		</contour>
		<contour>
			<point x="264" y="48" type="curve" smooth="yes"/>
			<point x="167" y="48"/>
			<point x="116" y="125"/>
			<point x="135" y="259" type="curve" smooth="yes"/>
			<point x="136" y="266" type="line" smooth="yes"/>
			<point x="156" y="408"/>
			<point x="240" y="476"/>
			<point x="376" y="476" type="curve" smooth="yes"/>
			<point x="471" y="476" type="line"/>
			<point x="437" y="236" type="line" smooth="yes"/>
			<point x="422" y="132"/>
			<point x="360" y="48"/>
		</contour>
	</outline>
	<anchor name="top" x="359" y="523"/>
	<guideline x="516" y="410" angle="90"/>
	<guideline x="546" y="550" angle="82"/>
	<guideline x="-27" y="94" angle="0"/>
	<guideline x="275" y="-83" angle="0"/>
</glyph>
<glyph name="grave.cap" format="2">
	<advance width="600"/>
	<outline>
		<contour>
			<point x="435" y="750" type="line"/>
			<point x="384" y="884" type="line"/>
			<point x="320" y="884" type="line"/>
			<point x="388" y="750" type="line"/>
		</contour>
	</outline>
	<anchor name="_top" x="408" y="684"/>
</glyph>
<glyph name="greater_colon.cLig.x" format="2">
	<advance width="600"/>
	<outline>
		<contour>
			<point x="-457" y="-3" type="line"/>
			<point x="24" y="284" type="line"/>
			<point x="32" y="343" type="line"/>
			<point x="-367" y="631" type="line"/>
			<point x="-376" y="574" type="line"/>
			<point x="-19" y="317" type="line"/>
			<point x="-448" y="59" type="line"/>
		</contour>
		<contour>
			<point x="345" y="472" type="curve" smooth="yes"/>
			<point x="386" y="472"/>
			<point x="402" y="490"/>
			<point x="406" y="521" type="curve" smooth="yes"/>
			<point x="411" y="555"/>
			<point x="399" y="579"/>
			<point x="351" y="579" type="curve" smooth="yes"/>
			<point x="310" y="579"/>
			<point x="294" y="561"/>
			<point x="290" y="530" type="curve" smooth="yes"/>
			<point x="285" y="496"/>
			<point x="297" y="472"/>
		</contour>
		<contour>
			<point x="286" y="50" type="curve" smooth="yes"/>
			<point x="327" y="50"/>
			<point x="343" y="68"/>
			<point x="347" y="99" type="curve" smooth="yes"/>
			<point x="352" y="133"/>
			<point x="340" y="157"/>
			<point x="292" y="157" type="curve" smooth="yes"/>
			<point x="251" y="157"/>
			<point x="235" y="139"/>
			<point x="231" y="108" type="curve" smooth="yes"/>
			<point x="226" y="74"/>
			<point x="238" y="50"/>
		</contour>
	</outline>
</glyph>
<glyph name="greater_equal.fina" format="2">
	<advance width="600"/>
	<outline>
		<contour>
			<point x="-10" y="186" type="line"/>
			<point x="313" y="186" type="line"/>
			<point x="118" y="0" type="line"/>
			<point x="189" y="0" type="line"/>
			<point x="517" y="313" type="line"/>
			<point x="274" y="629" type="line"/>
			<point x="211" y="629" type="line"/>
			<point x="354" y="443" type="line"/>
			<point x="26" y="443" type="line"/>
			<point x="19" y="392" type="line"/>
			<point x="393" y="392" type="line"/>
			<point x="451" y="317" type="line"/>
			<point x="367" y="237" type="line"/>
			<point x="-3" y="237" type="line"/>
		</contour>
	</outline>
</glyph>
<glyph name="greater_equal.init" format="2">
	<advance width="600"/>
	<outline>
		<contour>
			<point x="285" y="392" type="line"/>
			<point x="618" y="392" type="line"/>
			<point x="625" y="443" type="line"/>
			<point x="310" y="443" type="line"/>
			<point x="168" y="629" type="line"/>
			<point x="105" y="629" type="line"/>
		</contour>
		<contour>
			<point x="20" y="0" type="line"/>
			<point x="91" y="0" type="line"/>
			<point x="284" y="186" type="line"/>
			<point x="589" y="186" type="line"/>
			<point x="596" y="237" type="line"/>
			<point x="264" y="237" type="line"/>
		</contour>
	</outline>
</glyph>
<glyph name="greater_greater.cLig" format="2">
	<advance width="600"/>
	<outline>
		<contour>
			<point x="-528" y="61" type="line"/>
			<point x="-57" y="286" type="line"/>
			<point x="-49" y="345" type="line"/>
			<point x="-456" y="570" type="line"/>
			<point x="-465" y="514" type="line"/>
			<point x="-104" y="318" type="line"/>
			<point x="-519" y="124" type="line"/>
		</contour>
		<contour>
			<point x="42" y="61" type="line"/>
			<point x="513" y="286" type="line"/>
			<point x="521" y="345" type="line"/>
			<point x="114" y="570" type="line"/>
			<point x="105" y="514" type="line"/>
			<point x="466" y="318" type="line"/>
			<point x="51" y="124" type="line"/>
		</contour>
	</outline>
</glyph>
<glyph name="greater_greater_equal.med" format="2">
	<advance width="600"/>
	<outline>
		<contour>
			<point x="-610" y="186" type="line"/>
			<point x="-287" y="186" type="line"/>
			<point x="-482" y="0" type="line"/>
			<point x="-411" y="0" type="line"/>
			<point x="-83" y="313" type="line"/>
			<point x="-326" y="629" type="line"/>
			<point x="-389" y="629" type="line"/>
			<point x="-246" y="443" type="line"/>
			<point x="-574" y="443" type="line"/>
			<point x="-581" y="392" type="line"/>
			<point x="-207" y="392" type="line"/>
			<point x="-149" y="317" type="line"/>
			<point x="-233" y="237" type="line"/>
			<point x="-603" y="237" type="line"/>
		</contour>
		<contour>
			<point x="155" y="392" type="line"/>
			<point x="618" y="392" type="line"/>
			<point x="625" y="443" type="line"/>
			<point x="180" y="443" type="line"/>
			<point x="38" y="629" type="line"/>
			<point x="-25" y="629" type="line"/>
		</contour>
		<contour>
			<point x="-110" y="0" type="line"/>
			<point x="-39" y="0" type="line"/>
			<point x="154" y="186" type="line"/>
			<point x="589" y="186" type="line"/>
			<point x="596" y="237" type="line"/>
			<point x="134" y="237" type="line"/>
		</contour>
	</outline>
</glyph>
<glyph name="greater_greater_equal.rem" format="2">
	<advance width="600"/>
	<outline>
		<contour>
			<point x="-1127" y="0" type="line"/>
			<point x="-1055" y="0" type="line"/>
			<point x="-730" y="313" type="line"/>
			<point x="-975" y="629" type="line"/>
			<point x="-1038" y="629" type="line"/>
			<point x="-796" y="318" type="line"/>
		</contour>
		<contour>
			<point x="-490" y="392" type="line"/>
			<point x="438" y="392" type="line"/>
			<point x="445" y="443" type="line"/>
			<point x="-465" y="443" type="line"/>
			<point x="-607" y="629" type="line"/>
			<point x="-670" y="629" type="line"/>
		</contour>
		<contour>
			<point x="-755" y="0" type="line"/>
			<point x="-684" y="0" type="line"/>
			<point x="-491" y="186" type="line"/>
			<point x="409" y="186" type="line"/>
			<point x="416" y="237" type="line"/>
			<point x="-511" y="237" type="line"/>
		</contour>
	</outline>
</glyph>
<glyph name="greater_greater_greater.cLig" format="2">
	<advance width="600"/>
	<outline>
		<contour>
			<point x="-1128" y="61" type="line"/>
			<point x="-657" y="286" type="line"/>
			<point x="-649" y="345" type="line"/>
			<point x="-1056" y="570" type="line"/>
			<point x="-1065" y="514" type="line"/>
			<point x="-704" y="318" type="line"/>
			<point x="-1119" y="124" type="line"/>
		</contour>
		<contour>
			<point x="-543" y="61" type="line"/>
			<point x="-72" y="286" type="line"/>
			<point x="-64" y="345" type="line"/>
			<point x="-471" y="570" type="line"/>
			<point x="-480" y="514" type="line"/>
			<point x="-119" y="318" type="line"/>
			<point x="-534" y="124" type="line"/>
		</contour>
		<contour>
			<point x="42" y="61" type="line"/>
			<point x="513" y="286" type="line"/>
			<point x="521" y="345" type="line"/>
			<point x="114" y="570" type="line"/>
			<point x="105" y="514" type="line"/>
			<point x="466" y="318" type="line"/>
			<point x="51" y="124" type="line"/>
		</contour>
	</outline>
</glyph>
<glyph name="greater_greater_hyphen.fina" format="2">
	<advance width="600"/>
	<outline>
		<contour>
			<point x="77" y="0" type="line"/>
			<point x="151" y="0" type="line"/>
			<point x="478" y="314" type="line"/>
			<point x="227" y="629" type="line"/>
			<point x="162" y="629" type="line"/>
			<point x="410" y="319" type="line"/>
		</contour>
		<contour>
			<point x="-169" y="340" type="line"/>
			<point x="-589" y="340" type="line"/>
			<point x="-596" y="289" type="line"/>
			<point x="-400" y="289" type="line"/>
			<point x="16" y="288" type="line"/>
			<point x="-287" y="0" type="line"/>
			<point x="-214" y="0" type="line"/>
			<point x="113" y="314" type="line"/>
			<point x="-130" y="629" type="line"/>
			<point x="-194" y="629" type="line"/>
			<point x="29" y="339" type="line"/>
			<point x="-169" y="339" type="line"/>
		</contour>
	</outline>
</glyph>
<glyph name="greater_greater_hyphen.init" format="2">
	<advance width="600"/>
	<outline>
		<contour>
			<point x="-543" y="0" type="line"/>
			<point x="-471" y="0" type="line"/>
			<point x="-146" y="314" type="line"/>
			<point x="-394" y="629" type="line"/>
			<point x="-458" y="629" type="line"/>
			<point x="-213" y="318" type="line"/>
		</contour>
		<contour>
			<point x="-168" y="0" type="line"/>
			<point x="-95" y="0" type="line"/>
			<point x="206" y="289" type="line"/>
			<point x="604" y="289" type="line"/>
			<point x="611" y="340" type="line"/>
			<point x="211" y="340" type="line"/>
			<point x="-19" y="629" type="line"/>
			<point x="-83" y="629" type="line"/>
			<point x="165" y="318" type="line"/>
		</contour>
	</outline>
</glyph>
<glyph name="greater_greater_hyphen.rem" format="2">
	<advance width="600"/>
	<outline>
		<contour>
			<point x="-1083" y="0" type="line"/>
			<point x="-1011" y="0" type="line"/>
			<point x="-686" y="314" type="line"/>
			<point x="-934" y="629" type="line"/>
			<point x="-998" y="629" type="line"/>
			<point x="-753" y="318" type="line"/>
		</contour>
		<contour>
			<point x="-708" y="0" type="line"/>
			<point x="-635" y="0" type="line"/>
			<point x="-334" y="289" type="line"/>
			<point x="484" y="289" type="line"/>
			<point x="491" y="340" type="line"/>
			<point x="-329" y="340" type="line"/>
			<point x="-559" y="629" type="line"/>
			<point x="-623" y="629" type="line"/>
			<point x="-375" y="318" type="line"/>
		</contour>
	</outline>
</glyph>
<glyph name="greater_hyphen_greater.rem" format="2">
	<advance width="600"/>
	<outline>
		<contour>
			<point x="-1089" y="0" type="line"/>
			<point x="-1016" y="0" type="line"/>
			<point x="-715" y="289" type="line"/>
			<point x="-46" y="289" type="line"/>
			<point x="370" y="288" type="line"/>
			<point x="67" y="0" type="line"/>
			<point x="140" y="0" type="line"/>
			<point x="467" y="314" type="line"/>
			<point x="224" y="629" type="line"/>
			<point x="160" y="629" type="line"/>
			<point x="383" y="339" type="line"/>
			<point x="51" y="340" type="line"/>
			<point x="-710" y="340" type="line"/>
			<point x="-940" y="629" type="line"/>
			<point x="-1004" y="629" type="line"/>
			<point x="-756" y="318" type="line"/>
		</contour>
	</outline>
</glyph>
<glyph name="hungarumlaut.cap" format="2">
	<advance width="600"/>
	<outline>
		<contour>
			<point x="365" y="750" type="line"/>
			<point x="412" y="750" type="line"/>
			<point x="513" y="884" type="line"/>
			<point x="451" y="884" type="line"/>
		</contour>
		<contour>
			<point x="242" y="750" type="line"/>
			<point x="290" y="750" type="line"/>
			<point x="390" y="884" type="line"/>
			<point x="327" y="884" type="line"/>
		</contour>
	</outline>
	<anchor name="_top" x="318" y="684"/>
</glyph>
<glyph name="hyphen_asciitilde.cLig" format="2">
	<advance width="600"/>
	<outline>
		<contour>
			<point x="-376" y="288" type="line"/>
			<point x="-16" y="288" type="line"/>
			<point x="-5" y="335"/>
			<point x="16" y="362"/>
			<point x="56" y="362" type="curve" smooth="yes"/>
			<point x="130" y="362"/>
			<point x="143" y="227"/>
			<point x="247" y="227" type="curve" smooth="yes"/>
			<point x="310" y="227"/>
			<point x="363" y="265"/>
			<point x="380" y="391" type="curve"/>
			<point x="327" y="391" type="line"/>
			<point x="316" y="312"/>
			<point x="294" y="277"/>
			<point x="249" y="277" type="curve" smooth="yes"/>
			<point x="178" y="277"/>
			<point x="163" y="413"/>
			<point x="57" y="413" type="curve" smooth="yes"/>
			<point x="6" y="413"/>
			<point x="-31" y="384"/>
			<point x="-50" y="339" type="curve"/>
			<point x="-369" y="339" type="line"/>
		</contour>
	</outline>
</glyph>
<glyph name="hyphen_bar_bar.rem" format="2">
	<advance width="600"/>
	<outline>
		<contour>
			<point x="15" y="683" type="line"/>
			<point x="-37" y="683" type="line"/>
			<point x="-85" y="340" type="line"/>
			<point x="-1009" y="340" type="line"/>
			<point x="-1016" y="289" type="line"/>
			<point x="-92" y="289" type="line"/>
			<point x="-141" y="-56" type="line"/>
			<point x="-89" y="-56" type="line"/>
		</contour>
		<contour>
			<point x="399" y="683" type="line"/>
			<point x="347" y="683" type="line"/>
			<point x="243" y="-56" type="line"/>
			<point x="295" y="-56" type="line"/>
		</contour>
	</outline>
</glyph>
<glyph name="hyphen_greater.rem" format="2">
	<advance width="600"/>
	<outline>
		<contour>
			<point x="11" y="340" type="line"/>
			<point x="-409" y="340" type="line"/>
			<point x="-416" y="289" type="line"/>
			<point x="-86" y="289" type="line"/>
			<point x="330" y="288" type="line"/>
			<point x="27" y="0" type="line"/>
			<point x="100" y="0" type="line"/>
			<point x="427" y="314" type="line"/>
			<point x="184" y="629" type="line"/>
			<point x="120" y="629" type="line"/>
			<point x="343" y="339" type="line"/>
			<point x="11" y="340" type="line"/>
		</contour>
	</outline>
</glyph>
